<?xml version="1.0" encoding="utf-8" standalone="no"?>
<!DOCTYPE svg PUBLIC "-//W3C//DTD SVG 1.1//EN"
  "http://www.w3.org/Graphics/SVG/1.1/DTD/svg11.dtd">
<svg xmlns:xlink="http://www.w3.org/1999/xlink" width="961.099939pt" height="549.315pt" viewBox="0 0 961.099939 549.315" xmlns="http://www.w3.org/2000/svg" version="1.1">
 <metadata>
  <rdf:RDF xmlns:dc="http://purl.org/dc/elements/1.1/" xmlns:cc="http://creativecommons.org/ns#" xmlns:rdf="http://www.w3.org/1999/02/22-rdf-syntax-ns#">
   <cc:Work>
    <dc:type rdf:resource="http://purl.org/dc/dcmitype/StillImage"/>
    <dc:date>2024-07-23T18:17:18.092705</dc:date>
    <dc:format>image/svg+xml</dc:format>
    <dc:creator>
     <cc:Agent>
      <dc:title>Matplotlib v3.8.0, https://matplotlib.org/</dc:title>
     </cc:Agent>
    </dc:creator>
   </cc:Work>
  </rdf:RDF>
 </metadata>
 <defs>
  <style type="text/css">*{stroke-linejoin: round; stroke-linecap: butt}</style>
 </defs>
 <g id="figure_1">
  <g id="patch_1">
   <path d="M 0 549.315 
L 961.099939 549.315 
L 961.099939 0 
L 0 0 
z
" style="fill: #ffffff"/>
  </g>
  <g id="axes_1">
   <g id="patch_2">
    <path d="M 58.0625 498.786875 
L 670.401767 498.786875 
L 670.401767 27.546875 
L 58.0625 27.546875 
z
" style="fill: #ffffff"/>
   </g>
   <g id="PathCollection_1">
    <defs>
     <path id="ma666178b88" d="M 0 7.905694 
C 2.096615 7.905694 4.10764 7.0727 5.59017 5.59017 
C 7.0727 4.10764 7.905694 2.096615 7.905694 0 
C 7.905694 -2.096615 7.0727 -4.10764 5.59017 -5.59017 
C 4.10764 -7.0727 2.096615 -7.905694 0 -7.905694 
C -2.096615 -7.905694 -4.10764 -7.0727 -5.59017 -5.59017 
C -7.0727 -4.10764 -7.905694 -2.096615 -7.905694 0 
C -7.905694 2.096615 -7.0727 4.10764 -5.59017 5.59017 
C -4.10764 7.0727 -2.096615 7.905694 0 7.905694 
z
" style="stroke: #ff0000"/>
    </defs>
    <g clip-path="url(#pf530414e39)">
     <use xlink:href="#ma666178b88" x="111.667958" y="381.538692" style="fill: #ffffff; stroke: #ff0000"/>
    </g>
   </g>
   <g id="PathCollection_2">
    <g clip-path="url(#pf530414e39)">
     <use xlink:href="#ma666178b88" x="211.220951" y="257.419887" style="fill: #ffffff; stroke: #ff0000"/>
    </g>
   </g>
   <g id="PathCollection_3">
    <g clip-path="url(#pf530414e39)">
     <use xlink:href="#ma666178b88" x="578.801232" y="134.424948" style="fill: #ffffff; stroke: #ff0000"/>
    </g>
   </g>
   <g id="patch_3">
    <path d="M 641.242754 131.370114 
Q 641.242754 91.168107 641.242754 53.202167 
" clip-path="url(#pf530414e39)" style="fill: none; stroke: #000000; stroke-width: 2; stroke-linecap: round"/>
    <path d="M 637.242754 61.202167 
L 641.242754 53.202167 
L 645.242754 61.202167 
" clip-path="url(#pf530414e39)" style="fill: none; stroke: #000000; stroke-width: 2; stroke-linecap: round"/>
   </g>
   <g id="patch_4">
    <path d="M 641.242754 50.968292 
Q 641.242754 91.170299 641.242754 129.136238 
" clip-path="url(#pf530414e39)" style="fill: none; stroke: #000000; stroke-width: 2; stroke-linecap: round"/>
    <path d="M 645.242754 121.136238 
L 641.242754 129.136238 
L 637.242754 121.136238 
" clip-path="url(#pf530414e39)" style="fill: none; stroke: #000000; stroke-width: 2; stroke-linecap: round"/>
   </g>
   <g id="patch_5">
    <path d="M 101.254235 365.791466 
Q 146.864816 308.874176 191.077102 253.701813 
" clip-path="url(#pf530414e39)" style="fill: none; stroke: #e89818; stroke-width: 2; stroke-linecap: round"/>
    <path d="M 182.952989 257.44331 
L 191.077102 253.701813 
L 189.195831 262.446001 
" clip-path="url(#pf530414e39)" style="fill: none; stroke: #e89818; stroke-width: 2; stroke-linecap: round"/>
   </g>
   <g id="patch_6">
    <path d="M 192.47566 251.956557 
Q 146.865079 308.873847 102.652794 364.04621 
" clip-path="url(#pf530414e39)" style="fill: none; stroke: #e89818; stroke-width: 2; stroke-linecap: round"/>
    <path d="M 110.776906 360.304714 
L 102.652794 364.04621 
L 104.534064 355.302022 
" clip-path="url(#pf530414e39)" style="fill: none; stroke: #e89818; stroke-width: 2; stroke-linecap: round"/>
   </g>
   <g id="patch_7">
    <path d="M 641.242754 48.966875 
L 646.345582 59.517457 
L 641.271913 59.517457 
L 641.271913 133.371531 
L 641.213595 133.371531 
L 641.213595 59.517457 
L 636.139927 59.517457 
z
" clip-path="url(#pf530414e39)" style="stroke: #000000; stroke-linejoin: miter"/>
   </g>
   <g id="patch_8">
    <path d="M 641.242754 133.371531 
L 636.139927 122.820949 
L 641.213595 122.820949 
L 641.213595 48.966875 
L 641.271913 48.966875 
L 641.271913 122.820949 
L 646.345582 122.820949 
z
" clip-path="url(#pf530414e39)" style="stroke: #000000; stroke-linejoin: miter"/>
   </g>
   <g id="matplotlib.axis_1">
    <g id="xtick_1">
     <g id="line2d_1">
      <path d="M 58.0625 498.786875 
L 58.0625 27.546875 
" clip-path="url(#pf530414e39)" style="fill: none; stroke-dasharray: 2.96,1.28; stroke-dashoffset: 0; stroke: #b0b0b0; stroke-opacity: 0.3; stroke-width: 0.8"/>
     </g>
     <g id="line2d_2">
      <defs>
       <path id="m4b3ef38e44" d="M 0 0 
L 0 4 
" style="stroke: #000000"/>
      </defs>
      <g>
       <use xlink:href="#m4b3ef38e44" x="58.0625" y="498.786875" style="stroke: #000000"/>
      </g>
     </g>
     <g id="text_1">
      <!-- 0% -->
      <g transform="translate(46.5 517.764375) scale(0.16 -0.16)">
       <defs>
        <path id="Helvetica-30" d="M 1731 4475 
Q 2600 4475 2988 3759 
Q 3288 3206 3288 2244 
Q 3288 1331 3016 734 
Q 2622 -122 1728 -122 
Q 922 -122 528 578 
Q 200 1163 200 2147 
Q 200 2909 397 3456 
Q 766 4475 1731 4475 
z
M 1725 391 
Q 2163 391 2422 778 
Q 2681 1166 2681 2222 
Q 2681 2984 2493 3476 
Q 2306 3969 1766 3969 
Q 1269 3969 1039 3501 
Q 809 3034 809 2125 
Q 809 1441 956 1025 
Q 1181 391 1725 391 
z
" transform="scale(0.015625)"/>
        <path id="Helvetica-25" d="M 4363 2175 
Q 4813 2175 5131 1856 
Q 5450 1538 5450 1088 
Q 5450 638 5131 319 
Q 4813 0 4363 0 
Q 3909 0 3590 319 
Q 3272 638 3272 1088 
Q 3272 1538 3590 1856 
Q 3909 2175 4363 2175 
z
M 3909 4456 
L 4256 4456 
L 1753 -119 
L 1406 -119 
L 3909 4456 
z
M 1294 2606 
Q 1563 2606 1752 2795 
Q 1941 2984 1941 3250 
Q 1941 3516 1752 3705 
Q 1563 3894 1294 3894 
Q 1028 3894 839 3706 
Q 650 3519 650 3250 
Q 650 2984 839 2795 
Q 1028 2606 1294 2606 
z
M 1294 4341 
Q 1747 4341 2065 4020 
Q 2384 3700 2384 3250 
Q 2384 2800 2065 2481 
Q 1747 2163 1294 2163 
Q 844 2163 525 2481 
Q 206 2800 206 3250 
Q 206 3700 525 4020 
Q 844 4341 1294 4341 
z
M 4363 444 
Q 4628 444 4817 633 
Q 5006 822 5006 1088 
Q 5006 1353 4817 1542 
Q 4628 1731 4363 1731 
Q 4094 1731 3905 1542 
Q 3716 1353 3716 1088 
Q 3716 822 3905 633 
Q 4094 444 4363 444 
z
" transform="scale(0.015625)"/>
       </defs>
       <use xlink:href="#Helvetica-30"/>
       <use xlink:href="#Helvetica-25" x="55.615234"/>
      </g>
     </g>
    </g>
    <g id="xtick_2">
     <g id="line2d_3">
      <path d="M 174.698551 498.786875 
L 174.698551 27.546875 
" clip-path="url(#pf530414e39)" style="fill: none; stroke-dasharray: 2.96,1.28; stroke-dashoffset: 0; stroke: #b0b0b0; stroke-opacity: 0.3; stroke-width: 0.8"/>
     </g>
     <g id="line2d_4">
      <g>
       <use xlink:href="#m4b3ef38e44" x="174.698551" y="498.786875" style="stroke: #000000"/>
      </g>
     </g>
     <g id="text_2">
      <!-- 20% -->
      <g transform="translate(158.687301 517.764375) scale(0.16 -0.16)">
       <defs>
        <path id="Helvetica-32" d="M 200 0 
Q 231 578 439 1006 
Q 647 1434 1250 1784 
L 1850 2131 
Q 2253 2366 2416 2531 
Q 2672 2791 2672 3125 
Q 2672 3516 2437 3745 
Q 2203 3975 1813 3975 
Q 1234 3975 1013 3538 
Q 894 3303 881 2888 
L 309 2888 
Q 319 3472 525 3841 
Q 891 4491 1816 4491 
Q 2584 4491 2939 4075 
Q 3294 3659 3294 3150 
Q 3294 2613 2916 2231 
Q 2697 2009 2131 1694 
L 1703 1456 
Q 1397 1288 1222 1134 
Q 909 863 828 531 
L 3272 531 
L 3272 0 
L 200 0 
z
" transform="scale(0.015625)"/>
       </defs>
       <use xlink:href="#Helvetica-32"/>
       <use xlink:href="#Helvetica-30" x="55.615234"/>
       <use xlink:href="#Helvetica-25" x="111.230469"/>
      </g>
     </g>
    </g>
    <g id="xtick_3">
     <g id="line2d_5">
      <path d="M 291.334602 498.786875 
L 291.334602 27.546875 
" clip-path="url(#pf530414e39)" style="fill: none; stroke-dasharray: 2.96,1.28; stroke-dashoffset: 0; stroke: #b0b0b0; stroke-opacity: 0.3; stroke-width: 0.8"/>
     </g>
     <g id="line2d_6">
      <g>
       <use xlink:href="#m4b3ef38e44" x="291.334602" y="498.786875" style="stroke: #000000"/>
      </g>
     </g>
     <g id="text_3">
      <!-- 40% -->
      <g transform="translate(275.323352 517.764375) scale(0.16 -0.16)">
       <defs>
        <path id="Helvetica-34" d="M 2116 1584 
L 2116 3613 
L 681 1584 
L 2116 1584 
z
M 2125 0 
L 2125 1094 
L 163 1094 
L 163 1644 
L 2213 4488 
L 2688 4488 
L 2688 1584 
L 3347 1584 
L 3347 1094 
L 2688 1094 
L 2688 0 
L 2125 0 
z
" transform="scale(0.015625)"/>
       </defs>
       <use xlink:href="#Helvetica-34"/>
       <use xlink:href="#Helvetica-30" x="55.615234"/>
       <use xlink:href="#Helvetica-25" x="111.230469"/>
      </g>
     </g>
    </g>
    <g id="xtick_4">
     <g id="line2d_7">
      <path d="M 407.970653 498.786875 
L 407.970653 27.546875 
" clip-path="url(#pf530414e39)" style="fill: none; stroke-dasharray: 2.96,1.28; stroke-dashoffset: 0; stroke: #b0b0b0; stroke-opacity: 0.3; stroke-width: 0.8"/>
     </g>
     <g id="line2d_8">
      <g>
       <use xlink:href="#m4b3ef38e44" x="407.970653" y="498.786875" style="stroke: #000000"/>
      </g>
     </g>
     <g id="text_4">
      <!-- 60% -->
      <g transform="translate(391.959403 517.764375) scale(0.16 -0.16)">
       <defs>
        <path id="Helvetica-36" d="M 1872 4494 
Q 2622 4494 2917 4105 
Q 3213 3716 3213 3303 
L 2656 3303 
Q 2606 3569 2497 3719 
Q 2294 4000 1881 4000 
Q 1409 4000 1131 3564 
Q 853 3128 822 2316 
Q 1016 2600 1309 2741 
Q 1578 2866 1909 2866 
Q 2472 2866 2890 2506 
Q 3309 2147 3309 1434 
Q 3309 825 2912 354 
Q 2516 -116 1781 -116 
Q 1153 -116 697 361 
Q 241 838 241 1966 
Q 241 2800 444 3381 
Q 834 4494 1872 4494 
z
M 1831 384 
Q 2275 384 2495 682 
Q 2716 981 2716 1388 
Q 2716 1731 2519 2042 
Q 2322 2353 1803 2353 
Q 1441 2353 1167 2112 
Q 894 1872 894 1388 
Q 894 963 1142 673 
Q 1391 384 1831 384 
z
" transform="scale(0.015625)"/>
       </defs>
       <use xlink:href="#Helvetica-36"/>
       <use xlink:href="#Helvetica-30" x="55.615234"/>
       <use xlink:href="#Helvetica-25" x="111.230469"/>
      </g>
     </g>
    </g>
    <g id="xtick_5">
     <g id="line2d_9">
      <path d="M 524.606703 498.786875 
L 524.606703 27.546875 
" clip-path="url(#pf530414e39)" style="fill: none; stroke-dasharray: 2.96,1.28; stroke-dashoffset: 0; stroke: #b0b0b0; stroke-opacity: 0.3; stroke-width: 0.8"/>
     </g>
     <g id="line2d_10">
      <g>
       <use xlink:href="#m4b3ef38e44" x="524.606703" y="498.786875" style="stroke: #000000"/>
      </g>
     </g>
     <g id="text_5">
      <!-- 80% -->
      <g transform="translate(508.595453 517.764375) scale(0.16 -0.16)">
       <defs>
        <path id="Helvetica-38" d="M 1741 2600 
Q 2113 2600 2322 2808 
Q 2531 3016 2531 3303 
Q 2531 3553 2331 3762 
Q 2131 3972 1722 3972 
Q 1316 3972 1134 3762 
Q 953 3553 953 3272 
Q 953 2956 1187 2778 
Q 1422 2600 1741 2600 
z
M 1775 384 
Q 2166 384 2423 595 
Q 2681 806 2681 1225 
Q 2681 1659 2415 1884 
Q 2150 2109 1734 2109 
Q 1331 2109 1076 1879 
Q 822 1650 822 1244 
Q 822 894 1055 639 
Q 1288 384 1775 384 
z
M 975 2384 
Q 741 2484 609 2619 
Q 363 2869 363 3269 
Q 363 3769 725 4128 
Q 1088 4488 1753 4488 
Q 2397 4488 2762 4148 
Q 3128 3809 3128 3356 
Q 3128 2938 2916 2678 
Q 2797 2531 2547 2391 
Q 2825 2263 2984 2097 
Q 3281 1784 3281 1284 
Q 3281 694 2884 283 
Q 2488 -128 1763 -128 
Q 1109 -128 657 226 
Q 206 581 206 1256 
Q 206 1653 400 1942 
Q 594 2231 975 2384 
z
" transform="scale(0.015625)"/>
       </defs>
       <use xlink:href="#Helvetica-38"/>
       <use xlink:href="#Helvetica-30" x="55.615234"/>
       <use xlink:href="#Helvetica-25" x="111.230469"/>
      </g>
     </g>
    </g>
    <g id="xtick_6">
     <g id="line2d_11">
      <path d="M 641.242754 498.786875 
L 641.242754 27.546875 
" clip-path="url(#pf530414e39)" style="fill: none; stroke-dasharray: 2.96,1.28; stroke-dashoffset: 0; stroke: #b0b0b0; stroke-opacity: 0.3; stroke-width: 0.8"/>
     </g>
     <g id="line2d_12">
      <g>
       <use xlink:href="#m4b3ef38e44" x="641.242754" y="498.786875" style="stroke: #000000"/>
      </g>
     </g>
     <g id="text_6">
      <!-- 100% -->
      <g transform="translate(620.782754 517.764375) scale(0.16 -0.16)">
       <defs>
        <path id="Helvetica-31" d="M 613 3169 
L 613 3600 
Q 1222 3659 1462 3798 
Q 1703 3938 1822 4456 
L 2266 4456 
L 2266 0 
L 1666 0 
L 1666 3169 
L 613 3169 
z
" transform="scale(0.015625)"/>
       </defs>
       <use xlink:href="#Helvetica-31"/>
       <use xlink:href="#Helvetica-30" x="55.615234"/>
       <use xlink:href="#Helvetica-30" x="111.230469"/>
       <use xlink:href="#Helvetica-25" x="166.845703"/>
      </g>
     </g>
    </g>
    <g id="text_7">
     <!-- Information Captured -->
     <g transform="translate(279.692602 538.363125) scale(0.18 -0.18)">
      <defs>
       <path id="Helvetica-49" d="M 628 4591 
L 1256 4591 
L 1256 0 
L 628 0 
L 628 4591 
z
" transform="scale(0.015625)"/>
       <path id="Helvetica-6e" d="M 413 3347 
L 947 3347 
L 947 2872 
Q 1184 3166 1450 3294 
Q 1716 3422 2041 3422 
Q 2753 3422 3003 2925 
Q 3141 2653 3141 2147 
L 3141 0 
L 2569 0 
L 2569 2109 
Q 2569 2416 2478 2603 
Q 2328 2916 1934 2916 
Q 1734 2916 1606 2875 
Q 1375 2806 1200 2600 
Q 1059 2434 1017 2257 
Q 975 2081 975 1753 
L 975 0 
L 413 0 
L 413 3347 
z
M 1734 3428 
L 1734 3428 
z
" transform="scale(0.015625)"/>
       <path id="Helvetica-66" d="M 553 3856 
Q 566 4206 675 4369 
Q 872 4656 1434 4656 
Q 1488 4656 1544 4653 
Q 1600 4650 1672 4644 
L 1672 4131 
Q 1584 4138 1545 4139 
Q 1506 4141 1472 4141 
Q 1216 4141 1166 4008 
Q 1116 3875 1116 3331 
L 1672 3331 
L 1672 2888 
L 1109 2888 
L 1109 0 
L 553 0 
L 553 2888 
L 88 2888 
L 88 3331 
L 553 3331 
L 553 3856 
z
" transform="scale(0.015625)"/>
       <path id="Helvetica-6f" d="M 1741 363 
Q 2300 363 2508 786 
Q 2716 1209 2716 1728 
Q 2716 2197 2566 2491 
Q 2328 2953 1747 2953 
Q 1231 2953 997 2559 
Q 763 2166 763 1609 
Q 763 1075 997 719 
Q 1231 363 1741 363 
z
M 1763 3444 
Q 2409 3444 2856 3012 
Q 3303 2581 3303 1744 
Q 3303 934 2909 406 
Q 2516 -122 1688 -122 
Q 997 -122 590 345 
Q 184 813 184 1600 
Q 184 2444 612 2944 
Q 1041 3444 1763 3444 
z
M 1744 3428 
L 1744 3428 
z
" transform="scale(0.015625)"/>
       <path id="Helvetica-72" d="M 428 3347 
L 963 3347 
L 963 2769 
Q 1028 2938 1284 3180 
Q 1541 3422 1875 3422 
Q 1891 3422 1928 3419 
Q 1966 3416 2056 3406 
L 2056 2813 
Q 2006 2822 1964 2825 
Q 1922 2828 1872 2828 
Q 1447 2828 1219 2554 
Q 991 2281 991 1925 
L 991 0 
L 428 0 
L 428 3347 
z
" transform="scale(0.015625)"/>
       <path id="Helvetica-6d" d="M 413 3347 
L 969 3347 
L 969 2872 
Q 1169 3119 1331 3231 
Q 1609 3422 1963 3422 
Q 2363 3422 2606 3225 
Q 2744 3113 2856 2894 
Q 3044 3163 3297 3292 
Q 3550 3422 3866 3422 
Q 4541 3422 4784 2934 
Q 4916 2672 4916 2228 
L 4916 0 
L 4331 0 
L 4331 2325 
Q 4331 2659 4164 2784 
Q 3997 2909 3756 2909 
Q 3425 2909 3186 2687 
Q 2947 2466 2947 1947 
L 2947 0 
L 2375 0 
L 2375 2184 
Q 2375 2525 2294 2681 
Q 2166 2916 1816 2916 
Q 1497 2916 1236 2669 
Q 975 2422 975 1775 
L 975 0 
L 413 0 
L 413 3347 
z
" transform="scale(0.015625)"/>
       <path id="Helvetica-61" d="M 844 891 
Q 844 647 1022 506 
Q 1200 366 1444 366 
Q 1741 366 2019 503 
Q 2488 731 2488 1250 
L 2488 1703 
Q 2384 1638 2221 1594 
Q 2059 1550 1903 1531 
L 1563 1488 
Q 1256 1447 1103 1359 
Q 844 1213 844 891 
z
M 2206 2028 
Q 2400 2053 2466 2191 
Q 2503 2266 2503 2406 
Q 2503 2694 2298 2823 
Q 2094 2953 1713 2953 
Q 1272 2953 1088 2716 
Q 984 2584 953 2325 
L 428 2325 
Q 444 2944 830 3186 
Q 1216 3428 1725 3428 
Q 2316 3428 2684 3203 
Q 3050 2978 3050 2503 
L 3050 575 
Q 3050 488 3086 434 
Q 3122 381 3238 381 
Q 3275 381 3322 386 
Q 3369 391 3422 400 
L 3422 -16 
Q 3291 -53 3222 -62 
Q 3153 -72 3034 -72 
Q 2744 -72 2613 134 
Q 2544 244 2516 444 
Q 2344 219 2022 53 
Q 1700 -113 1313 -113 
Q 847 -113 551 170 
Q 256 453 256 878 
Q 256 1344 547 1600 
Q 838 1856 1309 1916 
L 2206 2028 
z
M 1741 3428 
L 1741 3428 
z
" transform="scale(0.015625)"/>
       <path id="Helvetica-74" d="M 525 4281 
L 1094 4281 
L 1094 3347 
L 1628 3347 
L 1628 2888 
L 1094 2888 
L 1094 703 
Q 1094 528 1213 469 
Q 1278 434 1431 434 
Q 1472 434 1519 436 
Q 1566 438 1628 444 
L 1628 0 
Q 1531 -28 1426 -40 
Q 1322 -53 1200 -53 
Q 806 -53 665 148 
Q 525 350 525 672 
L 525 2888 
L 72 2888 
L 72 3347 
L 525 3347 
L 525 4281 
z
" transform="scale(0.015625)"/>
       <path id="Helvetica-69" d="M 413 3331 
L 984 3331 
L 984 0 
L 413 0 
L 413 3331 
z
M 413 4591 
L 984 4591 
L 984 3953 
L 413 3953 
L 413 4591 
z
" transform="scale(0.015625)"/>
       <path id="Helvetica-20" transform="scale(0.015625)"/>
       <path id="Helvetica-43" d="M 2422 4716 
Q 3294 4716 3775 4256 
Q 4256 3797 4309 3213 
L 3703 3213 
Q 3600 3656 3292 3915 
Q 2984 4175 2428 4175 
Q 1750 4175 1333 3698 
Q 916 3222 916 2238 
Q 916 1431 1292 929 
Q 1669 428 2416 428 
Q 3103 428 3463 956 
Q 3653 1234 3747 1688 
L 4353 1688 
Q 4272 963 3816 472 
Q 3269 -119 2341 -119 
Q 1541 -119 997 366 
Q 281 1006 281 2344 
Q 281 3359 819 4009 
Q 1400 4716 2422 4716 
z
M 2297 4716 
L 2297 4716 
z
" transform="scale(0.015625)"/>
       <path id="Helvetica-70" d="M 1825 378 
Q 2219 378 2480 708 
Q 2741 1038 2741 1694 
Q 2741 2094 2625 2381 
Q 2406 2934 1825 2934 
Q 1241 2934 1025 2350 
Q 909 2038 909 1556 
Q 909 1169 1025 897 
Q 1244 378 1825 378 
z
M 369 3331 
L 916 3331 
L 916 2888 
Q 1084 3116 1284 3241 
Q 1569 3428 1953 3428 
Q 2522 3428 2919 2992 
Q 3316 2556 3316 1747 
Q 3316 653 2744 184 
Q 2381 -113 1900 -113 
Q 1522 -113 1266 53 
Q 1116 147 931 375 
L 931 -1334 
L 369 -1334 
L 369 3331 
z
" transform="scale(0.015625)"/>
       <path id="Helvetica-75" d="M 975 3347 
L 975 1125 
Q 975 869 1056 706 
Q 1206 406 1616 406 
Q 2203 406 2416 931 
Q 2531 1213 2531 1703 
L 2531 3347 
L 3094 3347 
L 3094 0 
L 2563 0 
L 2569 494 
Q 2459 303 2297 172 
Q 1975 -91 1516 -91 
Q 800 -91 541 388 
Q 400 644 400 1072 
L 400 3347 
L 975 3347 
z
M 1747 3428 
L 1747 3428 
z
" transform="scale(0.015625)"/>
       <path id="Helvetica-65" d="M 1806 3422 
Q 2163 3422 2497 3255 
Q 2831 3088 3006 2822 
Q 3175 2569 3231 2231 
Q 3281 2000 3281 1494 
L 828 1494 
Q 844 984 1069 676 
Q 1294 369 1766 369 
Q 2206 369 2469 659 
Q 2619 828 2681 1050 
L 3234 1050 
Q 3213 866 3089 639 
Q 2966 413 2813 269 
Q 2556 19 2178 -69 
Q 1975 -119 1719 -119 
Q 1094 -119 659 336 
Q 225 791 225 1609 
Q 225 2416 662 2919 
Q 1100 3422 1806 3422 
z
M 2703 1941 
Q 2669 2306 2544 2525 
Q 2313 2931 1772 2931 
Q 1384 2931 1121 2651 
Q 859 2372 844 1941 
L 2703 1941 
z
M 1753 3428 
L 1753 3428 
z
" transform="scale(0.015625)"/>
       <path id="Helvetica-64" d="M 769 1634 
Q 769 1097 997 734 
Q 1225 372 1728 372 
Q 2119 372 2370 708 
Q 2622 1044 2622 1672 
Q 2622 2306 2362 2611 
Q 2103 2916 1722 2916 
Q 1297 2916 1033 2591 
Q 769 2266 769 1634 
z
M 1616 3406 
Q 2000 3406 2259 3244 
Q 2409 3150 2600 2916 
L 2600 4606 
L 3141 4606 
L 3141 0 
L 2634 0 
L 2634 466 
Q 2438 156 2169 18 
Q 1900 -119 1553 -119 
Q 994 -119 584 351 
Q 175 822 175 1603 
Q 175 2334 548 2870 
Q 922 3406 1616 3406 
z
" transform="scale(0.015625)"/>
      </defs>
      <use xlink:href="#Helvetica-49"/>
      <use xlink:href="#Helvetica-6e" x="27.783203"/>
      <use xlink:href="#Helvetica-66" x="83.398438"/>
      <use xlink:href="#Helvetica-6f" x="111.181641"/>
      <use xlink:href="#Helvetica-72" x="166.796875"/>
      <use xlink:href="#Helvetica-6d" x="200.097656"/>
      <use xlink:href="#Helvetica-61" x="283.398438"/>
      <use xlink:href="#Helvetica-74" x="339.013672"/>
      <use xlink:href="#Helvetica-69" x="366.796875"/>
      <use xlink:href="#Helvetica-6f" x="389.013672"/>
      <use xlink:href="#Helvetica-6e" x="444.628906"/>
      <use xlink:href="#Helvetica-20" x="500.244141"/>
      <use xlink:href="#Helvetica-43" x="528.027344"/>
      <use xlink:href="#Helvetica-61" x="600.244141"/>
      <use xlink:href="#Helvetica-70" x="655.859375"/>
      <use xlink:href="#Helvetica-74" x="711.474609"/>
      <use xlink:href="#Helvetica-75" x="739.257812"/>
      <use xlink:href="#Helvetica-72" x="794.873047"/>
      <use xlink:href="#Helvetica-65" x="828.173828"/>
      <use xlink:href="#Helvetica-64" x="883.789062"/>
     </g>
    </g>
   </g>
   <g id="matplotlib.axis_2">
    <g id="ytick_1">
     <g id="line2d_13">
      <path d="M 58.0625 470.990153 
L 670.401767 470.990153 
" clip-path="url(#pf530414e39)" style="fill: none; stroke-dasharray: 2.96,1.28; stroke-dashoffset: 0; stroke: #b0b0b0; stroke-opacity: 0.3; stroke-width: 0.8"/>
     </g>
     <g id="line2d_14">
      <defs>
       <path id="m033bb068f3" d="M 0 0 
L -4 0 
" style="stroke: #000000"/>
      </defs>
      <g>
       <use xlink:href="#m033bb068f3" x="58.0625" y="470.990153" style="stroke: #000000"/>
      </g>
     </g>
     <g id="text_8">
      <!-- 0.0 -->
      <g transform="translate(28.3225 476.728903) scale(0.16 -0.16)">
       <defs>
        <path id="Helvetica-2e" d="M 547 681 
L 1200 681 
L 1200 0 
L 547 0 
L 547 681 
z
" transform="scale(0.015625)"/>
       </defs>
       <use xlink:href="#Helvetica-30"/>
       <use xlink:href="#Helvetica-2e" x="55.615234"/>
       <use xlink:href="#Helvetica-30" x="83.398438"/>
      </g>
     </g>
    </g>
    <g id="ytick_2">
     <g id="line2d_15">
      <path d="M 58.0625 386.585497 
L 670.401767 386.585497 
" clip-path="url(#pf530414e39)" style="fill: none; stroke-dasharray: 2.96,1.28; stroke-dashoffset: 0; stroke: #b0b0b0; stroke-opacity: 0.3; stroke-width: 0.8"/>
     </g>
     <g id="line2d_16">
      <g>
       <use xlink:href="#m033bb068f3" x="58.0625" y="386.585497" style="stroke: #000000"/>
      </g>
     </g>
     <g id="text_9">
      <!-- 0.2 -->
      <g transform="translate(28.3225 392.324247) scale(0.16 -0.16)">
       <use xlink:href="#Helvetica-30"/>
       <use xlink:href="#Helvetica-2e" x="55.615234"/>
       <use xlink:href="#Helvetica-32" x="83.398438"/>
      </g>
     </g>
    </g>
    <g id="ytick_3">
     <g id="line2d_17">
      <path d="M 58.0625 302.180842 
L 670.401767 302.180842 
" clip-path="url(#pf530414e39)" style="fill: none; stroke-dasharray: 2.96,1.28; stroke-dashoffset: 0; stroke: #b0b0b0; stroke-opacity: 0.3; stroke-width: 0.8"/>
     </g>
     <g id="line2d_18">
      <g>
       <use xlink:href="#m033bb068f3" x="58.0625" y="302.180842" style="stroke: #000000"/>
      </g>
     </g>
     <g id="text_10">
      <!-- 0.4 -->
      <g transform="translate(28.3225 307.919592) scale(0.16 -0.16)">
       <use xlink:href="#Helvetica-30"/>
       <use xlink:href="#Helvetica-2e" x="55.615234"/>
       <use xlink:href="#Helvetica-34" x="83.398438"/>
      </g>
     </g>
    </g>
    <g id="ytick_4">
     <g id="line2d_19">
      <path d="M 58.0625 217.776186 
L 670.401767 217.776186 
" clip-path="url(#pf530414e39)" style="fill: none; stroke-dasharray: 2.96,1.28; stroke-dashoffset: 0; stroke: #b0b0b0; stroke-opacity: 0.3; stroke-width: 0.8"/>
     </g>
     <g id="line2d_20">
      <g>
       <use xlink:href="#m033bb068f3" x="58.0625" y="217.776186" style="stroke: #000000"/>
      </g>
     </g>
     <g id="text_11">
      <!-- 0.6 -->
      <g transform="translate(28.3225 223.514936) scale(0.16 -0.16)">
       <use xlink:href="#Helvetica-30"/>
       <use xlink:href="#Helvetica-2e" x="55.615234"/>
       <use xlink:href="#Helvetica-36" x="83.398438"/>
      </g>
     </g>
    </g>
    <g id="ytick_5">
     <g id="line2d_21">
      <path d="M 58.0625 133.371531 
L 670.401767 133.371531 
" clip-path="url(#pf530414e39)" style="fill: none; stroke-dasharray: 2.96,1.28; stroke-dashoffset: 0; stroke: #b0b0b0; stroke-opacity: 0.3; stroke-width: 0.8"/>
     </g>
     <g id="line2d_22">
      <g>
       <use xlink:href="#m033bb068f3" x="58.0625" y="133.371531" style="stroke: #000000"/>
      </g>
     </g>
     <g id="text_12">
      <!-- 0.8 -->
      <g transform="translate(28.3225 139.110281) scale(0.16 -0.16)">
       <use xlink:href="#Helvetica-30"/>
       <use xlink:href="#Helvetica-2e" x="55.615234"/>
       <use xlink:href="#Helvetica-38" x="83.398438"/>
      </g>
     </g>
    </g>
    <g id="ytick_6">
     <g id="line2d_23">
      <path d="M 58.0625 48.966875 
L 670.401767 48.966875 
" clip-path="url(#pf530414e39)" style="fill: none; stroke-dasharray: 2.96,1.28; stroke-dashoffset: 0; stroke: #b0b0b0; stroke-opacity: 0.3; stroke-width: 0.8"/>
     </g>
     <g id="line2d_24">
      <g>
       <use xlink:href="#m033bb068f3" x="58.0625" y="48.966875" style="stroke: #000000"/>
      </g>
     </g>
     <g id="text_13">
      <!-- 1.0 -->
      <g transform="translate(28.3225 54.705625) scale(0.16 -0.16)">
       <use xlink:href="#Helvetica-31"/>
       <use xlink:href="#Helvetica-2e" x="55.615234"/>
       <use xlink:href="#Helvetica-30" x="83.398438"/>
      </g>
     </g>
    </g>
    <g id="text_14">
     <!-- Predictability of Outcome -->
     <g transform="translate(20.46375 363.203281) rotate(-90) scale(0.18 -0.18)">
      <defs>
       <path id="Helvetica-50" d="M 547 4591 
L 2613 4591 
Q 3225 4591 3600 4245 
Q 3975 3900 3975 3275 
Q 3975 2738 3640 2339 
Q 3306 1941 2613 1941 
L 1169 1941 
L 1169 0 
L 547 0 
L 547 4591 
z
M 3347 3272 
Q 3347 3778 2972 3959 
Q 2766 4056 2406 4056 
L 1169 4056 
L 1169 2466 
L 2406 2466 
Q 2825 2466 3086 2644 
Q 3347 2822 3347 3272 
z
" transform="scale(0.015625)"/>
       <path id="Helvetica-63" d="M 1703 3444 
Q 2269 3444 2623 3169 
Q 2978 2894 3050 2222 
L 2503 2222 
Q 2453 2531 2275 2736 
Q 2097 2941 1703 2941 
Q 1166 2941 934 2416 
Q 784 2075 784 1575 
Q 784 1072 996 728 
Q 1209 384 1666 384 
Q 2016 384 2220 598 
Q 2425 813 2503 1184 
L 3050 1184 
Q 2956 519 2581 211 
Q 2206 -97 1622 -97 
Q 966 -97 575 383 
Q 184 863 184 1581 
Q 184 2463 612 2953 
Q 1041 3444 1703 3444 
z
M 1616 3428 
L 1616 3428 
z
" transform="scale(0.015625)"/>
       <path id="Helvetica-62" d="M 369 4606 
L 916 4606 
L 916 2941 
Q 1100 3181 1356 3307 
Q 1613 3434 1913 3434 
Q 2538 3434 2927 3004 
Q 3316 2575 3316 1738 
Q 3316 944 2931 419 
Q 2547 -106 1866 -106 
Q 1484 -106 1222 78 
Q 1066 188 888 428 
L 888 0 
L 369 0 
L 369 4606 
z
M 1831 391 
Q 2288 391 2514 753 
Q 2741 1116 2741 1709 
Q 2741 2238 2514 2584 
Q 2288 2931 1847 2931 
Q 1463 2931 1173 2647 
Q 884 2363 884 1709 
Q 884 1238 1003 944 
Q 1225 391 1831 391 
z
" transform="scale(0.015625)"/>
       <path id="Helvetica-6c" d="M 428 4591 
L 991 4591 
L 991 0 
L 428 0 
L 428 4591 
z
" transform="scale(0.015625)"/>
       <path id="Helvetica-79" d="M 2503 3347 
L 3125 3347 
Q 3006 3025 2597 1878 
Q 2291 1016 2084 472 
Q 1597 -809 1397 -1090 
Q 1197 -1372 709 -1372 
Q 591 -1372 527 -1362 
Q 463 -1353 369 -1328 
L 369 -816 
Q 516 -856 581 -865 
Q 647 -875 697 -875 
Q 853 -875 926 -823 
Q 1000 -772 1050 -697 
Q 1066 -672 1162 -440 
Q 1259 -209 1303 -97 
L 66 3347 
L 703 3347 
L 1600 622 
L 2503 3347 
z
M 1597 3428 
L 1597 3428 
z
" transform="scale(0.015625)"/>
       <path id="Helvetica-4f" d="M 2469 4716 
Q 3684 4716 4269 3934 
Q 4725 3325 4725 2375 
Q 4725 1347 4203 666 
Q 3591 -134 2456 -134 
Q 1397 -134 791 566 
Q 250 1241 250 2272 
Q 250 3203 713 3866 
Q 1306 4716 2469 4716 
z
M 2531 422 
Q 3353 422 3720 1011 
Q 4088 1600 4088 2366 
Q 4088 3175 3664 3669 
Q 3241 4163 2506 4163 
Q 1794 4163 1344 3673 
Q 894 3184 894 2231 
Q 894 1469 1280 945 
Q 1666 422 2531 422 
z
M 2488 4716 
L 2488 4716 
z
" transform="scale(0.015625)"/>
      </defs>
      <use xlink:href="#Helvetica-50"/>
      <use xlink:href="#Helvetica-72" x="66.699219"/>
      <use xlink:href="#Helvetica-65" x="100"/>
      <use xlink:href="#Helvetica-64" x="155.615234"/>
      <use xlink:href="#Helvetica-69" x="211.230469"/>
      <use xlink:href="#Helvetica-63" x="233.447266"/>
      <use xlink:href="#Helvetica-74" x="283.447266"/>
      <use xlink:href="#Helvetica-61" x="311.230469"/>
      <use xlink:href="#Helvetica-62" x="366.845703"/>
      <use xlink:href="#Helvetica-69" x="422.460938"/>
      <use xlink:href="#Helvetica-6c" x="444.677734"/>
      <use xlink:href="#Helvetica-69" x="466.894531"/>
      <use xlink:href="#Helvetica-74" x="489.111328"/>
      <use xlink:href="#Helvetica-79" x="516.894531"/>
      <use xlink:href="#Helvetica-20" x="566.894531"/>
      <use xlink:href="#Helvetica-6f" x="594.677734"/>
      <use xlink:href="#Helvetica-66" x="650.292969"/>
      <use xlink:href="#Helvetica-20" x="678.076172"/>
      <use xlink:href="#Helvetica-4f" x="705.859375"/>
      <use xlink:href="#Helvetica-75" x="783.642578"/>
      <use xlink:href="#Helvetica-74" x="839.257812"/>
      <use xlink:href="#Helvetica-63" x="867.041016"/>
      <use xlink:href="#Helvetica-6f" x="917.041016"/>
      <use xlink:href="#Helvetica-6d" x="972.65625"/>
      <use xlink:href="#Helvetica-65" x="1055.957031"/>
     </g>
    </g>
   </g>
   <g id="line2d_25">
    <path d="M 58.0625 477.366875 
L 65.720423 462.244352 
L 73.378345 447.616925 
L 81.036268 433.473983 
L 88.69419 419.805025 
L 96.352113 406.59966 
L 104.010035 393.847607 
L 111.667958 381.538692 
L 119.32588 369.662855 
L 126.983803 358.210142 
L 134.641725 347.170711 
L 142.299648 336.534828 
L 149.95757 326.292871 
L 157.615493 316.435324 
L 165.273415 306.952785 
L 172.931338 297.835958 
L 180.58926 289.07566 
L 188.247183 280.662814 
L 195.905106 272.588455 
L 203.563028 264.843728 
L 211.220951 257.419887 
L 218.878873 250.308295 
L 226.536796 243.500426 
L 234.194718 236.987862 
L 241.852641 230.762297 
L 249.510563 224.815532 
L 257.168486 219.139481 
L 264.826408 213.726164 
L 272.484331 208.567713 
L 280.142253 203.65637 
L 287.800176 198.984484 
L 295.458098 194.544517 
L 303.116021 190.329039 
L 310.773944 186.330729 
L 318.431866 182.542378 
L 326.089789 178.956883 
L 333.747711 175.567255 
L 341.405634 172.366612 
L 349.063556 169.348182 
L 356.721479 166.505303 
L 364.379401 163.831423 
L 372.037324 161.320099 
L 379.695246 158.964999 
L 387.353169 156.759898 
L 395.011091 154.698683 
L 402.669014 152.77535 
L 410.326936 150.984006 
L 417.984859 149.318865 
L 425.642781 147.774252 
L 433.300704 146.344603 
L 440.958627 145.024462 
L 448.616549 143.808483 
L 456.274472 142.69143 
L 463.932394 141.668176 
L 471.590317 140.733705 
L 479.248239 139.88311 
L 486.906162 139.111593 
L 494.564084 138.414466 
L 502.222007 137.787152 
L 509.879929 137.225182 
L 517.537852 136.724197 
L 525.195774 136.279948 
L 532.853697 135.888297 
L 540.511619 135.545213 
L 548.169542 135.246777 
L 555.827465 134.989178 
L 563.485387 134.768716 
L 571.14331 134.581799 
L 578.801232 134.424948 
L 586.459155 134.294789 
L 594.117077 134.188062 
L 601.775 134.101614 
L 609.432922 134.032402 
L 617.090845 133.977494 
L 624.748767 133.934068 
L 632.40669 133.899408 
L 640.064612 133.870912 
" clip-path="url(#pf530414e39)" style="fill: none; stroke: #001c54; stroke-width: 1.5; stroke-linecap: square"/>
   </g>
   <g id="line2d_26">
    <path d="M 58.0625 48.966875 
L 670.401767 48.966875 
" clip-path="url(#pf530414e39)" style="fill: none; stroke-dasharray: 7.4,3.2; stroke-dashoffset: 0; stroke: #e4003b; stroke-width: 2"/>
   </g>
   <g id="patch_9">
    <path d="M 58.0625 498.786875 
L 58.0625 27.546875 
" style="fill: none; stroke: #000000; stroke-width: 0.8; stroke-linejoin: miter; stroke-linecap: square"/>
   </g>
   <g id="patch_10">
    <path d="M 58.0625 498.786875 
L 670.401767 498.786875 
" style="fill: none; stroke: #000000; stroke-width: 0.8; stroke-linejoin: miter; stroke-linecap: square"/>
   </g>
   <g id="patch_11">
    <path d="M 245.791182 381.538692 
Q 187.02075 381.538692 129.368351 381.538692 
" style="fill: none; stroke: #000000; stroke-linecap: round"/>
    <path d="M 137.368351 385.538692 
L 129.368351 381.538692 
L 137.368351 377.538692 
" style="fill: none; stroke: #000000; stroke-linecap: round"/>
   </g>
   <g id="text_15">
    <g id="patch_12">
     <path d="M 251.891309 403.977192 
L 437.988809 403.977192 
Q 441.588809 403.977192 441.588809 400.377192 
L 441.588809 362.782692 
Q 441.588809 359.182692 437.988809 359.182692 
L 251.891309 359.182692 
Q 248.291309 359.182692 248.291309 362.782692 
L 248.291309 400.377192 
Q 248.291309 403.977192 251.891309 403.977192 
z
" style="fill: #ffffff; stroke: #000000; stroke-linejoin: miter"/>
    </g>
    <!-- Study 1: Relatively low information -->
    <g transform="translate(253.236622 371.542692) scale(0.12 -0.12)">
     <defs>
      <path id="Helvetica-53" d="M 894 1481 
Q 916 1091 1078 847 
Q 1388 391 2169 391 
Q 2519 391 2806 491 
Q 3363 684 3363 1184 
Q 3363 1559 3128 1719 
Q 2891 1875 2384 1991 
L 1763 2131 
Q 1153 2269 900 2434 
Q 463 2722 463 3294 
Q 463 3913 891 4309 
Q 1319 4706 2103 4706 
Q 2825 4706 3329 4357 
Q 3834 4009 3834 3244 
L 3250 3244 
Q 3203 3613 3050 3809 
Q 2766 4169 2084 4169 
Q 1534 4169 1293 3937 
Q 1053 3706 1053 3400 
Q 1053 3063 1334 2906 
Q 1519 2806 2169 2656 
L 2813 2509 
Q 3278 2403 3531 2219 
Q 3969 1897 3969 1284 
Q 3969 522 3414 194 
Q 2859 -134 2125 -134 
Q 1269 -134 784 303 
Q 300 738 309 1481 
L 894 1481 
z
M 2150 4716 
L 2150 4716 
z
" transform="scale(0.015625)"/>
      <path id="Helvetica-3a" d="M 709 3303 
L 1363 3303 
L 1363 2622 
L 709 2622 
L 709 3303 
z
M 709 681 
L 1363 681 
L 1363 0 
L 709 0 
L 709 681 
z
" transform="scale(0.015625)"/>
      <path id="Helvetica-52" d="M 2622 2488 
Q 3059 2488 3314 2663 
Q 3569 2838 3569 3294 
Q 3569 3784 3213 3963 
Q 3022 4056 2703 4056 
L 1184 4056 
L 1184 2488 
L 2622 2488 
z
M 563 4591 
L 2688 4591 
Q 3213 4591 3553 4438 
Q 4200 4144 4200 3353 
Q 4200 2941 4029 2678 
Q 3859 2416 3553 2256 
Q 3822 2147 3958 1969 
Q 4094 1791 4109 1391 
L 4131 775 
Q 4141 513 4175 384 
Q 4231 166 4375 103 
L 4375 0 
L 3613 0 
Q 3581 59 3562 153 
Q 3544 247 3531 516 
L 3494 1281 
Q 3472 1731 3159 1884 
Q 2981 1969 2600 1969 
L 1184 1969 
L 1184 0 
L 563 0 
L 563 4591 
z
" transform="scale(0.015625)"/>
      <path id="Helvetica-76" d="M 688 3347 
L 1581 622 
L 2516 3347 
L 3131 3347 
L 1869 0 
L 1269 0 
L 34 3347 
L 688 3347 
z
" transform="scale(0.015625)"/>
      <path id="Helvetica-77" d="M 672 3347 
L 1316 709 
L 1969 3347 
L 2600 3347 
L 3256 725 
L 3941 3347 
L 4503 3347 
L 3531 0 
L 2947 0 
L 2266 2591 
L 1606 0 
L 1022 0 
L 56 3347 
L 672 3347 
z
" transform="scale(0.015625)"/>
     </defs>
     <use xlink:href="#Helvetica-53"/>
     <use xlink:href="#Helvetica-74" x="66.699219"/>
     <use xlink:href="#Helvetica-75" x="94.482422"/>
     <use xlink:href="#Helvetica-64" x="150.097656"/>
     <use xlink:href="#Helvetica-79" x="205.712891"/>
     <use xlink:href="#Helvetica-20" x="255.712891"/>
     <use xlink:href="#Helvetica-31" x="283.496094"/>
     <use xlink:href="#Helvetica-3a" x="339.111328"/>
     <use xlink:href="#Helvetica-20" x="366.894531"/>
     <use xlink:href="#Helvetica-52" x="394.677734"/>
     <use xlink:href="#Helvetica-65" x="466.894531"/>
     <use xlink:href="#Helvetica-6c" x="522.509766"/>
     <use xlink:href="#Helvetica-61" x="544.726562"/>
     <use xlink:href="#Helvetica-74" x="600.341797"/>
     <use xlink:href="#Helvetica-69" x="628.125"/>
     <use xlink:href="#Helvetica-76" x="650.341797"/>
     <use xlink:href="#Helvetica-65" x="700.341797"/>
     <use xlink:href="#Helvetica-6c" x="755.957031"/>
     <use xlink:href="#Helvetica-79" x="778.173828"/>
     <use xlink:href="#Helvetica-20" x="828.173828"/>
     <use xlink:href="#Helvetica-6c" x="855.957031"/>
     <use xlink:href="#Helvetica-6f" x="878.173828"/>
     <use xlink:href="#Helvetica-77" x="933.789062"/>
     <use xlink:href="#Helvetica-20" x="1006.005859"/>
     <use xlink:href="#Helvetica-69" x="1033.789062"/>
     <use xlink:href="#Helvetica-6e" x="1056.005859"/>
     <use xlink:href="#Helvetica-66" x="1111.621094"/>
     <use xlink:href="#Helvetica-6f" x="1139.404297"/>
     <use xlink:href="#Helvetica-72" x="1195.019531"/>
     <use xlink:href="#Helvetica-6d" x="1228.320312"/>
     <use xlink:href="#Helvetica-61" x="1311.621094"/>
     <use xlink:href="#Helvetica-74" x="1367.236328"/>
     <use xlink:href="#Helvetica-69" x="1395.019531"/>
     <use xlink:href="#Helvetica-6f" x="1417.236328"/>
     <use xlink:href="#Helvetica-6e" x="1472.851562"/>
    </g>
    <!-- setting where data not collected for -->
    <g transform="translate(251.891309 384.591192) scale(0.12 -0.12)">
     <defs>
      <path id="Helvetica-73" d="M 747 1050 
Q 772 769 888 619 
Q 1100 347 1625 347 
Q 1938 347 2175 483 
Q 2413 619 2413 903 
Q 2413 1119 2222 1231 
Q 2100 1300 1741 1391 
L 1294 1503 
Q 866 1609 663 1741 
Q 300 1969 300 2372 
Q 300 2847 642 3140 
Q 984 3434 1563 3434 
Q 2319 3434 2653 2991 
Q 2863 2709 2856 2384 
L 2325 2384 
Q 2309 2575 2191 2731 
Q 1997 2953 1519 2953 
Q 1200 2953 1036 2831 
Q 872 2709 872 2509 
Q 872 2291 1088 2159 
Q 1213 2081 1456 2022 
L 1828 1931 
Q 2434 1784 2641 1647 
Q 2969 1431 2969 969 
Q 2969 522 2630 197 
Q 2291 -128 1597 -128 
Q 850 -128 539 211 
Q 228 550 206 1050 
L 747 1050 
z
M 1578 3428 
L 1578 3428 
z
" transform="scale(0.015625)"/>
      <path id="Helvetica-67" d="M 1594 3406 
Q 1988 3406 2281 3213 
Q 2441 3103 2606 2894 
L 2606 3316 
L 3125 3316 
L 3125 272 
Q 3125 -366 2938 -734 
Q 2588 -1416 1616 -1416 
Q 1075 -1416 706 -1173 
Q 338 -931 294 -416 
L 866 -416 
Q 906 -641 1028 -763 
Q 1219 -950 1628 -950 
Q 2275 -950 2475 -494 
Q 2594 -225 2584 466 
Q 2416 209 2178 84 
Q 1941 -41 1550 -41 
Q 1006 -41 598 345 
Q 191 731 191 1622 
Q 191 2463 602 2934 
Q 1013 3406 1594 3406 
z
M 2606 1688 
Q 2606 2309 2350 2609 
Q 2094 2909 1697 2909 
Q 1103 2909 884 2353 
Q 769 2056 769 1575 
Q 769 1009 998 714 
Q 1228 419 1616 419 
Q 2222 419 2469 966 
Q 2606 1275 2606 1688 
z
M 1659 3428 
L 1659 3428 
z
" transform="scale(0.015625)"/>
      <path id="Helvetica-68" d="M 413 4606 
L 975 4606 
L 975 2894 
Q 1175 3147 1334 3250 
Q 1606 3428 2013 3428 
Q 2741 3428 3000 2919 
Q 3141 2641 3141 2147 
L 3141 0 
L 2563 0 
L 2563 2109 
Q 2563 2478 2469 2650 
Q 2316 2925 1894 2925 
Q 1544 2925 1259 2684 
Q 975 2444 975 1775 
L 975 0 
L 413 0 
L 413 4606 
z
" transform="scale(0.015625)"/>
     </defs>
     <use xlink:href="#Helvetica-73"/>
     <use xlink:href="#Helvetica-65" x="50"/>
     <use xlink:href="#Helvetica-74" x="105.615234"/>
     <use xlink:href="#Helvetica-74" x="133.398438"/>
     <use xlink:href="#Helvetica-69" x="161.181641"/>
     <use xlink:href="#Helvetica-6e" x="183.398438"/>
     <use xlink:href="#Helvetica-67" x="239.013672"/>
     <use xlink:href="#Helvetica-20" x="294.628906"/>
     <use xlink:href="#Helvetica-77" x="322.412109"/>
     <use xlink:href="#Helvetica-68" x="394.628906"/>
     <use xlink:href="#Helvetica-65" x="450.244141"/>
     <use xlink:href="#Helvetica-72" x="505.859375"/>
     <use xlink:href="#Helvetica-65" x="539.160156"/>
     <use xlink:href="#Helvetica-20" x="594.775391"/>
     <use xlink:href="#Helvetica-64" x="622.558594"/>
     <use xlink:href="#Helvetica-61" x="678.173828"/>
     <use xlink:href="#Helvetica-74" x="733.789062"/>
     <use xlink:href="#Helvetica-61" x="761.572266"/>
     <use xlink:href="#Helvetica-20" x="817.1875"/>
     <use xlink:href="#Helvetica-6e" x="844.970703"/>
     <use xlink:href="#Helvetica-6f" x="900.585938"/>
     <use xlink:href="#Helvetica-74" x="956.201172"/>
     <use xlink:href="#Helvetica-20" x="983.984375"/>
     <use xlink:href="#Helvetica-63" x="1011.767578"/>
     <use xlink:href="#Helvetica-6f" x="1061.767578"/>
     <use xlink:href="#Helvetica-6c" x="1117.382812"/>
     <use xlink:href="#Helvetica-6c" x="1139.599609"/>
     <use xlink:href="#Helvetica-65" x="1161.816406"/>
     <use xlink:href="#Helvetica-63" x="1217.431641"/>
     <use xlink:href="#Helvetica-74" x="1267.431641"/>
     <use xlink:href="#Helvetica-65" x="1295.214844"/>
     <use xlink:href="#Helvetica-64" x="1350.830078"/>
     <use xlink:href="#Helvetica-20" x="1406.445312"/>
     <use xlink:href="#Helvetica-66" x="1434.228516"/>
     <use xlink:href="#Helvetica-6f" x="1462.011719"/>
     <use xlink:href="#Helvetica-72" x="1517.626953"/>
    </g>
    <!-- purpose of predicting outcome -->
    <g transform="translate(264.230684 397.722192) scale(0.12 -0.12)">
     <use xlink:href="#Helvetica-70"/>
     <use xlink:href="#Helvetica-75" x="55.615234"/>
     <use xlink:href="#Helvetica-72" x="111.230469"/>
     <use xlink:href="#Helvetica-70" x="144.53125"/>
     <use xlink:href="#Helvetica-6f" x="200.146484"/>
     <use xlink:href="#Helvetica-73" x="255.761719"/>
     <use xlink:href="#Helvetica-65" x="305.761719"/>
     <use xlink:href="#Helvetica-20" x="361.376953"/>
     <use xlink:href="#Helvetica-6f" x="389.160156"/>
     <use xlink:href="#Helvetica-66" x="444.775391"/>
     <use xlink:href="#Helvetica-20" x="472.558594"/>
     <use xlink:href="#Helvetica-70" x="500.341797"/>
     <use xlink:href="#Helvetica-72" x="555.957031"/>
     <use xlink:href="#Helvetica-65" x="589.257812"/>
     <use xlink:href="#Helvetica-64" x="644.873047"/>
     <use xlink:href="#Helvetica-69" x="700.488281"/>
     <use xlink:href="#Helvetica-63" x="722.705078"/>
     <use xlink:href="#Helvetica-74" x="772.705078"/>
     <use xlink:href="#Helvetica-69" x="800.488281"/>
     <use xlink:href="#Helvetica-6e" x="822.705078"/>
     <use xlink:href="#Helvetica-67" x="878.320312"/>
     <use xlink:href="#Helvetica-20" x="933.935547"/>
     <use xlink:href="#Helvetica-6f" x="961.71875"/>
     <use xlink:href="#Helvetica-75" x="1017.333984"/>
     <use xlink:href="#Helvetica-74" x="1072.949219"/>
     <use xlink:href="#Helvetica-63" x="1100.732422"/>
     <use xlink:href="#Helvetica-6f" x="1150.732422"/>
     <use xlink:href="#Helvetica-6d" x="1206.347656"/>
     <use xlink:href="#Helvetica-65" x="1289.648438"/>
    </g>
   </g>
   <g id="patch_13">
    <path d="M 244.795709 257.419887 
Q 236.297467 257.419887 228.917259 257.419887 
" style="fill: none; stroke: #000000; stroke-linecap: round"/>
    <path d="M 236.917259 261.419887 
L 228.917259 257.419887 
L 236.917259 253.419887 
" style="fill: none; stroke: #000000; stroke-linecap: round"/>
   </g>
   <g id="text_16">
    <g id="patch_14">
     <path d="M 250.900372 279.725262 
L 438.979747 279.725262 
Q 442.579747 279.725262 442.579747 276.125262 
L 442.579747 238.643262 
Q 442.579747 235.043262 438.979747 235.043262 
L 250.900372 235.043262 
Q 247.300372 235.043262 247.300372 238.643262 
L 247.300372 276.125262 
Q 247.300372 279.725262 250.900372 279.725262 
z
" style="fill: #ffffff; stroke: #000000; stroke-linejoin: miter"/>
    </g>
    <!-- Study 2: More information collected -->
    <g transform="translate(250.900372 247.557012) scale(0.12 -0.12)">
     <defs>
      <path id="Helvetica-4d" d="M 472 4591 
L 1363 4591 
L 2681 709 
L 3991 4591 
L 4872 4591 
L 4872 0 
L 4281 0 
L 4281 2709 
Q 4281 2850 4287 3175 
Q 4294 3500 4294 3872 
L 2984 0 
L 2369 0 
L 1050 3872 
L 1050 3731 
Q 1050 3563 1058 3217 
Q 1066 2872 1066 2709 
L 1066 0 
L 472 0 
L 472 4591 
z
" transform="scale(0.015625)"/>
     </defs>
     <use xlink:href="#Helvetica-53"/>
     <use xlink:href="#Helvetica-74" x="66.699219"/>
     <use xlink:href="#Helvetica-75" x="94.482422"/>
     <use xlink:href="#Helvetica-64" x="150.097656"/>
     <use xlink:href="#Helvetica-79" x="205.712891"/>
     <use xlink:href="#Helvetica-20" x="255.712891"/>
     <use xlink:href="#Helvetica-32" x="283.496094"/>
     <use xlink:href="#Helvetica-3a" x="339.111328"/>
     <use xlink:href="#Helvetica-20" x="366.894531"/>
     <use xlink:href="#Helvetica-4d" x="394.677734"/>
     <use xlink:href="#Helvetica-6f" x="477.978516"/>
     <use xlink:href="#Helvetica-72" x="533.59375"/>
     <use xlink:href="#Helvetica-65" x="566.894531"/>
     <use xlink:href="#Helvetica-20" x="622.509766"/>
     <use xlink:href="#Helvetica-69" x="650.292969"/>
     <use xlink:href="#Helvetica-6e" x="672.509766"/>
     <use xlink:href="#Helvetica-66" x="728.125"/>
     <use xlink:href="#Helvetica-6f" x="755.908203"/>
     <use xlink:href="#Helvetica-72" x="811.523438"/>
     <use xlink:href="#Helvetica-6d" x="844.824219"/>
     <use xlink:href="#Helvetica-61" x="928.125"/>
     <use xlink:href="#Helvetica-74" x="983.740234"/>
     <use xlink:href="#Helvetica-69" x="1011.523438"/>
     <use xlink:href="#Helvetica-6f" x="1033.740234"/>
     <use xlink:href="#Helvetica-6e" x="1089.355469"/>
     <use xlink:href="#Helvetica-20" x="1144.970703"/>
     <use xlink:href="#Helvetica-63" x="1172.753906"/>
     <use xlink:href="#Helvetica-6f" x="1222.753906"/>
     <use xlink:href="#Helvetica-6c" x="1278.369141"/>
     <use xlink:href="#Helvetica-6c" x="1300.585938"/>
     <use xlink:href="#Helvetica-65" x="1322.802734"/>
     <use xlink:href="#Helvetica-63" x="1378.417969"/>
     <use xlink:href="#Helvetica-74" x="1428.417969"/>
     <use xlink:href="#Helvetica-65" x="1456.201172"/>
     <use xlink:href="#Helvetica-64" x="1511.816406"/>
    </g>
    <!-- for purpose of predicting outcome, -->
    <g transform="translate(253.895684 260.605512) scale(0.12 -0.12)">
     <defs>
      <path id="Helvetica-2c" d="M 531 -653 
Q 747 -616 834 -350 
Q 881 -209 881 -78 
Q 881 -56 879 -39 
Q 878 -22 872 0 
L 531 0 
L 531 681 
L 1200 681 
L 1200 50 
Q 1200 -322 1050 -603 
Q 900 -884 531 -950 
L 531 -653 
z
" transform="scale(0.015625)"/>
     </defs>
     <use xlink:href="#Helvetica-66"/>
     <use xlink:href="#Helvetica-6f" x="27.783203"/>
     <use xlink:href="#Helvetica-72" x="83.398438"/>
     <use xlink:href="#Helvetica-20" x="116.699219"/>
     <use xlink:href="#Helvetica-70" x="144.482422"/>
     <use xlink:href="#Helvetica-75" x="200.097656"/>
     <use xlink:href="#Helvetica-72" x="255.712891"/>
     <use xlink:href="#Helvetica-70" x="289.013672"/>
     <use xlink:href="#Helvetica-6f" x="344.628906"/>
     <use xlink:href="#Helvetica-73" x="400.244141"/>
     <use xlink:href="#Helvetica-65" x="450.244141"/>
     <use xlink:href="#Helvetica-20" x="505.859375"/>
     <use xlink:href="#Helvetica-6f" x="533.642578"/>
     <use xlink:href="#Helvetica-66" x="589.257812"/>
     <use xlink:href="#Helvetica-20" x="617.041016"/>
     <use xlink:href="#Helvetica-70" x="644.824219"/>
     <use xlink:href="#Helvetica-72" x="700.439453"/>
     <use xlink:href="#Helvetica-65" x="733.740234"/>
     <use xlink:href="#Helvetica-64" x="789.355469"/>
     <use xlink:href="#Helvetica-69" x="844.970703"/>
     <use xlink:href="#Helvetica-63" x="867.1875"/>
     <use xlink:href="#Helvetica-74" x="917.1875"/>
     <use xlink:href="#Helvetica-69" x="944.970703"/>
     <use xlink:href="#Helvetica-6e" x="967.1875"/>
     <use xlink:href="#Helvetica-67" x="1022.802734"/>
     <use xlink:href="#Helvetica-20" x="1078.417969"/>
     <use xlink:href="#Helvetica-6f" x="1106.201172"/>
     <use xlink:href="#Helvetica-75" x="1161.816406"/>
     <use xlink:href="#Helvetica-74" x="1217.431641"/>
     <use xlink:href="#Helvetica-63" x="1245.214844"/>
     <use xlink:href="#Helvetica-6f" x="1295.214844"/>
     <use xlink:href="#Helvetica-6d" x="1350.830078"/>
     <use xlink:href="#Helvetica-65" x="1434.130859"/>
     <use xlink:href="#Helvetica-2c" x="1489.746094"/>
    </g>
    <!-- but better measurement possible -->
    <g transform="translate(257.565997 273.624012) scale(0.12 -0.12)">
     <use xlink:href="#Helvetica-62"/>
     <use xlink:href="#Helvetica-75" x="55.615234"/>
     <use xlink:href="#Helvetica-74" x="111.230469"/>
     <use xlink:href="#Helvetica-20" x="139.013672"/>
     <use xlink:href="#Helvetica-62" x="166.796875"/>
     <use xlink:href="#Helvetica-65" x="222.412109"/>
     <use xlink:href="#Helvetica-74" x="278.027344"/>
     <use xlink:href="#Helvetica-74" x="305.810547"/>
     <use xlink:href="#Helvetica-65" x="333.59375"/>
     <use xlink:href="#Helvetica-72" x="389.208984"/>
     <use xlink:href="#Helvetica-20" x="422.509766"/>
     <use xlink:href="#Helvetica-6d" x="450.292969"/>
     <use xlink:href="#Helvetica-65" x="533.59375"/>
     <use xlink:href="#Helvetica-61" x="589.208984"/>
     <use xlink:href="#Helvetica-73" x="644.824219"/>
     <use xlink:href="#Helvetica-75" x="694.824219"/>
     <use xlink:href="#Helvetica-72" x="750.439453"/>
     <use xlink:href="#Helvetica-65" x="783.740234"/>
     <use xlink:href="#Helvetica-6d" x="839.355469"/>
     <use xlink:href="#Helvetica-65" x="922.65625"/>
     <use xlink:href="#Helvetica-6e" x="978.271484"/>
     <use xlink:href="#Helvetica-74" x="1033.886719"/>
     <use xlink:href="#Helvetica-20" x="1061.669922"/>
     <use xlink:href="#Helvetica-70" x="1089.453125"/>
     <use xlink:href="#Helvetica-6f" x="1145.068359"/>
     <use xlink:href="#Helvetica-73" x="1200.683594"/>
     <use xlink:href="#Helvetica-73" x="1250.683594"/>
     <use xlink:href="#Helvetica-69" x="1300.683594"/>
     <use xlink:href="#Helvetica-62" x="1322.900391"/>
     <use xlink:href="#Helvetica-6c" x="1378.515625"/>
     <use xlink:href="#Helvetica-65" x="1400.732422"/>
    </g>
   </g>
   <g id="patch_15">
    <path d="M 578.801232 232.637742 
Q 578.801232 189.805837 578.801232 148.091967 
" style="fill: none; stroke: #000000; stroke-linecap: round"/>
    <path d="M 574.801232 156.091967 
L 578.801232 148.091967 
L 582.801232 156.091967 
" style="fill: none; stroke: #000000; stroke-linecap: round"/>
   </g>
   <g id="text_17">
    <g id="patch_16">
     <path d="M 480.093732 279.631512 
L 677.508732 279.631512 
Q 681.108732 279.631512 681.108732 276.031512 
L 681.108732 238.737012 
Q 681.108732 235.137012 677.508732 235.137012 
L 480.093732 235.137012 
Q 476.493732 235.137012 476.493732 238.737012 
L 476.493732 276.031512 
Q 476.493732 279.631512 480.093732 279.631512 
z
" style="fill: #ffffff; stroke: #000000; stroke-linejoin: miter"/>
    </g>
    <!-- Study 3: Almost all useful information -->
    <g transform="translate(480.093732 247.650762) scale(0.12 -0.12)">
     <defs>
      <path id="Helvetica-33" d="M 1663 -122 
Q 869 -122 511 314 
Q 153 750 153 1375 
L 741 1375 
Q 778 941 903 744 
Q 1122 391 1694 391 
Q 2138 391 2406 628 
Q 2675 866 2675 1241 
Q 2675 1703 2392 1887 
Q 2109 2072 1606 2072 
Q 1550 2072 1492 2070 
Q 1434 2069 1375 2066 
L 1375 2563 
Q 1463 2553 1522 2550 
Q 1581 2547 1650 2547 
Q 1966 2547 2169 2647 
Q 2525 2822 2525 3272 
Q 2525 3606 2287 3787 
Q 2050 3969 1734 3969 
Q 1172 3969 956 3594 
Q 838 3388 822 3006 
L 266 3006 
Q 266 3506 466 3856 
Q 809 4481 1675 4481 
Q 2359 4481 2734 4176 
Q 3109 3872 3109 3294 
Q 3109 2881 2888 2625 
Q 2750 2466 2531 2375 
Q 2884 2278 3082 2001 
Q 3281 1725 3281 1325 
Q 3281 684 2859 281 
Q 2438 -122 1663 -122 
z
" transform="scale(0.015625)"/>
      <path id="Helvetica-41" d="M 2844 1881 
L 2147 3909 
L 1406 1881 
L 2844 1881 
z
M 1822 4591 
L 2525 4591 
L 4191 0 
L 3509 0 
L 3044 1375 
L 1228 1375 
L 731 0 
L 94 0 
L 1822 4591 
z
M 2144 4591 
L 2144 4591 
z
" transform="scale(0.015625)"/>
     </defs>
     <use xlink:href="#Helvetica-53"/>
     <use xlink:href="#Helvetica-74" x="66.699219"/>
     <use xlink:href="#Helvetica-75" x="94.482422"/>
     <use xlink:href="#Helvetica-64" x="150.097656"/>
     <use xlink:href="#Helvetica-79" x="205.712891"/>
     <use xlink:href="#Helvetica-20" x="255.712891"/>
     <use xlink:href="#Helvetica-33" x="283.496094"/>
     <use xlink:href="#Helvetica-3a" x="339.111328"/>
     <use xlink:href="#Helvetica-20" x="366.894531"/>
     <use xlink:href="#Helvetica-41" x="394.677734"/>
     <use xlink:href="#Helvetica-6c" x="461.376953"/>
     <use xlink:href="#Helvetica-6d" x="483.59375"/>
     <use xlink:href="#Helvetica-6f" x="566.894531"/>
     <use xlink:href="#Helvetica-73" x="622.509766"/>
     <use xlink:href="#Helvetica-74" x="672.509766"/>
     <use xlink:href="#Helvetica-20" x="700.292969"/>
     <use xlink:href="#Helvetica-61" x="728.076172"/>
     <use xlink:href="#Helvetica-6c" x="783.691406"/>
     <use xlink:href="#Helvetica-6c" x="805.908203"/>
     <use xlink:href="#Helvetica-20" x="828.125"/>
     <use xlink:href="#Helvetica-75" x="855.908203"/>
     <use xlink:href="#Helvetica-73" x="911.523438"/>
     <use xlink:href="#Helvetica-65" x="961.523438"/>
     <use xlink:href="#Helvetica-66" x="1017.138672"/>
     <use xlink:href="#Helvetica-75" x="1044.921875"/>
     <use xlink:href="#Helvetica-6c" x="1100.537109"/>
     <use xlink:href="#Helvetica-20" x="1122.753906"/>
     <use xlink:href="#Helvetica-69" x="1150.537109"/>
     <use xlink:href="#Helvetica-6e" x="1172.753906"/>
     <use xlink:href="#Helvetica-66" x="1228.369141"/>
     <use xlink:href="#Helvetica-6f" x="1256.152344"/>
     <use xlink:href="#Helvetica-72" x="1311.767578"/>
     <use xlink:href="#Helvetica-6d" x="1345.068359"/>
     <use xlink:href="#Helvetica-61" x="1428.369141"/>
     <use xlink:href="#Helvetica-74" x="1483.984375"/>
     <use xlink:href="#Helvetica-69" x="1511.767578"/>
     <use xlink:href="#Helvetica-6f" x="1533.984375"/>
     <use xlink:href="#Helvetica-6e" x="1589.599609"/>
    </g>
    <!-- which contributes to performance -->
    <g transform="translate(490.430607 260.699262) scale(0.12 -0.12)">
     <use xlink:href="#Helvetica-77"/>
     <use xlink:href="#Helvetica-68" x="72.216797"/>
     <use xlink:href="#Helvetica-69" x="127.832031"/>
     <use xlink:href="#Helvetica-63" x="150.048828"/>
     <use xlink:href="#Helvetica-68" x="200.048828"/>
     <use xlink:href="#Helvetica-20" x="255.664062"/>
     <use xlink:href="#Helvetica-63" x="283.447266"/>
     <use xlink:href="#Helvetica-6f" x="333.447266"/>
     <use xlink:href="#Helvetica-6e" x="389.0625"/>
     <use xlink:href="#Helvetica-74" x="444.677734"/>
     <use xlink:href="#Helvetica-72" x="472.460938"/>
     <use xlink:href="#Helvetica-69" x="505.761719"/>
     <use xlink:href="#Helvetica-62" x="527.978516"/>
     <use xlink:href="#Helvetica-75" x="583.59375"/>
     <use xlink:href="#Helvetica-74" x="639.208984"/>
     <use xlink:href="#Helvetica-65" x="666.992188"/>
     <use xlink:href="#Helvetica-73" x="722.607422"/>
     <use xlink:href="#Helvetica-20" x="772.607422"/>
     <use xlink:href="#Helvetica-74" x="800.390625"/>
     <use xlink:href="#Helvetica-6f" x="828.173828"/>
     <use xlink:href="#Helvetica-20" x="883.789062"/>
     <use xlink:href="#Helvetica-70" x="911.572266"/>
     <use xlink:href="#Helvetica-65" x="967.1875"/>
     <use xlink:href="#Helvetica-72" x="1022.802734"/>
     <use xlink:href="#Helvetica-66" x="1056.103516"/>
     <use xlink:href="#Helvetica-6f" x="1083.886719"/>
     <use xlink:href="#Helvetica-72" x="1139.501953"/>
     <use xlink:href="#Helvetica-6d" x="1172.802734"/>
     <use xlink:href="#Helvetica-61" x="1256.103516"/>
     <use xlink:href="#Helvetica-6e" x="1311.71875"/>
     <use xlink:href="#Helvetica-63" x="1367.333984"/>
     <use xlink:href="#Helvetica-65" x="1417.333984"/>
    </g>
    <!-- collected, irreducible error remains -->
    <g transform="translate(486.771545 273.530262) scale(0.12 -0.12)">
     <use xlink:href="#Helvetica-63"/>
     <use xlink:href="#Helvetica-6f" x="50"/>
     <use xlink:href="#Helvetica-6c" x="105.615234"/>
     <use xlink:href="#Helvetica-6c" x="127.832031"/>
     <use xlink:href="#Helvetica-65" x="150.048828"/>
     <use xlink:href="#Helvetica-63" x="205.664062"/>
     <use xlink:href="#Helvetica-74" x="255.664062"/>
     <use xlink:href="#Helvetica-65" x="283.447266"/>
     <use xlink:href="#Helvetica-64" x="339.0625"/>
     <use xlink:href="#Helvetica-2c" x="394.677734"/>
     <use xlink:href="#Helvetica-20" x="422.460938"/>
     <use xlink:href="#Helvetica-69" x="450.244141"/>
     <use xlink:href="#Helvetica-72" x="472.460938"/>
     <use xlink:href="#Helvetica-72" x="505.761719"/>
     <use xlink:href="#Helvetica-65" x="539.0625"/>
     <use xlink:href="#Helvetica-64" x="594.677734"/>
     <use xlink:href="#Helvetica-75" x="650.292969"/>
     <use xlink:href="#Helvetica-63" x="705.908203"/>
     <use xlink:href="#Helvetica-69" x="755.908203"/>
     <use xlink:href="#Helvetica-62" x="778.125"/>
     <use xlink:href="#Helvetica-6c" x="833.740234"/>
     <use xlink:href="#Helvetica-65" x="855.957031"/>
     <use xlink:href="#Helvetica-20" x="911.572266"/>
     <use xlink:href="#Helvetica-65" x="939.355469"/>
     <use xlink:href="#Helvetica-72" x="994.970703"/>
     <use xlink:href="#Helvetica-72" x="1028.271484"/>
     <use xlink:href="#Helvetica-6f" x="1061.572266"/>
     <use xlink:href="#Helvetica-72" x="1117.1875"/>
     <use xlink:href="#Helvetica-20" x="1150.488281"/>
     <use xlink:href="#Helvetica-72" x="1178.271484"/>
     <use xlink:href="#Helvetica-65" x="1211.572266"/>
     <use xlink:href="#Helvetica-6d" x="1267.1875"/>
     <use xlink:href="#Helvetica-61" x="1350.488281"/>
     <use xlink:href="#Helvetica-69" x="1406.103516"/>
     <use xlink:href="#Helvetica-6e" x="1428.320312"/>
     <use xlink:href="#Helvetica-73" x="1483.935547"/>
    </g>
   </g>
   <g id="text_18">
    <!-- a. -->
    <g transform="translate(58.0625 21.546875) scale(0.2 -0.2)">
     <use xlink:href="#Helvetica-61"/>
     <use xlink:href="#Helvetica-2e" x="55.615234"/>
    </g>
   </g>
   <g id="legend_1">
    <g id="patch_17">
     <path d="M 67.1625 124.890125 
L 382.449062 124.890125 
Q 385.049062 124.890125 385.049062 122.290125 
L 385.049062 71.989875 
Q 385.049062 69.389875 382.449062 69.389875 
L 67.1625 69.389875 
Q 64.5625 69.389875 64.5625 71.989875 
L 64.5625 122.290125 
Q 64.5625 124.890125 67.1625 124.890125 
z
" style="fill: #ffffff; stroke: #000000; stroke-linejoin: miter"/>
    </g>
    <g id="line2d_27">
     <path d="M 69.7625 87.774922 
L 82.7625 87.774922 
L 95.7625 87.774922 
" style="fill: none"/>
     <defs>
      <path id="m1bec7740fa" d="M 0 5 
C 1.326016 5 2.597899 4.473168 3.535534 3.535534 
C 4.473168 2.597899 5 1.326016 5 0 
C 5 -1.326016 4.473168 -2.597899 3.535534 -3.535534 
C 2.597899 -4.473168 1.326016 -5 0 -5 
C -1.326016 -5 -2.597899 -4.473168 -3.535534 -3.535534 
C -4.473168 -2.597899 -5 -1.326016 -5 0 
C -5 1.326016 -4.473168 2.597899 -3.535534 3.535534 
C -2.597899 4.473168 -1.326016 5 0 5 
z
" style="stroke: #ff0000"/>
     </defs>
     <g>
      <use xlink:href="#m1bec7740fa" x="82.7625" y="87.774922" style="fill: #ffffff; stroke: #ff0000"/>
     </g>
    </g>
    <g id="text_19">
     <!-- K-fold accuracy of  -->
     <g transform="translate(106.1625 84.047375) scale(0.13 -0.13)">
      <defs>
       <path id="Helvetica-4b" d="M 488 4591 
L 1094 4591 
L 1094 2353 
L 3331 4591 
L 4191 4591 
L 2281 2741 
L 4244 0 
L 3434 0 
L 1828 2303 
L 1094 1600 
L 1094 0 
L 488 0 
L 488 4591 
z
" transform="scale(0.015625)"/>
       <path id="Helvetica-2d" d="M 266 2072 
L 1834 2072 
L 1834 1494 
L 266 1494 
L 266 2072 
z
" transform="scale(0.015625)"/>
      </defs>
      <use xlink:href="#Helvetica-4b"/>
      <use xlink:href="#Helvetica-2d" x="66.699219"/>
      <use xlink:href="#Helvetica-66" x="100"/>
      <use xlink:href="#Helvetica-6f" x="127.783203"/>
      <use xlink:href="#Helvetica-6c" x="183.398438"/>
      <use xlink:href="#Helvetica-64" x="205.615234"/>
      <use xlink:href="#Helvetica-20" x="261.230469"/>
      <use xlink:href="#Helvetica-61" x="289.013672"/>
      <use xlink:href="#Helvetica-63" x="344.628906"/>
      <use xlink:href="#Helvetica-63" x="394.628906"/>
      <use xlink:href="#Helvetica-75" x="444.628906"/>
      <use xlink:href="#Helvetica-72" x="500.244141"/>
      <use xlink:href="#Helvetica-61" x="533.544922"/>
      <use xlink:href="#Helvetica-63" x="589.160156"/>
      <use xlink:href="#Helvetica-79" x="639.160156"/>
      <use xlink:href="#Helvetica-20" x="689.160156"/>
      <use xlink:href="#Helvetica-6f" x="716.943359"/>
      <use xlink:href="#Helvetica-66" x="772.558594"/>
      <use xlink:href="#Helvetica-20" x="800.341797"/>
     </g>
     <!-- Individual Studies -->
     <g transform="translate(106.1625 98.024812) scale(0.13 -0.13)">
      <use xlink:href="#Helvetica-49"/>
      <use xlink:href="#Helvetica-6e" x="27.783203"/>
      <use xlink:href="#Helvetica-64" x="83.398438"/>
      <use xlink:href="#Helvetica-69" x="139.013672"/>
      <use xlink:href="#Helvetica-76" x="161.230469"/>
      <use xlink:href="#Helvetica-69" x="211.230469"/>
      <use xlink:href="#Helvetica-64" x="233.447266"/>
      <use xlink:href="#Helvetica-75" x="289.0625"/>
      <use xlink:href="#Helvetica-61" x="344.677734"/>
      <use xlink:href="#Helvetica-6c" x="400.292969"/>
      <use xlink:href="#Helvetica-20" x="422.509766"/>
      <use xlink:href="#Helvetica-53" x="450.292969"/>
      <use xlink:href="#Helvetica-74" x="516.992188"/>
      <use xlink:href="#Helvetica-75" x="544.775391"/>
      <use xlink:href="#Helvetica-64" x="600.390625"/>
      <use xlink:href="#Helvetica-69" x="656.005859"/>
      <use xlink:href="#Helvetica-65" x="678.222656"/>
      <use xlink:href="#Helvetica-73" x="733.837891"/>
     </g>
    </g>
    <g id="line2d_28">
     <path d="M 69.7625 112.263875 
L 82.7625 112.263875 
L 95.7625 112.263875 
" style="fill: none; stroke: #001c54; stroke-width: 1.5; stroke-linecap: square"/>
    </g>
    <g id="text_20">
     <!-- Learning Curve -->
     <g transform="translate(106.1625 116.813875) scale(0.13 -0.13)">
      <defs>
       <path id="Helvetica-4c" d="M 488 4591 
L 1109 4591 
L 1109 547 
L 3434 547 
L 3434 0 
L 488 0 
L 488 4591 
z
" transform="scale(0.015625)"/>
      </defs>
      <use xlink:href="#Helvetica-4c"/>
      <use xlink:href="#Helvetica-65" x="55.615234"/>
      <use xlink:href="#Helvetica-61" x="111.230469"/>
      <use xlink:href="#Helvetica-72" x="166.845703"/>
      <use xlink:href="#Helvetica-6e" x="200.146484"/>
      <use xlink:href="#Helvetica-69" x="255.761719"/>
      <use xlink:href="#Helvetica-6e" x="277.978516"/>
      <use xlink:href="#Helvetica-67" x="333.59375"/>
      <use xlink:href="#Helvetica-20" x="389.208984"/>
      <use xlink:href="#Helvetica-43" x="416.992188"/>
      <use xlink:href="#Helvetica-75" x="489.208984"/>
      <use xlink:href="#Helvetica-72" x="544.824219"/>
      <use xlink:href="#Helvetica-76" x="578.125"/>
      <use xlink:href="#Helvetica-65" x="628.125"/>
     </g>
    </g>
    <g id="line2d_29">
     <defs>
      <path id="m938fd35f52" d="M -0.404556 -7 
L 0.425227 -7 
L 4.042607 -3.361949 
L 2.935246 -2.254588 
L 0.794347 -4.416157 
L 0.794347 4.416157 
L 2.935246 2.257541 
L 4.042607 3.364902 
L 0.425227 7 
L -0.404556 7 
L -4.042607 3.364902 
L -2.935246 2.257541 
L -0.773676 4.416157 
L -0.773676 -4.416157 
L -2.935246 -2.254588 
L -4.042607 -3.361949 
L -0.404556 -7 
z
" style="stroke: #000000"/>
     </defs>
     <g>
      <use xlink:href="#m938fd35f52" x="252.812656" y="87.774922" style="stroke: #000000"/>
     </g>
    </g>
    <g id="text_21">
     <!-- Truly Irreducible -->
     <g transform="translate(276.212656 83.996594) scale(0.13 -0.13)">
      <defs>
       <path id="Helvetica-54" d="M 3828 4591 
L 3828 4044 
L 2281 4044 
L 2281 0 
L 1650 0 
L 1650 4044 
L 103 4044 
L 103 4591 
L 3828 4591 
z
" transform="scale(0.015625)"/>
      </defs>
      <use xlink:href="#Helvetica-54"/>
      <use xlink:href="#Helvetica-72" x="61.083984"/>
      <use xlink:href="#Helvetica-75" x="94.384766"/>
      <use xlink:href="#Helvetica-6c" x="150"/>
      <use xlink:href="#Helvetica-79" x="172.216797"/>
      <use xlink:href="#Helvetica-20" x="222.216797"/>
      <use xlink:href="#Helvetica-49" x="250"/>
      <use xlink:href="#Helvetica-72" x="277.783203"/>
      <use xlink:href="#Helvetica-72" x="311.083984"/>
      <use xlink:href="#Helvetica-65" x="344.384766"/>
      <use xlink:href="#Helvetica-64" x="400"/>
      <use xlink:href="#Helvetica-75" x="455.615234"/>
      <use xlink:href="#Helvetica-63" x="511.230469"/>
      <use xlink:href="#Helvetica-69" x="561.230469"/>
      <use xlink:href="#Helvetica-62" x="583.447266"/>
      <use xlink:href="#Helvetica-6c" x="639.0625"/>
      <use xlink:href="#Helvetica-65" x="661.279297"/>
     </g>
     <!--          Error -->
     <g transform="translate(276.212656 97.974031) scale(0.13 -0.13)">
      <defs>
       <path id="Helvetica-45" d="M 547 4591 
L 3894 4591 
L 3894 4028 
L 1153 4028 
L 1153 2634 
L 3688 2634 
L 3688 2103 
L 1153 2103 
L 1153 547 
L 3941 547 
L 3941 0 
L 547 0 
L 547 4591 
z
M 2244 4591 
L 2244 4591 
z
" transform="scale(0.015625)"/>
      </defs>
      <use xlink:href="#Helvetica-20"/>
      <use xlink:href="#Helvetica-20" x="27.783203"/>
      <use xlink:href="#Helvetica-20" x="55.566406"/>
      <use xlink:href="#Helvetica-20" x="83.349609"/>
      <use xlink:href="#Helvetica-20" x="111.132812"/>
      <use xlink:href="#Helvetica-20" x="138.916016"/>
      <use xlink:href="#Helvetica-20" x="166.699219"/>
      <use xlink:href="#Helvetica-20" x="194.482422"/>
      <use xlink:href="#Helvetica-20" x="222.265625"/>
      <use xlink:href="#Helvetica-45" x="250.048828"/>
      <use xlink:href="#Helvetica-72" x="316.748047"/>
      <use xlink:href="#Helvetica-72" x="350.048828"/>
      <use xlink:href="#Helvetica-6f" x="383.349609"/>
      <use xlink:href="#Helvetica-72" x="438.964844"/>
     </g>
    </g>
    <g id="line2d_30">
     <path d="M 239.812656 112.111531 
L 252.812656 112.111531 
L 265.812656 112.111531 
" style="fill: none"/>
     <defs>
      <path id="m72b9ea2bbe" d="M -7 0.415242 
L -7 -0.415242 
L -3.370699 -4.044543 
L -2.262402 -2.936247 
L -4.413975 -0.784674 
L 4.413975 -0.784674 
L 2.262402 -2.936247 
L 3.370699 -4.044543 
L 7 -0.415242 
L 7 0.415242 
L 3.370699 4.044543 
L 2.262402 2.936247 
L 4.413975 0.784674 
L -4.413975 0.784674 
L -2.262402 2.936247 
L -3.370699 4.044543 
L -7 0.415242 
z
" style="stroke: #e89818"/>
     </defs>
     <g>
      <use xlink:href="#m72b9ea2bbe" x="252.812656" y="112.111531" style="fill: #e89818; stroke: #e89818"/>
     </g>
    </g>
    <g id="text_22">
     <!-- Learning Rate: f'() -->
     <g transform="translate(276.212656 116.661531) scale(0.13 -0.13)">
      <defs>
       <path id="Helvetica-27" d="M 1056 4591 
L 953 2753 
L 591 2753 
L 488 4591 
L 1056 4591 
z
" transform="scale(0.015625)"/>
       <path id="Helvetica-28" d="M 1894 4666 
Q 1403 3713 1256 3263 
Q 1034 2578 1034 1681 
Q 1034 775 1288 25 
Q 1444 -438 1903 -1306 
L 1525 -1306 
Q 1069 -594 959 -397 
Q 850 -200 722 138 
Q 547 600 478 1125 
Q 444 1397 444 1644 
Q 444 2569 734 3291 
Q 919 3750 1503 4666 
L 1894 4666 
z
" transform="scale(0.015625)"/>
       <path id="Helvetica-29" d="M 222 -1306 
Q 719 -338 863 106 
Q 1081 778 1081 1681 
Q 1081 2584 828 3334 
Q 672 3797 213 4666 
L 591 4666 
Q 1072 3897 1173 3717 
Q 1275 3538 1394 3222 
Q 1544 2831 1608 2450 
Q 1672 2069 1672 1716 
Q 1672 791 1378 66 
Q 1194 -400 613 -1306 
L 222 -1306 
z
" transform="scale(0.015625)"/>
      </defs>
      <use xlink:href="#Helvetica-4c"/>
      <use xlink:href="#Helvetica-65" x="55.615234"/>
      <use xlink:href="#Helvetica-61" x="111.230469"/>
      <use xlink:href="#Helvetica-72" x="166.845703"/>
      <use xlink:href="#Helvetica-6e" x="200.146484"/>
      <use xlink:href="#Helvetica-69" x="255.761719"/>
      <use xlink:href="#Helvetica-6e" x="277.978516"/>
      <use xlink:href="#Helvetica-67" x="333.59375"/>
      <use xlink:href="#Helvetica-20" x="389.208984"/>
      <use xlink:href="#Helvetica-52" x="416.992188"/>
      <use xlink:href="#Helvetica-61" x="489.208984"/>
      <use xlink:href="#Helvetica-74" x="544.824219"/>
      <use xlink:href="#Helvetica-65" x="572.607422"/>
      <use xlink:href="#Helvetica-3a" x="628.222656"/>
      <use xlink:href="#Helvetica-20" x="656.005859"/>
      <use xlink:href="#Helvetica-66" x="683.789062"/>
      <use xlink:href="#Helvetica-27" x="711.572266"/>
      <use xlink:href="#Helvetica-28" x="730.664062"/>
      <use xlink:href="#Helvetica-29" x="763.964844"/>
     </g>
    </g>
   </g>
  </g>
  <g id="axes_2">
   <g id="patch_18">
    <path d="M 759.214332 228.074535 
L 950.8625 228.074535 
L 950.8625 27.546875 
L 759.214332 27.546875 
z
" style="fill: #ffffff"/>
   </g>
   <g id="patch_19">
    <path d="M 933.439939 36.661769 
L 937.795579 46.225235 
L 933.448651 46.225235 
L 933.448651 146.641635 
L 933.431228 146.641635 
L 933.431228 46.225235 
L 929.084299 46.225235 
z
" clip-path="url(#p21d78533fd)" style="stroke: #000000; stroke-linejoin: miter"/>
   </g>
   <g id="patch_20">
    <path d="M 933.439939 146.641635 
L 929.084299 137.078168 
L 933.431228 137.078168 
L 933.431228 36.661769 
L 933.448651 36.661769 
L 933.448651 137.078168 
L 937.795579 137.078168 
z
" clip-path="url(#p21d78533fd)" style="stroke: #000000; stroke-linejoin: miter"/>
   </g>
   <g id="matplotlib.axis_3">
    <g id="xtick_7">
     <g id="line2d_31">
      <path d="M 759.214332 228.074535 
L 759.214332 27.546875 
" clip-path="url(#p21d78533fd)" style="fill: none; stroke-dasharray: 2.96,1.28; stroke-dashoffset: 0; stroke: #b0b0b0; stroke-opacity: 0.3; stroke-width: 0.8"/>
     </g>
     <g id="line2d_32">
      <g>
       <use xlink:href="#m4b3ef38e44" x="759.214332" y="228.074535" style="stroke: #000000"/>
      </g>
     </g>
     <g id="text_23">
      <!-- 0% -->
      <g transform="translate(747.651832 247.052035) scale(0.16 -0.16)">
       <use xlink:href="#Helvetica-30"/>
       <use xlink:href="#Helvetica-25" x="55.615234"/>
      </g>
     </g>
    </g>
    <g id="xtick_8">
     <g id="line2d_33">
      <path d="M 846.327136 228.074535 
L 846.327136 27.546875 
" clip-path="url(#p21d78533fd)" style="fill: none; stroke-dasharray: 2.96,1.28; stroke-dashoffset: 0; stroke: #b0b0b0; stroke-opacity: 0.3; stroke-width: 0.8"/>
     </g>
     <g id="line2d_34">
      <g>
       <use xlink:href="#m4b3ef38e44" x="846.327136" y="228.074535" style="stroke: #000000"/>
      </g>
     </g>
     <g id="text_24">
      <!-- 50% -->
      <g transform="translate(830.315886 247.052035) scale(0.16 -0.16)">
       <defs>
        <path id="Helvetica-35" d="M 791 1141 
Q 847 659 1238 475 
Q 1438 381 1700 381 
Q 2200 381 2440 700 
Q 2681 1019 2681 1406 
Q 2681 1875 2395 2131 
Q 2109 2388 1709 2388 
Q 1419 2388 1211 2275 
Q 1003 2163 856 1963 
L 369 1991 
L 709 4400 
L 3034 4400 
L 3034 3856 
L 1131 3856 
L 941 2613 
Q 1097 2731 1238 2791 
Q 1488 2894 1816 2894 
Q 2431 2894 2859 2497 
Q 3288 2100 3288 1491 
Q 3288 856 2895 371 
Q 2503 -113 1644 -113 
Q 1097 -113 676 195 
Q 256 503 206 1141 
L 791 1141 
z
" transform="scale(0.015625)"/>
       </defs>
       <use xlink:href="#Helvetica-35"/>
       <use xlink:href="#Helvetica-30" x="55.615234"/>
       <use xlink:href="#Helvetica-25" x="111.230469"/>
      </g>
     </g>
    </g>
    <g id="xtick_9">
     <g id="line2d_35">
      <path d="M 933.439939 228.074535 
L 933.439939 27.546875 
" clip-path="url(#p21d78533fd)" style="fill: none; stroke-dasharray: 2.96,1.28; stroke-dashoffset: 0; stroke: #b0b0b0; stroke-opacity: 0.3; stroke-width: 0.8"/>
     </g>
     <g id="line2d_36">
      <g>
       <use xlink:href="#m4b3ef38e44" x="933.439939" y="228.074535" style="stroke: #000000"/>
      </g>
     </g>
     <g id="text_25">
      <!-- 100% -->
      <g transform="translate(912.979939 247.052035) scale(0.16 -0.16)">
       <use xlink:href="#Helvetica-31"/>
       <use xlink:href="#Helvetica-30" x="55.615234"/>
       <use xlink:href="#Helvetica-30" x="111.230469"/>
       <use xlink:href="#Helvetica-25" x="166.845703"/>
      </g>
     </g>
    </g>
    <g id="text_26">
     <!-- Information Captured -->
     <g transform="translate(789.285447 264.703285) scale(0.14 -0.14)">
      <use xlink:href="#Helvetica-49"/>
      <use xlink:href="#Helvetica-6e" x="27.783203"/>
      <use xlink:href="#Helvetica-66" x="83.398438"/>
      <use xlink:href="#Helvetica-6f" x="111.181641"/>
      <use xlink:href="#Helvetica-72" x="166.796875"/>
      <use xlink:href="#Helvetica-6d" x="200.097656"/>
      <use xlink:href="#Helvetica-61" x="283.398438"/>
      <use xlink:href="#Helvetica-74" x="339.013672"/>
      <use xlink:href="#Helvetica-69" x="366.796875"/>
      <use xlink:href="#Helvetica-6f" x="389.013672"/>
      <use xlink:href="#Helvetica-6e" x="444.628906"/>
      <use xlink:href="#Helvetica-20" x="500.244141"/>
      <use xlink:href="#Helvetica-43" x="528.027344"/>
      <use xlink:href="#Helvetica-61" x="600.244141"/>
      <use xlink:href="#Helvetica-70" x="655.859375"/>
      <use xlink:href="#Helvetica-74" x="711.474609"/>
      <use xlink:href="#Helvetica-75" x="739.257812"/>
      <use xlink:href="#Helvetica-72" x="794.873047"/>
      <use xlink:href="#Helvetica-65" x="828.173828"/>
      <use xlink:href="#Helvetica-64" x="883.789062"/>
     </g>
    </g>
   </g>
   <g id="matplotlib.axis_4">
    <g id="ytick_7">
     <g id="line2d_37">
      <path d="M 759.214332 227.931101 
L 950.8625 227.931101 
" clip-path="url(#p21d78533fd)" style="fill: none; stroke-dasharray: 2.96,1.28; stroke-dashoffset: 0; stroke: #b0b0b0; stroke-opacity: 0.3; stroke-width: 0.8"/>
     </g>
     <g id="line2d_38">
      <g>
       <use xlink:href="#m033bb068f3" x="759.214332" y="227.931101" style="stroke: #000000"/>
      </g>
     </g>
     <g id="text_27">
      <!-- 0.0 -->
      <g transform="translate(729.474332 233.669851) scale(0.16 -0.16)">
       <use xlink:href="#Helvetica-30"/>
       <use xlink:href="#Helvetica-2e" x="55.615234"/>
       <use xlink:href="#Helvetica-30" x="83.398438"/>
      </g>
     </g>
    </g>
    <g id="ytick_8">
     <g id="line2d_39">
      <path d="M 759.214332 189.677234 
L 950.8625 189.677234 
" clip-path="url(#p21d78533fd)" style="fill: none; stroke-dasharray: 2.96,1.28; stroke-dashoffset: 0; stroke: #b0b0b0; stroke-opacity: 0.3; stroke-width: 0.8"/>
     </g>
     <g id="line2d_40">
      <g>
       <use xlink:href="#m033bb068f3" x="759.214332" y="189.677234" style="stroke: #000000"/>
      </g>
     </g>
     <g id="text_28">
      <!-- 0.2 -->
      <g transform="translate(729.474332 195.415984) scale(0.16 -0.16)">
       <use xlink:href="#Helvetica-30"/>
       <use xlink:href="#Helvetica-2e" x="55.615234"/>
       <use xlink:href="#Helvetica-32" x="83.398438"/>
      </g>
     </g>
    </g>
    <g id="ytick_9">
     <g id="line2d_41">
      <path d="M 759.214332 151.423368 
L 950.8625 151.423368 
" clip-path="url(#p21d78533fd)" style="fill: none; stroke-dasharray: 2.96,1.28; stroke-dashoffset: 0; stroke: #b0b0b0; stroke-opacity: 0.3; stroke-width: 0.8"/>
     </g>
     <g id="line2d_42">
      <g>
       <use xlink:href="#m033bb068f3" x="759.214332" y="151.423368" style="stroke: #000000"/>
      </g>
     </g>
     <g id="text_29">
      <!-- 0.4 -->
      <g transform="translate(729.474332 157.162118) scale(0.16 -0.16)">
       <use xlink:href="#Helvetica-30"/>
       <use xlink:href="#Helvetica-2e" x="55.615234"/>
       <use xlink:href="#Helvetica-34" x="83.398438"/>
      </g>
     </g>
    </g>
    <g id="ytick_10">
     <g id="line2d_43">
      <path d="M 759.214332 113.169502 
L 950.8625 113.169502 
" clip-path="url(#p21d78533fd)" style="fill: none; stroke-dasharray: 2.96,1.28; stroke-dashoffset: 0; stroke: #b0b0b0; stroke-opacity: 0.3; stroke-width: 0.8"/>
     </g>
     <g id="line2d_44">
      <g>
       <use xlink:href="#m033bb068f3" x="759.214332" y="113.169502" style="stroke: #000000"/>
      </g>
     </g>
     <g id="text_30">
      <!-- 0.6 -->
      <g transform="translate(729.474332 118.908252) scale(0.16 -0.16)">
       <use xlink:href="#Helvetica-30"/>
       <use xlink:href="#Helvetica-2e" x="55.615234"/>
       <use xlink:href="#Helvetica-36" x="83.398438"/>
      </g>
     </g>
    </g>
    <g id="ytick_11">
     <g id="line2d_45">
      <path d="M 759.214332 74.915635 
L 950.8625 74.915635 
" clip-path="url(#p21d78533fd)" style="fill: none; stroke-dasharray: 2.96,1.28; stroke-dashoffset: 0; stroke: #b0b0b0; stroke-opacity: 0.3; stroke-width: 0.8"/>
     </g>
     <g id="line2d_46">
      <g>
       <use xlink:href="#m033bb068f3" x="759.214332" y="74.915635" style="stroke: #000000"/>
      </g>
     </g>
     <g id="text_31">
      <!-- 0.8 -->
      <g transform="translate(729.474332 80.654385) scale(0.16 -0.16)">
       <use xlink:href="#Helvetica-30"/>
       <use xlink:href="#Helvetica-2e" x="55.615234"/>
       <use xlink:href="#Helvetica-38" x="83.398438"/>
      </g>
     </g>
    </g>
    <g id="ytick_12">
     <g id="line2d_47">
      <path d="M 759.214332 36.661769 
L 950.8625 36.661769 
" clip-path="url(#p21d78533fd)" style="fill: none; stroke-dasharray: 2.96,1.28; stroke-dashoffset: 0; stroke: #b0b0b0; stroke-opacity: 0.3; stroke-width: 0.8"/>
     </g>
     <g id="line2d_48">
      <g>
       <use xlink:href="#m033bb068f3" x="759.214332" y="36.661769" style="stroke: #000000"/>
      </g>
     </g>
     <g id="text_32">
      <!-- 1.0 -->
      <g transform="translate(729.474332 42.400519) scale(0.16 -0.16)">
       <use xlink:href="#Helvetica-31"/>
       <use xlink:href="#Helvetica-2e" x="55.615234"/>
       <use xlink:href="#Helvetica-30" x="83.398438"/>
      </g>
     </g>
    </g>
    <g id="text_33">
     <!-- Predictability of Outcome -->
     <g transform="translate(722.473082 205.616799) rotate(-90) scale(0.14 -0.14)">
      <use xlink:href="#Helvetica-50"/>
      <use xlink:href="#Helvetica-72" x="66.699219"/>
      <use xlink:href="#Helvetica-65" x="100"/>
      <use xlink:href="#Helvetica-64" x="155.615234"/>
      <use xlink:href="#Helvetica-69" x="211.230469"/>
      <use xlink:href="#Helvetica-63" x="233.447266"/>
      <use xlink:href="#Helvetica-74" x="283.447266"/>
      <use xlink:href="#Helvetica-61" x="311.230469"/>
      <use xlink:href="#Helvetica-62" x="366.845703"/>
      <use xlink:href="#Helvetica-69" x="422.460938"/>
      <use xlink:href="#Helvetica-6c" x="444.677734"/>
      <use xlink:href="#Helvetica-69" x="466.894531"/>
      <use xlink:href="#Helvetica-74" x="489.111328"/>
      <use xlink:href="#Helvetica-79" x="516.894531"/>
      <use xlink:href="#Helvetica-20" x="566.894531"/>
      <use xlink:href="#Helvetica-6f" x="594.677734"/>
      <use xlink:href="#Helvetica-66" x="650.292969"/>
      <use xlink:href="#Helvetica-20" x="678.076172"/>
      <use xlink:href="#Helvetica-4f" x="705.859375"/>
      <use xlink:href="#Helvetica-75" x="783.642578"/>
      <use xlink:href="#Helvetica-74" x="839.257812"/>
      <use xlink:href="#Helvetica-63" x="867.041016"/>
      <use xlink:href="#Helvetica-6f" x="917.041016"/>
      <use xlink:href="#Helvetica-6d" x="972.65625"/>
      <use xlink:href="#Helvetica-65" x="1055.957031"/>
     </g>
    </g>
   </g>
   <g id="line2d_49">
    <path d="M 759.214332 218.959641 
L 763.96594 213.092462 
L 768.717547 207.562748 
L 773.469155 202.358227 
L 778.220762 197.466843 
L 782.97237 192.876751 
L 787.723977 188.576321 
L 792.475585 184.554135 
L 797.227192 180.798989 
L 801.9788 177.299892 
L 806.730407 174.046065 
L 811.482015 171.026945 
L 816.233622 168.232181 
L 820.985229 165.651633 
L 825.736837 163.275378 
L 830.488444 161.093703 
L 835.240052 159.097112 
L 839.991659 157.276317 
L 844.743267 155.622248 
L 849.494874 154.126047 
L 854.246482 152.779067 
L 858.998089 151.572878 
L 863.749697 150.499259 
L 868.501304 149.550206 
L 873.252911 148.717927 
L 878.004519 147.994842 
L 882.756126 147.373585 
L 887.507734 146.847005 
L 892.259341 146.408161 
L 897.010949 146.050328 
L 901.762556 145.766994 
L 906.514164 145.551857 
L 911.265771 145.398834 
L 916.017379 145.302049 
L 920.768986 145.255844 
L 925.520594 145.254772 
L 930.272201 145.2936 
L 935.023808 145.367308 
L 939.775416 145.471089 
L 944.527023 145.600349 
L 949.278631 145.750709 
L 954.030238 145.918001 
L 958.781846 146.098272 
L 962.099939 146.230608 
" clip-path="url(#p21d78533fd)" style="fill: none; stroke: #001c54; stroke-width: 1.5; stroke-linecap: square"/>
   </g>
   <g id="line2d_50">
    <path d="M 759.214332 36.661769 
L 950.8625 36.661769 
" clip-path="url(#p21d78533fd)" style="fill: none; stroke-dasharray: 7.4,3.2; stroke-dashoffset: 0; stroke: #e4003b; stroke-width: 2"/>
   </g>
   <g id="patch_21">
    <path d="M 759.214332 228.074535 
L 759.214332 27.546875 
" style="fill: none; stroke: #000000; stroke-width: 0.8; stroke-linejoin: miter; stroke-linecap: square"/>
   </g>
   <g id="patch_22">
    <path d="M 759.214332 228.074535 
L 950.8625 228.074535 
" style="fill: none; stroke: #000000; stroke-width: 0.8; stroke-linejoin: miter; stroke-linecap: square"/>
   </g>
   <g id="text_34">
    <!-- b. -->
    <g transform="translate(759.214332 21.546875) scale(0.2 -0.2)">
     <use xlink:href="#Helvetica-62"/>
     <use xlink:href="#Helvetica-2e" x="55.615234"/>
    </g>
   </g>
  </g>
  <g id="axes_3">
   <g id="patch_23">
    <path d="M 759.214332 498.786875 
L 950.8625 498.786875 
L 950.8625 298.259215 
L 759.214332 298.259215 
z
" style="fill: #ffffff"/>
   </g>
   <g id="matplotlib.axis_5">
    <g id="xtick_10">
     <g id="line2d_51">
      <path d="M 759.214332 498.786875 
L 759.214332 298.259215 
" clip-path="url(#pcab8395f1f)" style="fill: none; stroke-dasharray: 2.96,1.28; stroke-dashoffset: 0; stroke: #b0b0b0; stroke-opacity: 0.3; stroke-width: 0.8"/>
     </g>
     <g id="line2d_52">
      <g>
       <use xlink:href="#m4b3ef38e44" x="759.214332" y="498.786875" style="stroke: #000000"/>
      </g>
     </g>
     <g id="text_35">
      <!-- 0% -->
      <g transform="translate(747.651832 517.764375) scale(0.16 -0.16)">
       <use xlink:href="#Helvetica-30"/>
       <use xlink:href="#Helvetica-25" x="55.615234"/>
      </g>
     </g>
    </g>
    <g id="xtick_11">
     <g id="line2d_53">
      <path d="M 835.873599 498.786875 
L 835.873599 298.259215 
" clip-path="url(#pcab8395f1f)" style="fill: none; stroke-dasharray: 2.96,1.28; stroke-dashoffset: 0; stroke: #b0b0b0; stroke-opacity: 0.3; stroke-width: 0.8"/>
     </g>
     <g id="line2d_54">
      <g>
       <use xlink:href="#m4b3ef38e44" x="835.873599" y="498.786875" style="stroke: #000000"/>
      </g>
     </g>
     <g id="text_36">
      <!-- 50% -->
      <g transform="translate(819.862349 517.764375) scale(0.16 -0.16)">
       <use xlink:href="#Helvetica-35"/>
       <use xlink:href="#Helvetica-30" x="55.615234"/>
       <use xlink:href="#Helvetica-25" x="111.230469"/>
      </g>
     </g>
    </g>
    <g id="xtick_12">
     <g id="line2d_55">
      <path d="M 912.532866 498.786875 
L 912.532866 298.259215 
" clip-path="url(#pcab8395f1f)" style="fill: none; stroke-dasharray: 2.96,1.28; stroke-dashoffset: 0; stroke: #b0b0b0; stroke-opacity: 0.3; stroke-width: 0.8"/>
     </g>
     <g id="line2d_56">
      <g>
       <use xlink:href="#m4b3ef38e44" x="912.532866" y="498.786875" style="stroke: #000000"/>
      </g>
     </g>
     <g id="text_37">
      <!-- 100% -->
      <g transform="translate(892.072866 517.764375) scale(0.16 -0.16)">
       <use xlink:href="#Helvetica-31"/>
       <use xlink:href="#Helvetica-30" x="55.615234"/>
       <use xlink:href="#Helvetica-30" x="111.230469"/>
       <use xlink:href="#Helvetica-25" x="166.845703"/>
      </g>
     </g>
    </g>
    <g id="text_38">
     <!-- Information Captured -->
     <g transform="translate(789.285447 535.415625) scale(0.14 -0.14)">
      <use xlink:href="#Helvetica-49"/>
      <use xlink:href="#Helvetica-6e" x="27.783203"/>
      <use xlink:href="#Helvetica-66" x="83.398438"/>
      <use xlink:href="#Helvetica-6f" x="111.181641"/>
      <use xlink:href="#Helvetica-72" x="166.796875"/>
      <use xlink:href="#Helvetica-6d" x="200.097656"/>
      <use xlink:href="#Helvetica-61" x="283.398438"/>
      <use xlink:href="#Helvetica-74" x="339.013672"/>
      <use xlink:href="#Helvetica-69" x="366.796875"/>
      <use xlink:href="#Helvetica-6f" x="389.013672"/>
      <use xlink:href="#Helvetica-6e" x="444.628906"/>
      <use xlink:href="#Helvetica-20" x="500.244141"/>
      <use xlink:href="#Helvetica-43" x="528.027344"/>
      <use xlink:href="#Helvetica-61" x="600.244141"/>
      <use xlink:href="#Helvetica-70" x="655.859375"/>
      <use xlink:href="#Helvetica-74" x="711.474609"/>
      <use xlink:href="#Helvetica-75" x="739.257812"/>
      <use xlink:href="#Helvetica-72" x="794.873047"/>
      <use xlink:href="#Helvetica-65" x="828.173828"/>
      <use xlink:href="#Helvetica-64" x="883.789062"/>
     </g>
    </g>
   </g>
   <g id="matplotlib.axis_6">
    <g id="ytick_13">
     <g id="line2d_57">
      <path d="M 759.214332 485.552705 
L 950.8625 485.552705 
" clip-path="url(#pcab8395f1f)" style="fill: none; stroke-dasharray: 2.96,1.28; stroke-dashoffset: 0; stroke: #b0b0b0; stroke-opacity: 0.3; stroke-width: 0.8"/>
     </g>
     <g id="line2d_58">
      <g>
       <use xlink:href="#m033bb068f3" x="759.214332" y="485.552705" style="stroke: #000000"/>
      </g>
     </g>
     <g id="text_39">
      <!-- 0.0 -->
      <g transform="translate(729.474332 491.291455) scale(0.16 -0.16)">
       <use xlink:href="#Helvetica-30"/>
       <use xlink:href="#Helvetica-2e" x="55.615234"/>
       <use xlink:href="#Helvetica-30" x="83.398438"/>
      </g>
     </g>
    </g>
    <g id="ytick_14">
     <g id="line2d_59">
      <path d="M 759.214332 450.433029 
L 950.8625 450.433029 
" clip-path="url(#pcab8395f1f)" style="fill: none; stroke-dasharray: 2.96,1.28; stroke-dashoffset: 0; stroke: #b0b0b0; stroke-opacity: 0.3; stroke-width: 0.8"/>
     </g>
     <g id="line2d_60">
      <g>
       <use xlink:href="#m033bb068f3" x="759.214332" y="450.433029" style="stroke: #000000"/>
      </g>
     </g>
     <g id="text_40">
      <!-- 0.2 -->
      <g transform="translate(729.474332 456.171779) scale(0.16 -0.16)">
       <use xlink:href="#Helvetica-30"/>
       <use xlink:href="#Helvetica-2e" x="55.615234"/>
       <use xlink:href="#Helvetica-32" x="83.398438"/>
      </g>
     </g>
    </g>
    <g id="ytick_15">
     <g id="line2d_61">
      <path d="M 759.214332 415.313354 
L 950.8625 415.313354 
" clip-path="url(#pcab8395f1f)" style="fill: none; stroke-dasharray: 2.96,1.28; stroke-dashoffset: 0; stroke: #b0b0b0; stroke-opacity: 0.3; stroke-width: 0.8"/>
     </g>
     <g id="line2d_62">
      <g>
       <use xlink:href="#m033bb068f3" x="759.214332" y="415.313354" style="stroke: #000000"/>
      </g>
     </g>
     <g id="text_41">
      <!-- 0.4 -->
      <g transform="translate(729.474332 421.052104) scale(0.16 -0.16)">
       <use xlink:href="#Helvetica-30"/>
       <use xlink:href="#Helvetica-2e" x="55.615234"/>
       <use xlink:href="#Helvetica-34" x="83.398438"/>
      </g>
     </g>
    </g>
    <g id="ytick_16">
     <g id="line2d_63">
      <path d="M 759.214332 380.193678 
L 950.8625 380.193678 
" clip-path="url(#pcab8395f1f)" style="fill: none; stroke-dasharray: 2.96,1.28; stroke-dashoffset: 0; stroke: #b0b0b0; stroke-opacity: 0.3; stroke-width: 0.8"/>
     </g>
     <g id="line2d_64">
      <g>
       <use xlink:href="#m033bb068f3" x="759.214332" y="380.193678" style="stroke: #000000"/>
      </g>
     </g>
     <g id="text_42">
      <!-- 0.6 -->
      <g transform="translate(729.474332 385.932428) scale(0.16 -0.16)">
       <use xlink:href="#Helvetica-30"/>
       <use xlink:href="#Helvetica-2e" x="55.615234"/>
       <use xlink:href="#Helvetica-36" x="83.398438"/>
      </g>
     </g>
    </g>
    <g id="ytick_17">
     <g id="line2d_65">
      <path d="M 759.214332 345.074002 
L 950.8625 345.074002 
" clip-path="url(#pcab8395f1f)" style="fill: none; stroke-dasharray: 2.96,1.28; stroke-dashoffset: 0; stroke: #b0b0b0; stroke-opacity: 0.3; stroke-width: 0.8"/>
     </g>
     <g id="line2d_66">
      <g>
       <use xlink:href="#m033bb068f3" x="759.214332" y="345.074002" style="stroke: #000000"/>
      </g>
     </g>
     <g id="text_43">
      <!-- 0.8 -->
      <g transform="translate(729.474332 350.812752) scale(0.16 -0.16)">
       <use xlink:href="#Helvetica-30"/>
       <use xlink:href="#Helvetica-2e" x="55.615234"/>
       <use xlink:href="#Helvetica-38" x="83.398438"/>
      </g>
     </g>
    </g>
    <g id="ytick_18">
     <g id="line2d_67">
      <path d="M 759.214332 309.954326 
L 950.8625 309.954326 
" clip-path="url(#pcab8395f1f)" style="fill: none; stroke-dasharray: 2.96,1.28; stroke-dashoffset: 0; stroke: #b0b0b0; stroke-opacity: 0.3; stroke-width: 0.8"/>
     </g>
     <g id="line2d_68">
      <g>
       <use xlink:href="#m033bb068f3" x="759.214332" y="309.954326" style="stroke: #000000"/>
      </g>
     </g>
     <g id="text_44">
      <!-- 1.0 -->
      <g transform="translate(729.474332 315.693076) scale(0.16 -0.16)">
       <use xlink:href="#Helvetica-31"/>
       <use xlink:href="#Helvetica-2e" x="55.615234"/>
       <use xlink:href="#Helvetica-30" x="83.398438"/>
      </g>
     </g>
    </g>
    <g id="text_45">
     <!-- Predictability of Outcome -->
     <g transform="translate(722.473082 476.329139) rotate(-90) scale(0.14 -0.14)">
      <use xlink:href="#Helvetica-50"/>
      <use xlink:href="#Helvetica-72" x="66.699219"/>
      <use xlink:href="#Helvetica-65" x="100"/>
      <use xlink:href="#Helvetica-64" x="155.615234"/>
      <use xlink:href="#Helvetica-69" x="211.230469"/>
      <use xlink:href="#Helvetica-63" x="233.447266"/>
      <use xlink:href="#Helvetica-74" x="283.447266"/>
      <use xlink:href="#Helvetica-61" x="311.230469"/>
      <use xlink:href="#Helvetica-62" x="366.845703"/>
      <use xlink:href="#Helvetica-69" x="422.460938"/>
      <use xlink:href="#Helvetica-6c" x="444.677734"/>
      <use xlink:href="#Helvetica-69" x="466.894531"/>
      <use xlink:href="#Helvetica-74" x="489.111328"/>
      <use xlink:href="#Helvetica-79" x="516.894531"/>
      <use xlink:href="#Helvetica-20" x="566.894531"/>
      <use xlink:href="#Helvetica-6f" x="594.677734"/>
      <use xlink:href="#Helvetica-66" x="650.292969"/>
      <use xlink:href="#Helvetica-20" x="678.076172"/>
      <use xlink:href="#Helvetica-4f" x="705.859375"/>
      <use xlink:href="#Helvetica-75" x="783.642578"/>
      <use xlink:href="#Helvetica-74" x="839.257812"/>
      <use xlink:href="#Helvetica-63" x="867.041016"/>
      <use xlink:href="#Helvetica-6f" x="917.041016"/>
      <use xlink:href="#Helvetica-6d" x="972.65625"/>
      <use xlink:href="#Helvetica-65" x="1055.957031"/>
     </g>
    </g>
   </g>
   <g id="line2d_69">
    <path d="M 759.214332 489.671981 
L 761.924509 486.011548 
L 764.634685 482.365546 
L 767.344861 478.734767 
L 770.055037 475.120001 
L 772.765213 471.522038 
L 775.475389 467.941668 
L 778.185565 464.379683 
L 780.895741 460.836872 
L 783.605917 457.314026 
L 786.316094 453.811936 
L 789.02627 450.331391 
L 791.736446 446.873182 
L 794.446622 443.4381 
L 797.156798 440.026934 
L 799.866974 436.640476 
L 802.57715 433.279516 
L 805.287326 429.944844 
L 807.997502 426.63725 
L 810.707678 423.357526 
L 813.417855 420.10646 
L 816.128031 416.884845 
L 818.838207 413.693469 
L 821.548383 410.533124 
L 824.258559 407.404601 
L 826.968735 404.308688 
L 829.678911 401.246177 
L 832.389087 398.217859 
L 835.099263 395.224523 
L 837.80944 392.26696 
L 840.519616 389.345961 
L 843.229792 386.462315 
L 845.939968 383.616813 
L 848.650144 380.810247 
L 851.36032 378.043405 
L 854.070496 375.317078 
L 856.780672 372.632058 
L 859.490848 369.989134 
L 862.201025 367.389096 
L 864.911201 364.832735 
L 867.621377 362.320842 
L 870.331553 359.854207 
L 873.041729 357.43362 
L 875.751905 355.059872 
L 878.462081 352.733753 
L 881.172257 350.456053 
L 883.882433 348.227563 
L 886.592609 346.049074 
L 889.302786 343.921375 
L 892.012962 341.845257 
L 894.723138 339.821511 
L 897.433314 337.850927 
L 900.14349 335.934295 
L 902.853666 334.072406 
L 905.563842 332.26605 
L 908.274018 330.516018 
L 910.984194 328.823099 
L 913.694371 327.188085 
L 916.404547 325.611766 
L 919.114723 324.094931 
L 921.824899 322.638373 
L 924.535075 321.24288 
L 927.245251 319.909244 
L 929.955427 318.638255 
L 932.665603 317.430702 
L 935.375779 316.287378 
L 938.085955 315.209071 
L 940.796132 314.196573 
L 943.506308 313.250673 
L 946.216484 312.372163 
L 948.92666 311.561833 
L 951.636836 310.820472 
L 954.347012 310.148872 
L 957.057188 309.547823 
L 959.767364 309.018115 
L 962.099939 308.624292 
" clip-path="url(#pcab8395f1f)" style="fill: none; stroke: #001c54; stroke-width: 1.5; stroke-linecap: square"/>
   </g>
   <g id="line2d_70">
    <path d="M 759.214332 309.954326 
L 950.8625 309.954326 
" clip-path="url(#pcab8395f1f)" style="fill: none; stroke-dasharray: 7.4,3.2; stroke-dashoffset: 0; stroke: #e4003b; stroke-width: 2"/>
   </g>
   <g id="patch_24">
    <path d="M 759.214332 498.786875 
L 759.214332 298.259215 
" style="fill: none; stroke: #000000; stroke-width: 0.8; stroke-linejoin: miter; stroke-linecap: square"/>
   </g>
   <g id="patch_25">
    <path d="M 759.214332 498.786875 
L 950.8625 498.786875 
" style="fill: none; stroke: #000000; stroke-width: 0.8; stroke-linejoin: miter; stroke-linecap: square"/>
   </g>
   <g id="text_46">
    <!-- c. -->
    <g transform="translate(759.214332 292.259215) scale(0.2 -0.2)">
     <use xlink:href="#Helvetica-63"/>
     <use xlink:href="#Helvetica-2e" x="50"/>
    </g>
   </g>
  </g>
 </g>
 <defs>
  <clipPath id="pf530414e39">
   <rect x="58.0625" y="27.546875" width="612.339267" height="471.24"/>
  </clipPath>
  <clipPath id="p21d78533fd">
   <rect x="759.214332" y="27.546875" width="191.648168" height="200.52766"/>
  </clipPath>
  <clipPath id="pcab8395f1f">
   <rect x="759.214332" y="298.259215" width="191.648168" height="200.52766"/>
  </clipPath>
 </defs>
</svg>
