<?xml version="1.0" encoding="utf-8" standalone="no"?>
<!DOCTYPE svg PUBLIC "-//W3C//DTD SVG 1.1//EN"
  "http://www.w3.org/Graphics/SVG/1.1/DTD/svg11.dtd">
<svg xmlns:xlink="http://www.w3.org/1999/xlink" width="1001.9585pt" height="577.035pt" viewBox="0 0 1001.9585 577.035" xmlns="http://www.w3.org/2000/svg" version="1.1">
 <metadata>
  <rdf:RDF xmlns:dc="http://purl.org/dc/elements/1.1/" xmlns:cc="http://creativecommons.org/ns#" xmlns:rdf="http://www.w3.org/1999/02/22-rdf-syntax-ns#">
   <cc:Work>
    <dc:type rdf:resource="http://purl.org/dc/dcmitype/StillImage"/>
    <dc:date>2024-08-08T14:53:24.670379</dc:date>
    <dc:format>image/svg+xml</dc:format>
    <dc:creator>
     <cc:Agent>
      <dc:title>Matplotlib v3.8.0, https://matplotlib.org/</dc:title>
     </cc:Agent>
    </dc:creator>
   </cc:Work>
  </rdf:RDF>
 </metadata>
 <defs>
  <style type="text/css">*{stroke-linejoin: round; stroke-linecap: butt}</style>
 </defs>
 <g id="figure_1">
  <g id="patch_1">
   <path d="M 0 577.035 
L 1001.9585 577.035 
L 1001.9585 0 
L 0 0 
z
" style="fill: #ffffff"/>
  </g>
  <g id="axes_1">
   <g id="patch_2">
    <path d="M 81.4985 526.506875 
L 974.2985 526.506875 
L 974.2985 27.546875 
L 81.4985 27.546875 
z
" style="fill: #ffffff"/>
   </g>
   <g id="matplotlib.axis_1">
    <g id="xtick_1">
     <g id="line2d_1">
      <path d="M 81.4985 526.506875 
L 81.4985 27.546875 
" clip-path="url(#p8da6b62dbf)" style="fill: none; stroke-dasharray: 3.7,1.6; stroke-dashoffset: 0; stroke: #cccccc; stroke-opacity: 0.3"/>
     </g>
     <g id="text_1">
      <!-- 0% -->
      <g style="fill: #262626" transform="translate(69.936 545.484375) scale(0.16 -0.16)">
       <defs>
        <path id="Helvetica-30" d="M 1731 4475 
Q 2600 4475 2988 3759 
Q 3288 3206 3288 2244 
Q 3288 1331 3016 734 
Q 2622 -122 1728 -122 
Q 922 -122 528 578 
Q 200 1163 200 2147 
Q 200 2909 397 3456 
Q 766 4475 1731 4475 
z
M 1725 391 
Q 2163 391 2422 778 
Q 2681 1166 2681 2222 
Q 2681 2984 2493 3476 
Q 2306 3969 1766 3969 
Q 1269 3969 1039 3501 
Q 809 3034 809 2125 
Q 809 1441 956 1025 
Q 1181 391 1725 391 
z
" transform="scale(0.015625)"/>
        <path id="Helvetica-25" d="M 4363 2175 
Q 4813 2175 5131 1856 
Q 5450 1538 5450 1088 
Q 5450 638 5131 319 
Q 4813 0 4363 0 
Q 3909 0 3590 319 
Q 3272 638 3272 1088 
Q 3272 1538 3590 1856 
Q 3909 2175 4363 2175 
z
M 3909 4456 
L 4256 4456 
L 1753 -119 
L 1406 -119 
L 3909 4456 
z
M 1294 2606 
Q 1563 2606 1752 2795 
Q 1941 2984 1941 3250 
Q 1941 3516 1752 3705 
Q 1563 3894 1294 3894 
Q 1028 3894 839 3706 
Q 650 3519 650 3250 
Q 650 2984 839 2795 
Q 1028 2606 1294 2606 
z
M 1294 4341 
Q 1747 4341 2065 4020 
Q 2384 3700 2384 3250 
Q 2384 2800 2065 2481 
Q 1747 2163 1294 2163 
Q 844 2163 525 2481 
Q 206 2800 206 3250 
Q 206 3700 525 4020 
Q 844 4341 1294 4341 
z
M 4363 444 
Q 4628 444 4817 633 
Q 5006 822 5006 1088 
Q 5006 1353 4817 1542 
Q 4628 1731 4363 1731 
Q 4094 1731 3905 1542 
Q 3716 1353 3716 1088 
Q 3716 822 3905 633 
Q 4094 444 4363 444 
z
" transform="scale(0.015625)"/>
       </defs>
       <use xlink:href="#Helvetica-30"/>
       <use xlink:href="#Helvetica-25" x="55.615234"/>
      </g>
     </g>
    </g>
    <g id="xtick_2">
     <g id="line2d_2">
      <path d="M 260.0585 526.506875 
L 260.0585 27.546875 
" clip-path="url(#p8da6b62dbf)" style="fill: none; stroke-dasharray: 3.7,1.6; stroke-dashoffset: 0; stroke: #cccccc; stroke-opacity: 0.3"/>
     </g>
     <g id="text_2">
      <!-- 20% -->
      <g style="fill: #262626" transform="translate(244.04725 545.484375) scale(0.16 -0.16)">
       <defs>
        <path id="Helvetica-32" d="M 200 0 
Q 231 578 439 1006 
Q 647 1434 1250 1784 
L 1850 2131 
Q 2253 2366 2416 2531 
Q 2672 2791 2672 3125 
Q 2672 3516 2437 3745 
Q 2203 3975 1813 3975 
Q 1234 3975 1013 3538 
Q 894 3303 881 2888 
L 309 2888 
Q 319 3472 525 3841 
Q 891 4491 1816 4491 
Q 2584 4491 2939 4075 
Q 3294 3659 3294 3150 
Q 3294 2613 2916 2231 
Q 2697 2009 2131 1694 
L 1703 1456 
Q 1397 1288 1222 1134 
Q 909 863 828 531 
L 3272 531 
L 3272 0 
L 200 0 
z
" transform="scale(0.015625)"/>
       </defs>
       <use xlink:href="#Helvetica-32"/>
       <use xlink:href="#Helvetica-30" x="55.615234"/>
       <use xlink:href="#Helvetica-25" x="111.230469"/>
      </g>
     </g>
    </g>
    <g id="xtick_3">
     <g id="line2d_3">
      <path d="M 438.6185 526.506875 
L 438.6185 27.546875 
" clip-path="url(#p8da6b62dbf)" style="fill: none; stroke-dasharray: 3.7,1.6; stroke-dashoffset: 0; stroke: #cccccc; stroke-opacity: 0.3"/>
     </g>
     <g id="text_3">
      <!-- 40% -->
      <g style="fill: #262626" transform="translate(422.60725 545.484375) scale(0.16 -0.16)">
       <defs>
        <path id="Helvetica-34" d="M 2116 1584 
L 2116 3613 
L 681 1584 
L 2116 1584 
z
M 2125 0 
L 2125 1094 
L 163 1094 
L 163 1644 
L 2213 4488 
L 2688 4488 
L 2688 1584 
L 3347 1584 
L 3347 1094 
L 2688 1094 
L 2688 0 
L 2125 0 
z
" transform="scale(0.015625)"/>
       </defs>
       <use xlink:href="#Helvetica-34"/>
       <use xlink:href="#Helvetica-30" x="55.615234"/>
       <use xlink:href="#Helvetica-25" x="111.230469"/>
      </g>
     </g>
    </g>
    <g id="xtick_4">
     <g id="line2d_4">
      <path d="M 617.1785 526.506875 
L 617.1785 27.546875 
" clip-path="url(#p8da6b62dbf)" style="fill: none; stroke-dasharray: 3.7,1.6; stroke-dashoffset: 0; stroke: #cccccc; stroke-opacity: 0.3"/>
     </g>
     <g id="text_4">
      <!-- 60% -->
      <g style="fill: #262626" transform="translate(601.16725 545.484375) scale(0.16 -0.16)">
       <defs>
        <path id="Helvetica-36" d="M 1872 4494 
Q 2622 4494 2917 4105 
Q 3213 3716 3213 3303 
L 2656 3303 
Q 2606 3569 2497 3719 
Q 2294 4000 1881 4000 
Q 1409 4000 1131 3564 
Q 853 3128 822 2316 
Q 1016 2600 1309 2741 
Q 1578 2866 1909 2866 
Q 2472 2866 2890 2506 
Q 3309 2147 3309 1434 
Q 3309 825 2912 354 
Q 2516 -116 1781 -116 
Q 1153 -116 697 361 
Q 241 838 241 1966 
Q 241 2800 444 3381 
Q 834 4494 1872 4494 
z
M 1831 384 
Q 2275 384 2495 682 
Q 2716 981 2716 1388 
Q 2716 1731 2519 2042 
Q 2322 2353 1803 2353 
Q 1441 2353 1167 2112 
Q 894 1872 894 1388 
Q 894 963 1142 673 
Q 1391 384 1831 384 
z
" transform="scale(0.015625)"/>
       </defs>
       <use xlink:href="#Helvetica-36"/>
       <use xlink:href="#Helvetica-30" x="55.615234"/>
       <use xlink:href="#Helvetica-25" x="111.230469"/>
      </g>
     </g>
    </g>
    <g id="xtick_5">
     <g id="line2d_5">
      <path d="M 795.7385 526.506875 
L 795.7385 27.546875 
" clip-path="url(#p8da6b62dbf)" style="fill: none; stroke-dasharray: 3.7,1.6; stroke-dashoffset: 0; stroke: #cccccc; stroke-opacity: 0.3"/>
     </g>
     <g id="text_5">
      <!-- 80% -->
      <g style="fill: #262626" transform="translate(779.72725 545.484375) scale(0.16 -0.16)">
       <defs>
        <path id="Helvetica-38" d="M 1741 2600 
Q 2113 2600 2322 2808 
Q 2531 3016 2531 3303 
Q 2531 3553 2331 3762 
Q 2131 3972 1722 3972 
Q 1316 3972 1134 3762 
Q 953 3553 953 3272 
Q 953 2956 1187 2778 
Q 1422 2600 1741 2600 
z
M 1775 384 
Q 2166 384 2423 595 
Q 2681 806 2681 1225 
Q 2681 1659 2415 1884 
Q 2150 2109 1734 2109 
Q 1331 2109 1076 1879 
Q 822 1650 822 1244 
Q 822 894 1055 639 
Q 1288 384 1775 384 
z
M 975 2384 
Q 741 2484 609 2619 
Q 363 2869 363 3269 
Q 363 3769 725 4128 
Q 1088 4488 1753 4488 
Q 2397 4488 2762 4148 
Q 3128 3809 3128 3356 
Q 3128 2938 2916 2678 
Q 2797 2531 2547 2391 
Q 2825 2263 2984 2097 
Q 3281 1784 3281 1284 
Q 3281 694 2884 283 
Q 2488 -128 1763 -128 
Q 1109 -128 657 226 
Q 206 581 206 1256 
Q 206 1653 400 1942 
Q 594 2231 975 2384 
z
" transform="scale(0.015625)"/>
       </defs>
       <use xlink:href="#Helvetica-38"/>
       <use xlink:href="#Helvetica-30" x="55.615234"/>
       <use xlink:href="#Helvetica-25" x="111.230469"/>
      </g>
     </g>
    </g>
    <g id="xtick_6">
     <g id="line2d_6">
      <path d="M 974.2985 526.506875 
L 974.2985 27.546875 
" clip-path="url(#p8da6b62dbf)" style="fill: none; stroke-dasharray: 3.7,1.6; stroke-dashoffset: 0; stroke: #cccccc; stroke-opacity: 0.3"/>
     </g>
     <g id="text_6">
      <!-- 100% -->
      <g style="fill: #262626" transform="translate(953.8385 545.484375) scale(0.16 -0.16)">
       <defs>
        <path id="Helvetica-31" d="M 613 3169 
L 613 3600 
Q 1222 3659 1462 3798 
Q 1703 3938 1822 4456 
L 2266 4456 
L 2266 0 
L 1666 0 
L 1666 3169 
L 613 3169 
z
" transform="scale(0.015625)"/>
       </defs>
       <use xlink:href="#Helvetica-31"/>
       <use xlink:href="#Helvetica-30" x="55.615234"/>
       <use xlink:href="#Helvetica-30" x="111.230469"/>
       <use xlink:href="#Helvetica-25" x="166.845703"/>
      </g>
     </g>
    </g>
    <g id="text_7">
     <!-- Information Captured -->
     <g style="fill: #262626" transform="translate(443.358969 566.083125) scale(0.18 -0.18)">
      <defs>
       <path id="Helvetica-49" d="M 628 4591 
L 1256 4591 
L 1256 0 
L 628 0 
L 628 4591 
z
" transform="scale(0.015625)"/>
       <path id="Helvetica-6e" d="M 413 3347 
L 947 3347 
L 947 2872 
Q 1184 3166 1450 3294 
Q 1716 3422 2041 3422 
Q 2753 3422 3003 2925 
Q 3141 2653 3141 2147 
L 3141 0 
L 2569 0 
L 2569 2109 
Q 2569 2416 2478 2603 
Q 2328 2916 1934 2916 
Q 1734 2916 1606 2875 
Q 1375 2806 1200 2600 
Q 1059 2434 1017 2257 
Q 975 2081 975 1753 
L 975 0 
L 413 0 
L 413 3347 
z
M 1734 3428 
L 1734 3428 
z
" transform="scale(0.015625)"/>
       <path id="Helvetica-66" d="M 553 3856 
Q 566 4206 675 4369 
Q 872 4656 1434 4656 
Q 1488 4656 1544 4653 
Q 1600 4650 1672 4644 
L 1672 4131 
Q 1584 4138 1545 4139 
Q 1506 4141 1472 4141 
Q 1216 4141 1166 4008 
Q 1116 3875 1116 3331 
L 1672 3331 
L 1672 2888 
L 1109 2888 
L 1109 0 
L 553 0 
L 553 2888 
L 88 2888 
L 88 3331 
L 553 3331 
L 553 3856 
z
" transform="scale(0.015625)"/>
       <path id="Helvetica-6f" d="M 1741 363 
Q 2300 363 2508 786 
Q 2716 1209 2716 1728 
Q 2716 2197 2566 2491 
Q 2328 2953 1747 2953 
Q 1231 2953 997 2559 
Q 763 2166 763 1609 
Q 763 1075 997 719 
Q 1231 363 1741 363 
z
M 1763 3444 
Q 2409 3444 2856 3012 
Q 3303 2581 3303 1744 
Q 3303 934 2909 406 
Q 2516 -122 1688 -122 
Q 997 -122 590 345 
Q 184 813 184 1600 
Q 184 2444 612 2944 
Q 1041 3444 1763 3444 
z
M 1744 3428 
L 1744 3428 
z
" transform="scale(0.015625)"/>
       <path id="Helvetica-72" d="M 428 3347 
L 963 3347 
L 963 2769 
Q 1028 2938 1284 3180 
Q 1541 3422 1875 3422 
Q 1891 3422 1928 3419 
Q 1966 3416 2056 3406 
L 2056 2813 
Q 2006 2822 1964 2825 
Q 1922 2828 1872 2828 
Q 1447 2828 1219 2554 
Q 991 2281 991 1925 
L 991 0 
L 428 0 
L 428 3347 
z
" transform="scale(0.015625)"/>
       <path id="Helvetica-6d" d="M 413 3347 
L 969 3347 
L 969 2872 
Q 1169 3119 1331 3231 
Q 1609 3422 1963 3422 
Q 2363 3422 2606 3225 
Q 2744 3113 2856 2894 
Q 3044 3163 3297 3292 
Q 3550 3422 3866 3422 
Q 4541 3422 4784 2934 
Q 4916 2672 4916 2228 
L 4916 0 
L 4331 0 
L 4331 2325 
Q 4331 2659 4164 2784 
Q 3997 2909 3756 2909 
Q 3425 2909 3186 2687 
Q 2947 2466 2947 1947 
L 2947 0 
L 2375 0 
L 2375 2184 
Q 2375 2525 2294 2681 
Q 2166 2916 1816 2916 
Q 1497 2916 1236 2669 
Q 975 2422 975 1775 
L 975 0 
L 413 0 
L 413 3347 
z
" transform="scale(0.015625)"/>
       <path id="Helvetica-61" d="M 844 891 
Q 844 647 1022 506 
Q 1200 366 1444 366 
Q 1741 366 2019 503 
Q 2488 731 2488 1250 
L 2488 1703 
Q 2384 1638 2221 1594 
Q 2059 1550 1903 1531 
L 1563 1488 
Q 1256 1447 1103 1359 
Q 844 1213 844 891 
z
M 2206 2028 
Q 2400 2053 2466 2191 
Q 2503 2266 2503 2406 
Q 2503 2694 2298 2823 
Q 2094 2953 1713 2953 
Q 1272 2953 1088 2716 
Q 984 2584 953 2325 
L 428 2325 
Q 444 2944 830 3186 
Q 1216 3428 1725 3428 
Q 2316 3428 2684 3203 
Q 3050 2978 3050 2503 
L 3050 575 
Q 3050 488 3086 434 
Q 3122 381 3238 381 
Q 3275 381 3322 386 
Q 3369 391 3422 400 
L 3422 -16 
Q 3291 -53 3222 -62 
Q 3153 -72 3034 -72 
Q 2744 -72 2613 134 
Q 2544 244 2516 444 
Q 2344 219 2022 53 
Q 1700 -113 1313 -113 
Q 847 -113 551 170 
Q 256 453 256 878 
Q 256 1344 547 1600 
Q 838 1856 1309 1916 
L 2206 2028 
z
M 1741 3428 
L 1741 3428 
z
" transform="scale(0.015625)"/>
       <path id="Helvetica-74" d="M 525 4281 
L 1094 4281 
L 1094 3347 
L 1628 3347 
L 1628 2888 
L 1094 2888 
L 1094 703 
Q 1094 528 1213 469 
Q 1278 434 1431 434 
Q 1472 434 1519 436 
Q 1566 438 1628 444 
L 1628 0 
Q 1531 -28 1426 -40 
Q 1322 -53 1200 -53 
Q 806 -53 665 148 
Q 525 350 525 672 
L 525 2888 
L 72 2888 
L 72 3347 
L 525 3347 
L 525 4281 
z
" transform="scale(0.015625)"/>
       <path id="Helvetica-69" d="M 413 3331 
L 984 3331 
L 984 0 
L 413 0 
L 413 3331 
z
M 413 4591 
L 984 4591 
L 984 3953 
L 413 3953 
L 413 4591 
z
" transform="scale(0.015625)"/>
       <path id="Helvetica-20" transform="scale(0.015625)"/>
       <path id="Helvetica-43" d="M 2422 4716 
Q 3294 4716 3775 4256 
Q 4256 3797 4309 3213 
L 3703 3213 
Q 3600 3656 3292 3915 
Q 2984 4175 2428 4175 
Q 1750 4175 1333 3698 
Q 916 3222 916 2238 
Q 916 1431 1292 929 
Q 1669 428 2416 428 
Q 3103 428 3463 956 
Q 3653 1234 3747 1688 
L 4353 1688 
Q 4272 963 3816 472 
Q 3269 -119 2341 -119 
Q 1541 -119 997 366 
Q 281 1006 281 2344 
Q 281 3359 819 4009 
Q 1400 4716 2422 4716 
z
M 2297 4716 
L 2297 4716 
z
" transform="scale(0.015625)"/>
       <path id="Helvetica-70" d="M 1825 378 
Q 2219 378 2480 708 
Q 2741 1038 2741 1694 
Q 2741 2094 2625 2381 
Q 2406 2934 1825 2934 
Q 1241 2934 1025 2350 
Q 909 2038 909 1556 
Q 909 1169 1025 897 
Q 1244 378 1825 378 
z
M 369 3331 
L 916 3331 
L 916 2888 
Q 1084 3116 1284 3241 
Q 1569 3428 1953 3428 
Q 2522 3428 2919 2992 
Q 3316 2556 3316 1747 
Q 3316 653 2744 184 
Q 2381 -113 1900 -113 
Q 1522 -113 1266 53 
Q 1116 147 931 375 
L 931 -1334 
L 369 -1334 
L 369 3331 
z
" transform="scale(0.015625)"/>
       <path id="Helvetica-75" d="M 975 3347 
L 975 1125 
Q 975 869 1056 706 
Q 1206 406 1616 406 
Q 2203 406 2416 931 
Q 2531 1213 2531 1703 
L 2531 3347 
L 3094 3347 
L 3094 0 
L 2563 0 
L 2569 494 
Q 2459 303 2297 172 
Q 1975 -91 1516 -91 
Q 800 -91 541 388 
Q 400 644 400 1072 
L 400 3347 
L 975 3347 
z
M 1747 3428 
L 1747 3428 
z
" transform="scale(0.015625)"/>
       <path id="Helvetica-65" d="M 1806 3422 
Q 2163 3422 2497 3255 
Q 2831 3088 3006 2822 
Q 3175 2569 3231 2231 
Q 3281 2000 3281 1494 
L 828 1494 
Q 844 984 1069 676 
Q 1294 369 1766 369 
Q 2206 369 2469 659 
Q 2619 828 2681 1050 
L 3234 1050 
Q 3213 866 3089 639 
Q 2966 413 2813 269 
Q 2556 19 2178 -69 
Q 1975 -119 1719 -119 
Q 1094 -119 659 336 
Q 225 791 225 1609 
Q 225 2416 662 2919 
Q 1100 3422 1806 3422 
z
M 2703 1941 
Q 2669 2306 2544 2525 
Q 2313 2931 1772 2931 
Q 1384 2931 1121 2651 
Q 859 2372 844 1941 
L 2703 1941 
z
M 1753 3428 
L 1753 3428 
z
" transform="scale(0.015625)"/>
       <path id="Helvetica-64" d="M 769 1634 
Q 769 1097 997 734 
Q 1225 372 1728 372 
Q 2119 372 2370 708 
Q 2622 1044 2622 1672 
Q 2622 2306 2362 2611 
Q 2103 2916 1722 2916 
Q 1297 2916 1033 2591 
Q 769 2266 769 1634 
z
M 1616 3406 
Q 2000 3406 2259 3244 
Q 2409 3150 2600 2916 
L 2600 4606 
L 3141 4606 
L 3141 0 
L 2634 0 
L 2634 466 
Q 2438 156 2169 18 
Q 1900 -119 1553 -119 
Q 994 -119 584 351 
Q 175 822 175 1603 
Q 175 2334 548 2870 
Q 922 3406 1616 3406 
z
" transform="scale(0.015625)"/>
      </defs>
      <use xlink:href="#Helvetica-49"/>
      <use xlink:href="#Helvetica-6e" x="27.783203"/>
      <use xlink:href="#Helvetica-66" x="83.398438"/>
      <use xlink:href="#Helvetica-6f" x="111.181641"/>
      <use xlink:href="#Helvetica-72" x="166.796875"/>
      <use xlink:href="#Helvetica-6d" x="200.097656"/>
      <use xlink:href="#Helvetica-61" x="283.398438"/>
      <use xlink:href="#Helvetica-74" x="339.013672"/>
      <use xlink:href="#Helvetica-69" x="366.796875"/>
      <use xlink:href="#Helvetica-6f" x="389.013672"/>
      <use xlink:href="#Helvetica-6e" x="444.628906"/>
      <use xlink:href="#Helvetica-20" x="500.244141"/>
      <use xlink:href="#Helvetica-43" x="528.027344"/>
      <use xlink:href="#Helvetica-61" x="600.244141"/>
      <use xlink:href="#Helvetica-70" x="655.859375"/>
      <use xlink:href="#Helvetica-74" x="711.474609"/>
      <use xlink:href="#Helvetica-75" x="739.257812"/>
      <use xlink:href="#Helvetica-72" x="794.873047"/>
      <use xlink:href="#Helvetica-65" x="828.173828"/>
      <use xlink:href="#Helvetica-64" x="883.789062"/>
     </g>
    </g>
   </g>
   <g id="matplotlib.axis_2">
    <g id="ytick_1">
     <g id="line2d_7">
      <path d="M 81.4985 496.350627 
L 974.2985 496.350627 
" clip-path="url(#p8da6b62dbf)" style="fill: none; stroke-dasharray: 3.7,1.6; stroke-dashoffset: 0; stroke: #cccccc; stroke-opacity: 0.3"/>
     </g>
     <g id="text_8">
      <!-- 0.0 -->
      <g style="fill: #262626" transform="translate(51.7585 502.089377) scale(0.16 -0.16)">
       <defs>
        <path id="Helvetica-2e" d="M 547 681 
L 1200 681 
L 1200 0 
L 547 0 
L 547 681 
z
" transform="scale(0.015625)"/>
       </defs>
       <use xlink:href="#Helvetica-30"/>
       <use xlink:href="#Helvetica-2e" x="55.615234"/>
       <use xlink:href="#Helvetica-30" x="83.398438"/>
      </g>
     </g>
    </g>
    <g id="ytick_2">
     <g id="line2d_8">
      <path d="M 81.4985 407.125877 
L 974.2985 407.125877 
" clip-path="url(#p8da6b62dbf)" style="fill: none; stroke-dasharray: 3.7,1.6; stroke-dashoffset: 0; stroke: #cccccc; stroke-opacity: 0.3"/>
     </g>
     <g id="text_9">
      <!-- 0.2 -->
      <g style="fill: #262626" transform="translate(51.7585 412.864627) scale(0.16 -0.16)">
       <use xlink:href="#Helvetica-30"/>
       <use xlink:href="#Helvetica-2e" x="55.615234"/>
       <use xlink:href="#Helvetica-32" x="83.398438"/>
      </g>
     </g>
    </g>
    <g id="ytick_3">
     <g id="line2d_9">
      <path d="M 81.4985 317.901126 
L 974.2985 317.901126 
" clip-path="url(#p8da6b62dbf)" style="fill: none; stroke-dasharray: 3.7,1.6; stroke-dashoffset: 0; stroke: #cccccc; stroke-opacity: 0.3"/>
     </g>
     <g id="text_10">
      <!-- 0.4 -->
      <g style="fill: #262626" transform="translate(51.7585 323.639876) scale(0.16 -0.16)">
       <use xlink:href="#Helvetica-30"/>
       <use xlink:href="#Helvetica-2e" x="55.615234"/>
       <use xlink:href="#Helvetica-34" x="83.398438"/>
      </g>
     </g>
    </g>
    <g id="ytick_4">
     <g id="line2d_10">
      <path d="M 81.4985 228.676376 
L 974.2985 228.676376 
" clip-path="url(#p8da6b62dbf)" style="fill: none; stroke-dasharray: 3.7,1.6; stroke-dashoffset: 0; stroke: #cccccc; stroke-opacity: 0.3"/>
     </g>
     <g id="text_11">
      <!-- 0.6 -->
      <g style="fill: #262626" transform="translate(51.7585 234.415126) scale(0.16 -0.16)">
       <use xlink:href="#Helvetica-30"/>
       <use xlink:href="#Helvetica-2e" x="55.615234"/>
       <use xlink:href="#Helvetica-36" x="83.398438"/>
      </g>
     </g>
    </g>
    <g id="ytick_5">
     <g id="line2d_11">
      <path d="M 81.4985 139.451625 
L 974.2985 139.451625 
" clip-path="url(#p8da6b62dbf)" style="fill: none; stroke-dasharray: 3.7,1.6; stroke-dashoffset: 0; stroke: #cccccc; stroke-opacity: 0.3"/>
     </g>
     <g id="text_12">
      <!-- 0.8 -->
      <g style="fill: #262626" transform="translate(51.7585 145.190375) scale(0.16 -0.16)">
       <use xlink:href="#Helvetica-30"/>
       <use xlink:href="#Helvetica-2e" x="55.615234"/>
       <use xlink:href="#Helvetica-38" x="83.398438"/>
      </g>
     </g>
    </g>
    <g id="ytick_6">
     <g id="line2d_12">
      <path d="M 81.4985 50.226875 
L 974.2985 50.226875 
" clip-path="url(#p8da6b62dbf)" style="fill: none; stroke-dasharray: 3.7,1.6; stroke-dashoffset: 0; stroke: #cccccc; stroke-opacity: 0.3"/>
     </g>
     <g id="text_13">
      <!-- 1.0 -->
      <g style="fill: #262626" transform="translate(51.7585 55.965625) scale(0.16 -0.16)">
       <use xlink:href="#Helvetica-31"/>
       <use xlink:href="#Helvetica-2e" x="55.615234"/>
       <use xlink:href="#Helvetica-30" x="83.398438"/>
      </g>
     </g>
    </g>
    <g id="text_14">
     <!-- Predictability of Outcome -->
     <g style="fill: #262626" transform="translate(20.46375 377.063281) rotate(-90) scale(0.18 -0.18)">
      <defs>
       <path id="Helvetica-50" d="M 547 4591 
L 2613 4591 
Q 3225 4591 3600 4245 
Q 3975 3900 3975 3275 
Q 3975 2738 3640 2339 
Q 3306 1941 2613 1941 
L 1169 1941 
L 1169 0 
L 547 0 
L 547 4591 
z
M 3347 3272 
Q 3347 3778 2972 3959 
Q 2766 4056 2406 4056 
L 1169 4056 
L 1169 2466 
L 2406 2466 
Q 2825 2466 3086 2644 
Q 3347 2822 3347 3272 
z
" transform="scale(0.015625)"/>
       <path id="Helvetica-63" d="M 1703 3444 
Q 2269 3444 2623 3169 
Q 2978 2894 3050 2222 
L 2503 2222 
Q 2453 2531 2275 2736 
Q 2097 2941 1703 2941 
Q 1166 2941 934 2416 
Q 784 2075 784 1575 
Q 784 1072 996 728 
Q 1209 384 1666 384 
Q 2016 384 2220 598 
Q 2425 813 2503 1184 
L 3050 1184 
Q 2956 519 2581 211 
Q 2206 -97 1622 -97 
Q 966 -97 575 383 
Q 184 863 184 1581 
Q 184 2463 612 2953 
Q 1041 3444 1703 3444 
z
M 1616 3428 
L 1616 3428 
z
" transform="scale(0.015625)"/>
       <path id="Helvetica-62" d="M 369 4606 
L 916 4606 
L 916 2941 
Q 1100 3181 1356 3307 
Q 1613 3434 1913 3434 
Q 2538 3434 2927 3004 
Q 3316 2575 3316 1738 
Q 3316 944 2931 419 
Q 2547 -106 1866 -106 
Q 1484 -106 1222 78 
Q 1066 188 888 428 
L 888 0 
L 369 0 
L 369 4606 
z
M 1831 391 
Q 2288 391 2514 753 
Q 2741 1116 2741 1709 
Q 2741 2238 2514 2584 
Q 2288 2931 1847 2931 
Q 1463 2931 1173 2647 
Q 884 2363 884 1709 
Q 884 1238 1003 944 
Q 1225 391 1831 391 
z
" transform="scale(0.015625)"/>
       <path id="Helvetica-6c" d="M 428 4591 
L 991 4591 
L 991 0 
L 428 0 
L 428 4591 
z
" transform="scale(0.015625)"/>
       <path id="Helvetica-79" d="M 2503 3347 
L 3125 3347 
Q 3006 3025 2597 1878 
Q 2291 1016 2084 472 
Q 1597 -809 1397 -1090 
Q 1197 -1372 709 -1372 
Q 591 -1372 527 -1362 
Q 463 -1353 369 -1328 
L 369 -816 
Q 516 -856 581 -865 
Q 647 -875 697 -875 
Q 853 -875 926 -823 
Q 1000 -772 1050 -697 
Q 1066 -672 1162 -440 
Q 1259 -209 1303 -97 
L 66 3347 
L 703 3347 
L 1600 622 
L 2503 3347 
z
M 1597 3428 
L 1597 3428 
z
" transform="scale(0.015625)"/>
       <path id="Helvetica-4f" d="M 2469 4716 
Q 3684 4716 4269 3934 
Q 4725 3325 4725 2375 
Q 4725 1347 4203 666 
Q 3591 -134 2456 -134 
Q 1397 -134 791 566 
Q 250 1241 250 2272 
Q 250 3203 713 3866 
Q 1306 4716 2469 4716 
z
M 2531 422 
Q 3353 422 3720 1011 
Q 4088 1600 4088 2366 
Q 4088 3175 3664 3669 
Q 3241 4163 2506 4163 
Q 1794 4163 1344 3673 
Q 894 3184 894 2231 
Q 894 1469 1280 945 
Q 1666 422 2531 422 
z
M 2488 4716 
L 2488 4716 
z
" transform="scale(0.015625)"/>
      </defs>
      <use xlink:href="#Helvetica-50"/>
      <use xlink:href="#Helvetica-72" x="66.699219"/>
      <use xlink:href="#Helvetica-65" x="100"/>
      <use xlink:href="#Helvetica-64" x="155.615234"/>
      <use xlink:href="#Helvetica-69" x="211.230469"/>
      <use xlink:href="#Helvetica-63" x="233.447266"/>
      <use xlink:href="#Helvetica-74" x="283.447266"/>
      <use xlink:href="#Helvetica-61" x="311.230469"/>
      <use xlink:href="#Helvetica-62" x="366.845703"/>
      <use xlink:href="#Helvetica-69" x="422.460938"/>
      <use xlink:href="#Helvetica-6c" x="444.677734"/>
      <use xlink:href="#Helvetica-69" x="466.894531"/>
      <use xlink:href="#Helvetica-74" x="489.111328"/>
      <use xlink:href="#Helvetica-79" x="516.894531"/>
      <use xlink:href="#Helvetica-20" x="566.894531"/>
      <use xlink:href="#Helvetica-6f" x="594.677734"/>
      <use xlink:href="#Helvetica-66" x="650.292969"/>
      <use xlink:href="#Helvetica-20" x="678.076172"/>
      <use xlink:href="#Helvetica-4f" x="705.859375"/>
      <use xlink:href="#Helvetica-75" x="783.642578"/>
      <use xlink:href="#Helvetica-74" x="839.257812"/>
      <use xlink:href="#Helvetica-63" x="867.041016"/>
      <use xlink:href="#Helvetica-6f" x="917.041016"/>
      <use xlink:href="#Helvetica-6d" x="972.65625"/>
      <use xlink:href="#Helvetica-65" x="1055.957031"/>
     </g>
     <!--      (Pseudo $\mathrm{R}^2$)     -->
     <g style="fill: #262626" transform="translate(43.9785 349.206875) rotate(-90) scale(0.18 -0.18)">
      <defs>
       <path id="Helvetica-28" d="M 1894 4666 
Q 1403 3713 1256 3263 
Q 1034 2578 1034 1681 
Q 1034 775 1288 25 
Q 1444 -438 1903 -1306 
L 1525 -1306 
Q 1069 -594 959 -397 
Q 850 -200 722 138 
Q 547 600 478 1125 
Q 444 1397 444 1644 
Q 444 2569 734 3291 
Q 919 3750 1503 4666 
L 1894 4666 
z
" transform="scale(0.015625)"/>
       <path id="Helvetica-73" d="M 747 1050 
Q 772 769 888 619 
Q 1100 347 1625 347 
Q 1938 347 2175 483 
Q 2413 619 2413 903 
Q 2413 1119 2222 1231 
Q 2100 1300 1741 1391 
L 1294 1503 
Q 866 1609 663 1741 
Q 300 1969 300 2372 
Q 300 2847 642 3140 
Q 984 3434 1563 3434 
Q 2319 3434 2653 2991 
Q 2863 2709 2856 2384 
L 2325 2384 
Q 2309 2575 2191 2731 
Q 1997 2953 1519 2953 
Q 1200 2953 1036 2831 
Q 872 2709 872 2509 
Q 872 2291 1088 2159 
Q 1213 2081 1456 2022 
L 1828 1931 
Q 2434 1784 2641 1647 
Q 2969 1431 2969 969 
Q 2969 522 2630 197 
Q 2291 -128 1597 -128 
Q 850 -128 539 211 
Q 228 550 206 1050 
L 747 1050 
z
M 1578 3428 
L 1578 3428 
z
" transform="scale(0.015625)"/>
       <path id="DejaVuSans-52" d="M 2841 2188 
Q 3044 2119 3236 1894 
Q 3428 1669 3622 1275 
L 4263 0 
L 3584 0 
L 2988 1197 
Q 2756 1666 2539 1819 
Q 2322 1972 1947 1972 
L 1259 1972 
L 1259 0 
L 628 0 
L 628 4666 
L 2053 4666 
Q 2853 4666 3247 4331 
Q 3641 3997 3641 3322 
Q 3641 2881 3436 2590 
Q 3231 2300 2841 2188 
z
M 1259 4147 
L 1259 2491 
L 2053 2491 
Q 2509 2491 2742 2702 
Q 2975 2913 2975 3322 
Q 2975 3731 2742 3939 
Q 2509 4147 2053 4147 
L 1259 4147 
z
" transform="scale(0.015625)"/>
       <path id="DejaVuSans-32" d="M 1228 531 
L 3431 531 
L 3431 0 
L 469 0 
L 469 531 
Q 828 903 1448 1529 
Q 2069 2156 2228 2338 
Q 2531 2678 2651 2914 
Q 2772 3150 2772 3378 
Q 2772 3750 2511 3984 
Q 2250 4219 1831 4219 
Q 1534 4219 1204 4116 
Q 875 4013 500 3803 
L 500 4441 
Q 881 4594 1212 4672 
Q 1544 4750 1819 4750 
Q 2544 4750 2975 4387 
Q 3406 4025 3406 3419 
Q 3406 3131 3298 2873 
Q 3191 2616 2906 2266 
Q 2828 2175 2409 1742 
Q 1991 1309 1228 531 
z
" transform="scale(0.015625)"/>
       <path id="Helvetica-29" d="M 222 -1306 
Q 719 -338 863 106 
Q 1081 778 1081 1681 
Q 1081 2584 828 3334 
Q 672 3797 213 4666 
L 591 4666 
Q 1072 3897 1173 3717 
Q 1275 3538 1394 3222 
Q 1544 2831 1608 2450 
Q 1672 2069 1672 1716 
Q 1672 791 1378 66 
Q 1194 -400 613 -1306 
L 222 -1306 
z
" transform="scale(0.015625)"/>
      </defs>
      <use xlink:href="#Helvetica-20" transform="translate(0 0.765625)"/>
      <use xlink:href="#Helvetica-20" transform="translate(27.783203 0.765625)"/>
      <use xlink:href="#Helvetica-20" transform="translate(55.566406 0.765625)"/>
      <use xlink:href="#Helvetica-20" transform="translate(83.349609 0.765625)"/>
      <use xlink:href="#Helvetica-20" transform="translate(111.132812 0.765625)"/>
      <use xlink:href="#Helvetica-28" transform="translate(138.916016 0.765625)"/>
      <use xlink:href="#Helvetica-50" transform="translate(172.216797 0.765625)"/>
      <use xlink:href="#Helvetica-73" transform="translate(238.916016 0.765625)"/>
      <use xlink:href="#Helvetica-65" transform="translate(288.916016 0.765625)"/>
      <use xlink:href="#Helvetica-75" transform="translate(344.53125 0.765625)"/>
      <use xlink:href="#Helvetica-64" transform="translate(400.146484 0.765625)"/>
      <use xlink:href="#Helvetica-6f" transform="translate(455.761719 0.765625)"/>
      <use xlink:href="#Helvetica-20" transform="translate(511.376953 0.765625)"/>
      <use xlink:href="#DejaVuSans-52" transform="translate(539.160156 0.765625)"/>
      <use xlink:href="#DejaVuSans-32" transform="translate(609.599609 39.046875) scale(0.7)"/>
      <use xlink:href="#Helvetica-29" transform="translate(656.870117 0.765625)"/>
      <use xlink:href="#Helvetica-20" transform="translate(690.170898 0.765625)"/>
      <use xlink:href="#Helvetica-20" transform="translate(717.954102 0.765625)"/>
      <use xlink:href="#Helvetica-20" transform="translate(745.737305 0.765625)"/>
      <use xlink:href="#Helvetica-20" transform="translate(773.520508 0.765625)"/>
     </g>
    </g>
   </g>
   <g id="line2d_13">
    <path d="M 81.4985 503.826875 
L 93.222136 487.474278 
L 104.945773 471.684512 
L 116.669409 456.445479 
L 128.393045 441.745195 
L 140.116682 427.571791 
L 151.840318 413.913517 
L 163.563955 400.758736 
L 175.287591 388.095929 
L 187.011227 375.913692 
L 198.734864 364.200736 
L 210.4585 352.94589 
L 222.182136 342.138098 
L 233.905773 331.766419 
L 245.629409 321.82003 
L 257.353045 312.288223 
L 269.076682 303.160404 
L 280.800318 294.426098 
L 292.523955 286.074944 
L 304.247591 278.096698 
L 315.971227 270.481231 
L 327.694864 263.218532 
L 339.4185 256.298702 
L 351.142136 249.711963 
L 362.865773 243.448648 
L 374.589409 237.49921 
L 386.313045 231.854215 
L 398.036682 226.504347 
L 409.760318 221.440405 
L 421.483955 216.653303 
L 433.207591 212.134073 
L 444.931227 207.873862 
L 456.654864 203.863933 
L 468.3785 200.095664 
L 480.102136 196.560551 
L 491.825773 193.250203 
L 503.549409 190.156348 
L 515.273045 187.270829 
L 526.996682 184.585604 
L 538.720318 182.092747 
L 550.443955 179.784449 
L 562.167591 177.653017 
L 573.891227 175.690872 
L 585.614864 173.890554 
L 597.3385 172.244716 
L 609.062136 170.746128 
L 620.785773 169.387677 
L 632.509409 168.162365 
L 644.233045 167.06331 
L 655.956682 166.083746 
L 667.680318 165.217023 
L 679.403955 164.456607 
L 691.127591 163.796079 
L 702.851227 163.229138 
L 714.574864 162.749597 
L 726.2985 162.351386 
L 738.022136 162.028551 
L 749.745773 161.775252 
L 761.469409 161.585769 
L 773.193045 161.454493 
L 784.916682 161.375935 
L 796.640318 161.34472 
L 808.363955 161.355589 
L 820.087591 161.4034 
L 831.811227 161.483126 
L 843.534864 161.589855 
L 855.2585 161.718794 
L 866.982136 161.865263 
L 878.705773 162.024699 
L 890.429409 162.192655 
L 902.153045 162.3648 
L 913.876682 162.536919 
L 925.600318 162.704912 
L 937.323955 162.864797 
L 949.047591 163.012706 
L 960.771227 163.144888 
L 972.494864 163.257708 
" clip-path="url(#p8da6b62dbf)" style="fill: none; stroke: #001c54; stroke-width: 1.5; stroke-linecap: round"/>
   </g>
   <g id="line2d_14">
    <path d="M 81.4985 501.584003 
L 93.222136 490.137185 
L 104.945773 479.084348 
L 116.669409 468.417024 
L 128.393045 458.126825 
L 140.116682 448.205442 
L 151.840318 438.64465 
L 163.563955 429.436303 
L 175.287591 420.572337 
L 187.011227 412.044771 
L 198.734864 403.845702 
L 210.4585 395.96731 
L 222.182136 388.401855 
L 233.905773 381.14168 
L 245.629409 374.179208 
L 257.353045 367.506942 
L 269.076682 361.117469 
L 280.800318 355.003455 
L 292.523955 349.157647 
L 304.247591 343.572875 
L 315.971227 338.242049 
L 327.694864 333.158159 
L 339.4185 328.314279 
L 351.142136 323.703561 
L 362.865773 319.319241 
L 374.589409 315.154634 
L 386.313045 311.203138 
L 398.036682 307.458231 
L 409.760318 303.913471 
L 421.483955 300.5625 
L 433.207591 297.399039 
L 444.931227 294.416892 
L 456.654864 291.609942 
L 468.3785 288.972154 
L 480.102136 286.497574 
L 491.825773 284.180331 
L 503.549409 282.014633 
L 515.273045 279.99477 
L 526.996682 278.115112 
L 538.720318 276.370112 
L 550.443955 274.754304 
L 562.167591 273.262301 
L 573.891227 271.8888 
L 585.614864 270.628577 
L 597.3385 269.476491 
L 609.062136 268.427479 
L 620.785773 267.476564 
L 632.509409 266.618846 
L 644.233045 265.849507 
L 655.956682 265.163812 
L 667.680318 264.557106 
L 679.403955 264.024815 
L 691.127591 263.562445 
L 702.851227 263.165586 
L 714.574864 262.829907 
L 726.2985 262.55116 
L 738.022136 262.325175 
L 749.745773 262.147866 
L 761.469409 262.015227 
L 773.193045 261.923334 
L 784.916682 261.868343 
L 796.640318 261.846492 
L 808.363955 261.854101 
L 820.087591 261.887568 
L 831.811227 261.943376 
L 843.534864 262.018086 
L 855.2585 262.108343 
L 866.982136 262.210871 
L 878.705773 262.322476 
L 890.429409 262.440045 
L 902.153045 262.560546 
L 913.876682 262.68103 
L 925.600318 262.798625 
L 937.323955 262.910544 
L 949.047591 263.014081 
L 960.771227 263.106608 
L 972.494864 263.185581 
" clip-path="url(#p8da6b62dbf)" style="fill: none; stroke-dasharray: 5.55,2.4; stroke-dashoffset: 0; stroke: #001c54; stroke-width: 1.5"/>
   </g>
   <g id="patch_3">
    <path d="M 153.495752 365.024382 
Q 233.906684 310.371073 312.468272 256.974717 
" clip-path="url(#p8da6b62dbf)" style="fill: none; stroke: #e89818; stroke-width: 2; stroke-linecap: round"/>
    <path d="M 303.603355 258.163521 
L 312.468272 256.974717 
L 308.100365 264.779933 
" clip-path="url(#p8da6b62dbf)" style="fill: none; stroke: #e89818; stroke-width: 2; stroke-linecap: round"/>
   </g>
   <g id="patch_4">
    <path d="M 314.315793 255.719002 
Q 233.904862 310.372312 155.343274 363.768668 
" clip-path="url(#p8da6b62dbf)" style="fill: none; stroke: #e89818; stroke-width: 2; stroke-linecap: round"/>
    <path d="M 164.20819 362.579864 
L 155.343274 363.768668 
L 159.71118 355.963452 
" clip-path="url(#p8da6b62dbf)" style="fill: none; stroke: #e89818; stroke-width: 2; stroke-linecap: round"/>
   </g>
   <g id="PathCollection_1">
    <defs>
     <path id="mad54e0f8a8" d="M 0 7.905694 
C 2.096615 7.905694 4.10764 7.0727 5.59017 5.59017 
C 7.0727 4.10764 7.905694 2.096615 7.905694 0 
C 7.905694 -2.096615 7.0727 -4.10764 5.59017 -5.59017 
C 4.10764 -7.0727 2.096615 -7.905694 0 -7.905694 
C -2.096615 -7.905694 -4.10764 -7.0727 -5.59017 -5.59017 
C -7.0727 -4.10764 -7.905694 -2.096615 -7.905694 0 
C -7.905694 2.096615 -7.0727 4.10764 -5.59017 5.59017 
C -4.10764 7.0727 -2.096615 7.905694 0 7.905694 
z
" style="stroke: #c44e52"/>
    </defs>
    <g clip-path="url(#p8da6b62dbf)">
     <use xlink:href="#mad54e0f8a8" x="245.629409" y="321.82003" style="fill: #ffffff; stroke: #c44e52"/>
    </g>
   </g>
   <g id="PathCollection_2">
    <g clip-path="url(#p8da6b62dbf)">
     <use xlink:href="#mad54e0f8a8" x="491.825773" y="193.250203" style="fill: #ffffff; stroke: #c44e52"/>
    </g>
   </g>
   <g id="PathCollection_3">
    <g clip-path="url(#p8da6b62dbf)">
     <use xlink:href="#mad54e0f8a8" x="843.534864" y="161.589855" style="fill: #ffffff; stroke: #c44e52"/>
    </g>
   </g>
   <g id="PathCollection_4">
    <g clip-path="url(#p8da6b62dbf)">
     <use xlink:href="#mad54e0f8a8" x="245.629409" y="374.179208" style="fill: #ffffff; stroke: #c44e52"/>
    </g>
   </g>
   <g id="PathCollection_5">
    <g clip-path="url(#p8da6b62dbf)">
     <use xlink:href="#mad54e0f8a8" x="491.825773" y="284.180331" style="fill: #ffffff; stroke: #c44e52"/>
    </g>
   </g>
   <g id="PathCollection_6">
    <g clip-path="url(#p8da6b62dbf)">
     <use xlink:href="#mad54e0f8a8" x="843.534864" y="262.018086" style="fill: #ffffff; stroke: #c44e52"/>
    </g>
   </g>
   <g id="line2d_15">
    <path d="M 81.4985 50.226875 
L 974.2985 50.226875 
" clip-path="url(#p8da6b62dbf)" style="fill: none; stroke-dasharray: 5.55,2.4; stroke-dashoffset: 0; stroke: #e4003b; stroke-width: 1.5"/>
   </g>
   <g id="line2d_16">
    <path d="M 850.677763 50.226875 
L 856.016262 54.873997 
L 859.366979 59.52112 
L 860.900251 64.168242 
L 861.502361 68.815365 
L 861.731512 73.462487 
L 861.837763 78.10961 
L 861.944013 82.756732 
L 862.173164 87.403854 
L 862.775275 92.050977 
L 864.308547 96.698099 
L 867.659263 101.345222 
L 872.997763 105.992344 
L 867.659263 110.639466 
L 864.308547 115.286589 
L 862.775275 119.933711 
L 862.173164 124.580834 
L 861.944013 129.227956 
L 861.837763 133.875079 
L 861.731512 138.522201 
L 861.502361 143.169323 
L 860.900251 147.816446 
L 859.366979 152.463568 
L 856.016262 157.110691 
L 850.677763 161.757813 
" style="fill: none; stroke: #000000; stroke-linecap: round"/>
   </g>
   <g id="line2d_17">
    <path d="M 850.679006 161.757813 
L 855.936097 166.320442 
L 859.285265 170.883072 
L 860.853343 175.445701 
L 861.489202 180.00833 
L 861.753738 184.570959 
L 861.924273 189.133589 
L 862.188809 193.696218 
L 862.824668 198.258847 
L 864.392746 202.821477 
L 867.741914 207.384106 
L 872.999006 211.946735 
L 867.741914 216.509364 
L 864.392746 221.071994 
L 862.824668 225.634623 
L 862.188809 230.197252 
L 861.924273 234.759882 
L 861.753738 239.322511 
L 861.489202 243.88514 
L 860.853343 248.447769 
L 859.285265 253.010399 
L 855.936097 257.573028 
L 850.679006 262.135657 
" style="fill: none; stroke: #000000; stroke-linecap: round"/>
   </g>
   <g id="line2d_18">
    <path d="M 254.151591 374.179208 
L 497.507227 374.179208 
" clip-path="url(#p8da6b62dbf)" style="fill: none; stroke-dasharray: 3.7,1.6; stroke-dashoffset: 0; stroke: #1a1a1a"/>
   </g>
   <g id="line2d_19">
    <path d="M 499.876305 292.650092 
L 505.075669 297.148506 
L 508.433094 301.646921 
L 510.054964 306.145335 
L 510.791056 310.64375 
L 511.281554 315.142164 
L 512.017646 319.640579 
L 513.639516 324.138993 
L 516.99694 328.637408 
L 522.196305 333.135822 
L 516.99694 337.634237 
L 513.639516 342.132651 
L 512.017646 346.631066 
L 511.281554 351.12948 
L 510.791056 355.627895 
L 510.054964 360.126309 
L 508.433094 364.624724 
L 505.075669 369.123138 
L 499.876305 373.621553 
" style="fill: none; stroke: #000000; stroke-linecap: round"/>
   </g>
   <g id="patch_5">
    <path d="M 81.4985 526.506875 
L 81.4985 27.546875 
" style="fill: none; stroke: #cccccc; stroke-width: 1.25; stroke-linejoin: miter; stroke-linecap: square"/>
   </g>
   <g id="patch_6">
    <path d="M 81.4985 526.506875 
L 974.2985 526.506875 
" style="fill: none; stroke: #cccccc; stroke-width: 1.25; stroke-linejoin: miter; stroke-linecap: square"/>
   </g>
   <g id="patch_7">
    <path d="M 245.629409 449.706423 
Q 245.629409 418.519314 245.629409 388.450239 
" style="fill: none; stroke: #000000; stroke-linecap: round"/>
    <path d="M 241.629409 396.450239 
L 245.629409 388.450239 
L 249.629409 396.450239 
" style="fill: none; stroke: #000000; stroke-linecap: round"/>
   </g>
   <g id="text_15">
    <g id="patch_8">
     <path d="M 152.580659 496.995552 
L 338.678159 496.995552 
Q 342.278159 496.995552 342.278159 493.395552 
L 342.278159 455.801052 
Q 342.278159 452.201052 338.678159 452.201052 
L 152.580659 452.201052 
Q 148.980659 452.201052 148.980659 455.801052 
L 148.980659 493.395552 
Q 148.980659 496.995552 152.580659 496.995552 
z
" style="fill: #ffffff; stroke: #000000; stroke-linejoin: miter"/>
    </g>
    <!-- Study 1: Relatively low information -->
    <g style="fill: #262626" transform="translate(153.925972 464.561052) scale(0.12 -0.12)">
     <defs>
      <path id="Helvetica-53" d="M 894 1481 
Q 916 1091 1078 847 
Q 1388 391 2169 391 
Q 2519 391 2806 491 
Q 3363 684 3363 1184 
Q 3363 1559 3128 1719 
Q 2891 1875 2384 1991 
L 1763 2131 
Q 1153 2269 900 2434 
Q 463 2722 463 3294 
Q 463 3913 891 4309 
Q 1319 4706 2103 4706 
Q 2825 4706 3329 4357 
Q 3834 4009 3834 3244 
L 3250 3244 
Q 3203 3613 3050 3809 
Q 2766 4169 2084 4169 
Q 1534 4169 1293 3937 
Q 1053 3706 1053 3400 
Q 1053 3063 1334 2906 
Q 1519 2806 2169 2656 
L 2813 2509 
Q 3278 2403 3531 2219 
Q 3969 1897 3969 1284 
Q 3969 522 3414 194 
Q 2859 -134 2125 -134 
Q 1269 -134 784 303 
Q 300 738 309 1481 
L 894 1481 
z
M 2150 4716 
L 2150 4716 
z
" transform="scale(0.015625)"/>
      <path id="Helvetica-3a" d="M 709 3303 
L 1363 3303 
L 1363 2622 
L 709 2622 
L 709 3303 
z
M 709 681 
L 1363 681 
L 1363 0 
L 709 0 
L 709 681 
z
" transform="scale(0.015625)"/>
      <path id="Helvetica-52" d="M 2622 2488 
Q 3059 2488 3314 2663 
Q 3569 2838 3569 3294 
Q 3569 3784 3213 3963 
Q 3022 4056 2703 4056 
L 1184 4056 
L 1184 2488 
L 2622 2488 
z
M 563 4591 
L 2688 4591 
Q 3213 4591 3553 4438 
Q 4200 4144 4200 3353 
Q 4200 2941 4029 2678 
Q 3859 2416 3553 2256 
Q 3822 2147 3958 1969 
Q 4094 1791 4109 1391 
L 4131 775 
Q 4141 513 4175 384 
Q 4231 166 4375 103 
L 4375 0 
L 3613 0 
Q 3581 59 3562 153 
Q 3544 247 3531 516 
L 3494 1281 
Q 3472 1731 3159 1884 
Q 2981 1969 2600 1969 
L 1184 1969 
L 1184 0 
L 563 0 
L 563 4591 
z
" transform="scale(0.015625)"/>
      <path id="Helvetica-76" d="M 688 3347 
L 1581 622 
L 2516 3347 
L 3131 3347 
L 1869 0 
L 1269 0 
L 34 3347 
L 688 3347 
z
" transform="scale(0.015625)"/>
      <path id="Helvetica-77" d="M 672 3347 
L 1316 709 
L 1969 3347 
L 2600 3347 
L 3256 725 
L 3941 3347 
L 4503 3347 
L 3531 0 
L 2947 0 
L 2266 2591 
L 1606 0 
L 1022 0 
L 56 3347 
L 672 3347 
z
" transform="scale(0.015625)"/>
     </defs>
     <use xlink:href="#Helvetica-53"/>
     <use xlink:href="#Helvetica-74" x="66.699219"/>
     <use xlink:href="#Helvetica-75" x="94.482422"/>
     <use xlink:href="#Helvetica-64" x="150.097656"/>
     <use xlink:href="#Helvetica-79" x="205.712891"/>
     <use xlink:href="#Helvetica-20" x="255.712891"/>
     <use xlink:href="#Helvetica-31" x="283.496094"/>
     <use xlink:href="#Helvetica-3a" x="339.111328"/>
     <use xlink:href="#Helvetica-20" x="366.894531"/>
     <use xlink:href="#Helvetica-52" x="394.677734"/>
     <use xlink:href="#Helvetica-65" x="466.894531"/>
     <use xlink:href="#Helvetica-6c" x="522.509766"/>
     <use xlink:href="#Helvetica-61" x="544.726562"/>
     <use xlink:href="#Helvetica-74" x="600.341797"/>
     <use xlink:href="#Helvetica-69" x="628.125"/>
     <use xlink:href="#Helvetica-76" x="650.341797"/>
     <use xlink:href="#Helvetica-65" x="700.341797"/>
     <use xlink:href="#Helvetica-6c" x="755.957031"/>
     <use xlink:href="#Helvetica-79" x="778.173828"/>
     <use xlink:href="#Helvetica-20" x="828.173828"/>
     <use xlink:href="#Helvetica-6c" x="855.957031"/>
     <use xlink:href="#Helvetica-6f" x="878.173828"/>
     <use xlink:href="#Helvetica-77" x="933.789062"/>
     <use xlink:href="#Helvetica-20" x="1006.005859"/>
     <use xlink:href="#Helvetica-69" x="1033.789062"/>
     <use xlink:href="#Helvetica-6e" x="1056.005859"/>
     <use xlink:href="#Helvetica-66" x="1111.621094"/>
     <use xlink:href="#Helvetica-6f" x="1139.404297"/>
     <use xlink:href="#Helvetica-72" x="1195.019531"/>
     <use xlink:href="#Helvetica-6d" x="1228.320312"/>
     <use xlink:href="#Helvetica-61" x="1311.621094"/>
     <use xlink:href="#Helvetica-74" x="1367.236328"/>
     <use xlink:href="#Helvetica-69" x="1395.019531"/>
     <use xlink:href="#Helvetica-6f" x="1417.236328"/>
     <use xlink:href="#Helvetica-6e" x="1472.851562"/>
    </g>
    <!-- setting where data not collected for -->
    <g style="fill: #262626" transform="translate(152.580659 477.609552) scale(0.12 -0.12)">
     <defs>
      <path id="Helvetica-67" d="M 1594 3406 
Q 1988 3406 2281 3213 
Q 2441 3103 2606 2894 
L 2606 3316 
L 3125 3316 
L 3125 272 
Q 3125 -366 2938 -734 
Q 2588 -1416 1616 -1416 
Q 1075 -1416 706 -1173 
Q 338 -931 294 -416 
L 866 -416 
Q 906 -641 1028 -763 
Q 1219 -950 1628 -950 
Q 2275 -950 2475 -494 
Q 2594 -225 2584 466 
Q 2416 209 2178 84 
Q 1941 -41 1550 -41 
Q 1006 -41 598 345 
Q 191 731 191 1622 
Q 191 2463 602 2934 
Q 1013 3406 1594 3406 
z
M 2606 1688 
Q 2606 2309 2350 2609 
Q 2094 2909 1697 2909 
Q 1103 2909 884 2353 
Q 769 2056 769 1575 
Q 769 1009 998 714 
Q 1228 419 1616 419 
Q 2222 419 2469 966 
Q 2606 1275 2606 1688 
z
M 1659 3428 
L 1659 3428 
z
" transform="scale(0.015625)"/>
      <path id="Helvetica-68" d="M 413 4606 
L 975 4606 
L 975 2894 
Q 1175 3147 1334 3250 
Q 1606 3428 2013 3428 
Q 2741 3428 3000 2919 
Q 3141 2641 3141 2147 
L 3141 0 
L 2563 0 
L 2563 2109 
Q 2563 2478 2469 2650 
Q 2316 2925 1894 2925 
Q 1544 2925 1259 2684 
Q 975 2444 975 1775 
L 975 0 
L 413 0 
L 413 4606 
z
" transform="scale(0.015625)"/>
     </defs>
     <use xlink:href="#Helvetica-73"/>
     <use xlink:href="#Helvetica-65" x="50"/>
     <use xlink:href="#Helvetica-74" x="105.615234"/>
     <use xlink:href="#Helvetica-74" x="133.398438"/>
     <use xlink:href="#Helvetica-69" x="161.181641"/>
     <use xlink:href="#Helvetica-6e" x="183.398438"/>
     <use xlink:href="#Helvetica-67" x="239.013672"/>
     <use xlink:href="#Helvetica-20" x="294.628906"/>
     <use xlink:href="#Helvetica-77" x="322.412109"/>
     <use xlink:href="#Helvetica-68" x="394.628906"/>
     <use xlink:href="#Helvetica-65" x="450.244141"/>
     <use xlink:href="#Helvetica-72" x="505.859375"/>
     <use xlink:href="#Helvetica-65" x="539.160156"/>
     <use xlink:href="#Helvetica-20" x="594.775391"/>
     <use xlink:href="#Helvetica-64" x="622.558594"/>
     <use xlink:href="#Helvetica-61" x="678.173828"/>
     <use xlink:href="#Helvetica-74" x="733.789062"/>
     <use xlink:href="#Helvetica-61" x="761.572266"/>
     <use xlink:href="#Helvetica-20" x="817.1875"/>
     <use xlink:href="#Helvetica-6e" x="844.970703"/>
     <use xlink:href="#Helvetica-6f" x="900.585938"/>
     <use xlink:href="#Helvetica-74" x="956.201172"/>
     <use xlink:href="#Helvetica-20" x="983.984375"/>
     <use xlink:href="#Helvetica-63" x="1011.767578"/>
     <use xlink:href="#Helvetica-6f" x="1061.767578"/>
     <use xlink:href="#Helvetica-6c" x="1117.382812"/>
     <use xlink:href="#Helvetica-6c" x="1139.599609"/>
     <use xlink:href="#Helvetica-65" x="1161.816406"/>
     <use xlink:href="#Helvetica-63" x="1217.431641"/>
     <use xlink:href="#Helvetica-74" x="1267.431641"/>
     <use xlink:href="#Helvetica-65" x="1295.214844"/>
     <use xlink:href="#Helvetica-64" x="1350.830078"/>
     <use xlink:href="#Helvetica-20" x="1406.445312"/>
     <use xlink:href="#Helvetica-66" x="1434.228516"/>
     <use xlink:href="#Helvetica-6f" x="1462.011719"/>
     <use xlink:href="#Helvetica-72" x="1517.626953"/>
    </g>
    <!-- purpose of predicting outcome. -->
    <g style="fill: #262626" transform="translate(163.253159 490.740552) scale(0.12 -0.12)">
     <use xlink:href="#Helvetica-70"/>
     <use xlink:href="#Helvetica-75" x="55.615234"/>
     <use xlink:href="#Helvetica-72" x="111.230469"/>
     <use xlink:href="#Helvetica-70" x="144.53125"/>
     <use xlink:href="#Helvetica-6f" x="200.146484"/>
     <use xlink:href="#Helvetica-73" x="255.761719"/>
     <use xlink:href="#Helvetica-65" x="305.761719"/>
     <use xlink:href="#Helvetica-20" x="361.376953"/>
     <use xlink:href="#Helvetica-6f" x="389.160156"/>
     <use xlink:href="#Helvetica-66" x="444.775391"/>
     <use xlink:href="#Helvetica-20" x="472.558594"/>
     <use xlink:href="#Helvetica-70" x="500.341797"/>
     <use xlink:href="#Helvetica-72" x="555.957031"/>
     <use xlink:href="#Helvetica-65" x="589.257812"/>
     <use xlink:href="#Helvetica-64" x="644.873047"/>
     <use xlink:href="#Helvetica-69" x="700.488281"/>
     <use xlink:href="#Helvetica-63" x="722.705078"/>
     <use xlink:href="#Helvetica-74" x="772.705078"/>
     <use xlink:href="#Helvetica-69" x="800.488281"/>
     <use xlink:href="#Helvetica-6e" x="822.705078"/>
     <use xlink:href="#Helvetica-67" x="878.320312"/>
     <use xlink:href="#Helvetica-20" x="933.935547"/>
     <use xlink:href="#Helvetica-6f" x="961.71875"/>
     <use xlink:href="#Helvetica-75" x="1017.333984"/>
     <use xlink:href="#Helvetica-74" x="1072.949219"/>
     <use xlink:href="#Helvetica-63" x="1100.732422"/>
     <use xlink:href="#Helvetica-6f" x="1150.732422"/>
     <use xlink:href="#Helvetica-6d" x="1206.347656"/>
     <use xlink:href="#Helvetica-65" x="1289.648438"/>
     <use xlink:href="#Helvetica-2e" x="1345.263672"/>
    </g>
   </g>
   <g id="patch_9">
    <path d="M 538.992541 217.261768 
L 491.825773 217.261768 
L 491.825773 271.021326 
" style="fill: none; stroke: #000000; stroke-linecap: round"/>
    <path d="M 495.825773 263.021326 
L 491.825773 271.021326 
L 487.825773 263.021326 
" style="fill: none; stroke: #000000; stroke-linecap: round"/>
   </g>
   <g id="text_16">
    <g id="patch_10">
     <path d="M 545.098085 239.567143 
L 733.17746 239.567143 
Q 736.77746 239.567143 736.77746 235.967143 
L 736.77746 198.485143 
Q 736.77746 194.885143 733.17746 194.885143 
L 545.098085 194.885143 
Q 541.498085 194.885143 541.498085 198.485143 
L 541.498085 235.967143 
Q 541.498085 239.567143 545.098085 239.567143 
z
" style="fill: #ffffff; stroke: #000000; stroke-linejoin: miter"/>
    </g>
    <!-- Study 2: More information collected -->
    <g style="fill: #262626" transform="translate(545.098085 207.398893) scale(0.12 -0.12)">
     <defs>
      <path id="Helvetica-4d" d="M 472 4591 
L 1363 4591 
L 2681 709 
L 3991 4591 
L 4872 4591 
L 4872 0 
L 4281 0 
L 4281 2709 
Q 4281 2850 4287 3175 
Q 4294 3500 4294 3872 
L 2984 0 
L 2369 0 
L 1050 3872 
L 1050 3731 
Q 1050 3563 1058 3217 
Q 1066 2872 1066 2709 
L 1066 0 
L 472 0 
L 472 4591 
z
" transform="scale(0.015625)"/>
     </defs>
     <use xlink:href="#Helvetica-53"/>
     <use xlink:href="#Helvetica-74" x="66.699219"/>
     <use xlink:href="#Helvetica-75" x="94.482422"/>
     <use xlink:href="#Helvetica-64" x="150.097656"/>
     <use xlink:href="#Helvetica-79" x="205.712891"/>
     <use xlink:href="#Helvetica-20" x="255.712891"/>
     <use xlink:href="#Helvetica-32" x="283.496094"/>
     <use xlink:href="#Helvetica-3a" x="339.111328"/>
     <use xlink:href="#Helvetica-20" x="366.894531"/>
     <use xlink:href="#Helvetica-4d" x="394.677734"/>
     <use xlink:href="#Helvetica-6f" x="477.978516"/>
     <use xlink:href="#Helvetica-72" x="533.59375"/>
     <use xlink:href="#Helvetica-65" x="566.894531"/>
     <use xlink:href="#Helvetica-20" x="622.509766"/>
     <use xlink:href="#Helvetica-69" x="650.292969"/>
     <use xlink:href="#Helvetica-6e" x="672.509766"/>
     <use xlink:href="#Helvetica-66" x="728.125"/>
     <use xlink:href="#Helvetica-6f" x="755.908203"/>
     <use xlink:href="#Helvetica-72" x="811.523438"/>
     <use xlink:href="#Helvetica-6d" x="844.824219"/>
     <use xlink:href="#Helvetica-61" x="928.125"/>
     <use xlink:href="#Helvetica-74" x="983.740234"/>
     <use xlink:href="#Helvetica-69" x="1011.523438"/>
     <use xlink:href="#Helvetica-6f" x="1033.740234"/>
     <use xlink:href="#Helvetica-6e" x="1089.355469"/>
     <use xlink:href="#Helvetica-20" x="1144.970703"/>
     <use xlink:href="#Helvetica-63" x="1172.753906"/>
     <use xlink:href="#Helvetica-6f" x="1222.753906"/>
     <use xlink:href="#Helvetica-6c" x="1278.369141"/>
     <use xlink:href="#Helvetica-6c" x="1300.585938"/>
     <use xlink:href="#Helvetica-65" x="1322.802734"/>
     <use xlink:href="#Helvetica-63" x="1378.417969"/>
     <use xlink:href="#Helvetica-74" x="1428.417969"/>
     <use xlink:href="#Helvetica-65" x="1456.201172"/>
     <use xlink:href="#Helvetica-64" x="1511.816406"/>
    </g>
    <!-- for purpose of predicting outcome, -->
    <g style="fill: #262626" transform="translate(548.093398 220.447393) scale(0.12 -0.12)">
     <defs>
      <path id="Helvetica-2c" d="M 531 -653 
Q 747 -616 834 -350 
Q 881 -209 881 -78 
Q 881 -56 879 -39 
Q 878 -22 872 0 
L 531 0 
L 531 681 
L 1200 681 
L 1200 50 
Q 1200 -322 1050 -603 
Q 900 -884 531 -950 
L 531 -653 
z
" transform="scale(0.015625)"/>
     </defs>
     <use xlink:href="#Helvetica-66"/>
     <use xlink:href="#Helvetica-6f" x="27.783203"/>
     <use xlink:href="#Helvetica-72" x="83.398438"/>
     <use xlink:href="#Helvetica-20" x="116.699219"/>
     <use xlink:href="#Helvetica-70" x="144.482422"/>
     <use xlink:href="#Helvetica-75" x="200.097656"/>
     <use xlink:href="#Helvetica-72" x="255.712891"/>
     <use xlink:href="#Helvetica-70" x="289.013672"/>
     <use xlink:href="#Helvetica-6f" x="344.628906"/>
     <use xlink:href="#Helvetica-73" x="400.244141"/>
     <use xlink:href="#Helvetica-65" x="450.244141"/>
     <use xlink:href="#Helvetica-20" x="505.859375"/>
     <use xlink:href="#Helvetica-6f" x="533.642578"/>
     <use xlink:href="#Helvetica-66" x="589.257812"/>
     <use xlink:href="#Helvetica-20" x="617.041016"/>
     <use xlink:href="#Helvetica-70" x="644.824219"/>
     <use xlink:href="#Helvetica-72" x="700.439453"/>
     <use xlink:href="#Helvetica-65" x="733.740234"/>
     <use xlink:href="#Helvetica-64" x="789.355469"/>
     <use xlink:href="#Helvetica-69" x="844.970703"/>
     <use xlink:href="#Helvetica-63" x="867.1875"/>
     <use xlink:href="#Helvetica-74" x="917.1875"/>
     <use xlink:href="#Helvetica-69" x="944.970703"/>
     <use xlink:href="#Helvetica-6e" x="967.1875"/>
     <use xlink:href="#Helvetica-67" x="1022.802734"/>
     <use xlink:href="#Helvetica-20" x="1078.417969"/>
     <use xlink:href="#Helvetica-6f" x="1106.201172"/>
     <use xlink:href="#Helvetica-75" x="1161.816406"/>
     <use xlink:href="#Helvetica-74" x="1217.431641"/>
     <use xlink:href="#Helvetica-63" x="1245.214844"/>
     <use xlink:href="#Helvetica-6f" x="1295.214844"/>
     <use xlink:href="#Helvetica-6d" x="1350.830078"/>
     <use xlink:href="#Helvetica-65" x="1434.130859"/>
     <use xlink:href="#Helvetica-2c" x="1489.746094"/>
    </g>
    <!-- but better measurement possible. -->
    <g style="fill: #262626" transform="translate(550.096835 233.465893) scale(0.12 -0.12)">
     <use xlink:href="#Helvetica-62"/>
     <use xlink:href="#Helvetica-75" x="55.615234"/>
     <use xlink:href="#Helvetica-74" x="111.230469"/>
     <use xlink:href="#Helvetica-20" x="139.013672"/>
     <use xlink:href="#Helvetica-62" x="166.796875"/>
     <use xlink:href="#Helvetica-65" x="222.412109"/>
     <use xlink:href="#Helvetica-74" x="278.027344"/>
     <use xlink:href="#Helvetica-74" x="305.810547"/>
     <use xlink:href="#Helvetica-65" x="333.59375"/>
     <use xlink:href="#Helvetica-72" x="389.208984"/>
     <use xlink:href="#Helvetica-20" x="422.509766"/>
     <use xlink:href="#Helvetica-6d" x="450.292969"/>
     <use xlink:href="#Helvetica-65" x="533.59375"/>
     <use xlink:href="#Helvetica-61" x="589.208984"/>
     <use xlink:href="#Helvetica-73" x="644.824219"/>
     <use xlink:href="#Helvetica-75" x="694.824219"/>
     <use xlink:href="#Helvetica-72" x="750.439453"/>
     <use xlink:href="#Helvetica-65" x="783.740234"/>
     <use xlink:href="#Helvetica-6d" x="839.355469"/>
     <use xlink:href="#Helvetica-65" x="922.65625"/>
     <use xlink:href="#Helvetica-6e" x="978.271484"/>
     <use xlink:href="#Helvetica-74" x="1033.886719"/>
     <use xlink:href="#Helvetica-20" x="1061.669922"/>
     <use xlink:href="#Helvetica-70" x="1089.453125"/>
     <use xlink:href="#Helvetica-6f" x="1145.068359"/>
     <use xlink:href="#Helvetica-73" x="1200.683594"/>
     <use xlink:href="#Helvetica-73" x="1250.683594"/>
     <use xlink:href="#Helvetica-69" x="1300.683594"/>
     <use xlink:href="#Helvetica-62" x="1322.900391"/>
     <use xlink:href="#Helvetica-6c" x="1378.515625"/>
     <use xlink:href="#Helvetica-65" x="1400.732422"/>
     <use xlink:href="#Helvetica-2e" x="1456.347656"/>
    </g>
   </g>
   <g id="patch_11">
    <path d="M 546.662035 115.178547 
L 491.825773 115.178547 
L 491.825773 180.097052 
" style="fill: none; stroke: #000000; stroke-linecap: round"/>
    <path d="M 495.825773 172.097052 
L 491.825773 180.097052 
L 487.825773 172.097052 
" style="fill: none; stroke: #000000; stroke-linecap: round"/>
   </g>
   <g id="text_17">
    <g id="patch_12">
     <path d="M 552.763085 130.995297 
L 725.51246 130.995297 
Q 729.11246 130.995297 729.11246 127.395297 
L 729.11246 103.044297 
Q 729.11246 99.444297 725.51246 99.444297 
L 552.763085 99.444297 
Q 549.163085 99.444297 549.163085 103.044297 
L 549.163085 127.395297 
Q 549.163085 130.995297 552.763085 130.995297 
z
" style="fill: #ffffff; stroke: #000000; stroke-linejoin: miter"/>
    </g>
    <!-- Study 2*: Study 2 estimated with -->
    <g style="fill: #262626" transform="translate(552.763085 111.804297) scale(0.12 -0.12)">
     <defs>
      <path id="Helvetica-2a" d="M 1406 4591 
L 1406 3894 
L 2088 4131 
L 2213 3784 
L 1531 3563 
L 1953 2975 
L 1644 2753 
L 1234 3363 
L 822 2753 
L 503 2975 
L 931 3563 
L 244 3784 
L 369 4131 
L 1044 3888 
L 1044 4591 
L 1406 4591 
z
" transform="scale(0.015625)"/>
     </defs>
     <use xlink:href="#Helvetica-53"/>
     <use xlink:href="#Helvetica-74" x="66.699219"/>
     <use xlink:href="#Helvetica-75" x="94.482422"/>
     <use xlink:href="#Helvetica-64" x="150.097656"/>
     <use xlink:href="#Helvetica-79" x="205.712891"/>
     <use xlink:href="#Helvetica-20" x="255.712891"/>
     <use xlink:href="#Helvetica-32" x="283.496094"/>
     <use xlink:href="#Helvetica-2a" x="339.111328"/>
     <use xlink:href="#Helvetica-3a" x="378.027344"/>
     <use xlink:href="#Helvetica-20" x="405.810547"/>
     <use xlink:href="#Helvetica-53" x="433.59375"/>
     <use xlink:href="#Helvetica-74" x="500.292969"/>
     <use xlink:href="#Helvetica-75" x="528.076172"/>
     <use xlink:href="#Helvetica-64" x="583.691406"/>
     <use xlink:href="#Helvetica-79" x="639.306641"/>
     <use xlink:href="#Helvetica-20" x="689.306641"/>
     <use xlink:href="#Helvetica-32" x="717.089844"/>
     <use xlink:href="#Helvetica-20" x="772.705078"/>
     <use xlink:href="#Helvetica-65" x="800.488281"/>
     <use xlink:href="#Helvetica-73" x="856.103516"/>
     <use xlink:href="#Helvetica-74" x="906.103516"/>
     <use xlink:href="#Helvetica-69" x="933.886719"/>
     <use xlink:href="#Helvetica-6d" x="956.103516"/>
     <use xlink:href="#Helvetica-61" x="1039.404297"/>
     <use xlink:href="#Helvetica-74" x="1095.019531"/>
     <use xlink:href="#Helvetica-65" x="1122.802734"/>
     <use xlink:href="#Helvetica-64" x="1178.417969"/>
     <use xlink:href="#Helvetica-20" x="1234.033203"/>
     <use xlink:href="#Helvetica-77" x="1261.816406"/>
     <use xlink:href="#Helvetica-69" x="1334.033203"/>
     <use xlink:href="#Helvetica-74" x="1356.25"/>
     <use xlink:href="#Helvetica-68" x="1384.033203"/>
    </g>
    <!-- superior learning algorithm. -->
    <g style="fill: #262626" transform="translate(566.440273 124.740297) scale(0.12 -0.12)">
     <use xlink:href="#Helvetica-73"/>
     <use xlink:href="#Helvetica-75" x="50"/>
     <use xlink:href="#Helvetica-70" x="105.615234"/>
     <use xlink:href="#Helvetica-65" x="161.230469"/>
     <use xlink:href="#Helvetica-72" x="216.845703"/>
     <use xlink:href="#Helvetica-69" x="250.146484"/>
     <use xlink:href="#Helvetica-6f" x="272.363281"/>
     <use xlink:href="#Helvetica-72" x="327.978516"/>
     <use xlink:href="#Helvetica-20" x="361.279297"/>
     <use xlink:href="#Helvetica-6c" x="389.0625"/>
     <use xlink:href="#Helvetica-65" x="411.279297"/>
     <use xlink:href="#Helvetica-61" x="466.894531"/>
     <use xlink:href="#Helvetica-72" x="522.509766"/>
     <use xlink:href="#Helvetica-6e" x="555.810547"/>
     <use xlink:href="#Helvetica-69" x="611.425781"/>
     <use xlink:href="#Helvetica-6e" x="633.642578"/>
     <use xlink:href="#Helvetica-67" x="689.257812"/>
     <use xlink:href="#Helvetica-20" x="744.873047"/>
     <use xlink:href="#Helvetica-61" x="772.65625"/>
     <use xlink:href="#Helvetica-6c" x="828.271484"/>
     <use xlink:href="#Helvetica-67" x="850.488281"/>
     <use xlink:href="#Helvetica-6f" x="906.103516"/>
     <use xlink:href="#Helvetica-72" x="961.71875"/>
     <use xlink:href="#Helvetica-69" x="995.019531"/>
     <use xlink:href="#Helvetica-74" x="1017.236328"/>
     <use xlink:href="#Helvetica-68" x="1045.019531"/>
     <use xlink:href="#Helvetica-6d" x="1100.634766"/>
     <use xlink:href="#Helvetica-2e" x="1183.935547"/>
    </g>
   </g>
   <g id="patch_13">
    <path d="M 843.534864 387.026827 
Q 843.534864 331.097951 843.534864 276.287108 
" style="fill: none; stroke: #000000; stroke-linecap: round"/>
    <path d="M 839.534864 284.287108 
L 843.534864 276.287108 
L 847.534864 284.287108 
" style="fill: none; stroke: #000000; stroke-linecap: round"/>
   </g>
   <g id="text_18">
    <g id="patch_14">
     <path d="M 744.827364 446.882274 
L 942.242364 446.882274 
Q 945.842364 446.882274 945.842364 443.282274 
L 945.842364 393.123024 
Q 945.842364 389.523024 942.242364 389.523024 
L 744.827364 389.523024 
Q 741.227364 389.523024 741.227364 393.123024 
L 741.227364 443.282274 
Q 741.227364 446.882274 744.827364 446.882274 
z
" style="fill: #ffffff; stroke: #000000; stroke-linejoin: miter"/>
    </g>
    <!-- Study 3: Almost all useful information -->
    <g style="fill: #262626" transform="translate(744.827364 401.883024) scale(0.12 -0.12)">
     <defs>
      <path id="Helvetica-33" d="M 1663 -122 
Q 869 -122 511 314 
Q 153 750 153 1375 
L 741 1375 
Q 778 941 903 744 
Q 1122 391 1694 391 
Q 2138 391 2406 628 
Q 2675 866 2675 1241 
Q 2675 1703 2392 1887 
Q 2109 2072 1606 2072 
Q 1550 2072 1492 2070 
Q 1434 2069 1375 2066 
L 1375 2563 
Q 1463 2553 1522 2550 
Q 1581 2547 1650 2547 
Q 1966 2547 2169 2647 
Q 2525 2822 2525 3272 
Q 2525 3606 2287 3787 
Q 2050 3969 1734 3969 
Q 1172 3969 956 3594 
Q 838 3388 822 3006 
L 266 3006 
Q 266 3506 466 3856 
Q 809 4481 1675 4481 
Q 2359 4481 2734 4176 
Q 3109 3872 3109 3294 
Q 3109 2881 2888 2625 
Q 2750 2466 2531 2375 
Q 2884 2278 3082 2001 
Q 3281 1725 3281 1325 
Q 3281 684 2859 281 
Q 2438 -122 1663 -122 
z
" transform="scale(0.015625)"/>
      <path id="Helvetica-41" d="M 2844 1881 
L 2147 3909 
L 1406 1881 
L 2844 1881 
z
M 1822 4591 
L 2525 4591 
L 4191 0 
L 3509 0 
L 3044 1375 
L 1228 1375 
L 731 0 
L 94 0 
L 1822 4591 
z
M 2144 4591 
L 2144 4591 
z
" transform="scale(0.015625)"/>
     </defs>
     <use xlink:href="#Helvetica-53"/>
     <use xlink:href="#Helvetica-74" x="66.699219"/>
     <use xlink:href="#Helvetica-75" x="94.482422"/>
     <use xlink:href="#Helvetica-64" x="150.097656"/>
     <use xlink:href="#Helvetica-79" x="205.712891"/>
     <use xlink:href="#Helvetica-20" x="255.712891"/>
     <use xlink:href="#Helvetica-33" x="283.496094"/>
     <use xlink:href="#Helvetica-3a" x="339.111328"/>
     <use xlink:href="#Helvetica-20" x="366.894531"/>
     <use xlink:href="#Helvetica-41" x="394.677734"/>
     <use xlink:href="#Helvetica-6c" x="461.376953"/>
     <use xlink:href="#Helvetica-6d" x="483.59375"/>
     <use xlink:href="#Helvetica-6f" x="566.894531"/>
     <use xlink:href="#Helvetica-73" x="622.509766"/>
     <use xlink:href="#Helvetica-74" x="672.509766"/>
     <use xlink:href="#Helvetica-20" x="700.292969"/>
     <use xlink:href="#Helvetica-61" x="728.076172"/>
     <use xlink:href="#Helvetica-6c" x="783.691406"/>
     <use xlink:href="#Helvetica-6c" x="805.908203"/>
     <use xlink:href="#Helvetica-20" x="828.125"/>
     <use xlink:href="#Helvetica-75" x="855.908203"/>
     <use xlink:href="#Helvetica-73" x="911.523438"/>
     <use xlink:href="#Helvetica-65" x="961.523438"/>
     <use xlink:href="#Helvetica-66" x="1017.138672"/>
     <use xlink:href="#Helvetica-75" x="1044.921875"/>
     <use xlink:href="#Helvetica-6c" x="1100.537109"/>
     <use xlink:href="#Helvetica-20" x="1122.753906"/>
     <use xlink:href="#Helvetica-69" x="1150.537109"/>
     <use xlink:href="#Helvetica-6e" x="1172.753906"/>
     <use xlink:href="#Helvetica-66" x="1228.369141"/>
     <use xlink:href="#Helvetica-6f" x="1256.152344"/>
     <use xlink:href="#Helvetica-72" x="1311.767578"/>
     <use xlink:href="#Helvetica-6d" x="1345.068359"/>
     <use xlink:href="#Helvetica-61" x="1428.369141"/>
     <use xlink:href="#Helvetica-74" x="1483.984375"/>
     <use xlink:href="#Helvetica-69" x="1511.767578"/>
     <use xlink:href="#Helvetica-6f" x="1533.984375"/>
     <use xlink:href="#Helvetica-6e" x="1589.599609"/>
    </g>
    <!-- which contributes to performance -->
    <g style="fill: #262626" transform="translate(755.164239 414.931524) scale(0.12 -0.12)">
     <use xlink:href="#Helvetica-77"/>
     <use xlink:href="#Helvetica-68" x="72.216797"/>
     <use xlink:href="#Helvetica-69" x="127.832031"/>
     <use xlink:href="#Helvetica-63" x="150.048828"/>
     <use xlink:href="#Helvetica-68" x="200.048828"/>
     <use xlink:href="#Helvetica-20" x="255.664062"/>
     <use xlink:href="#Helvetica-63" x="283.447266"/>
     <use xlink:href="#Helvetica-6f" x="333.447266"/>
     <use xlink:href="#Helvetica-6e" x="389.0625"/>
     <use xlink:href="#Helvetica-74" x="444.677734"/>
     <use xlink:href="#Helvetica-72" x="472.460938"/>
     <use xlink:href="#Helvetica-69" x="505.761719"/>
     <use xlink:href="#Helvetica-62" x="527.978516"/>
     <use xlink:href="#Helvetica-75" x="583.59375"/>
     <use xlink:href="#Helvetica-74" x="639.208984"/>
     <use xlink:href="#Helvetica-65" x="666.992188"/>
     <use xlink:href="#Helvetica-73" x="722.607422"/>
     <use xlink:href="#Helvetica-20" x="772.607422"/>
     <use xlink:href="#Helvetica-74" x="800.390625"/>
     <use xlink:href="#Helvetica-6f" x="828.173828"/>
     <use xlink:href="#Helvetica-20" x="883.789062"/>
     <use xlink:href="#Helvetica-70" x="911.572266"/>
     <use xlink:href="#Helvetica-65" x="967.1875"/>
     <use xlink:href="#Helvetica-72" x="1022.802734"/>
     <use xlink:href="#Helvetica-66" x="1056.103516"/>
     <use xlink:href="#Helvetica-6f" x="1083.886719"/>
     <use xlink:href="#Helvetica-72" x="1139.501953"/>
     <use xlink:href="#Helvetica-6d" x="1172.802734"/>
     <use xlink:href="#Helvetica-61" x="1256.103516"/>
     <use xlink:href="#Helvetica-6e" x="1311.71875"/>
     <use xlink:href="#Helvetica-63" x="1367.333984"/>
     <use xlink:href="#Helvetica-65" x="1417.333984"/>
    </g>
    <!-- collected, irreducible error remains -->
    <g style="fill: #262626" transform="translate(751.505176 427.762524) scale(0.12 -0.12)">
     <use xlink:href="#Helvetica-63"/>
     <use xlink:href="#Helvetica-6f" x="50"/>
     <use xlink:href="#Helvetica-6c" x="105.615234"/>
     <use xlink:href="#Helvetica-6c" x="127.832031"/>
     <use xlink:href="#Helvetica-65" x="150.048828"/>
     <use xlink:href="#Helvetica-63" x="205.664062"/>
     <use xlink:href="#Helvetica-74" x="255.664062"/>
     <use xlink:href="#Helvetica-65" x="283.447266"/>
     <use xlink:href="#Helvetica-64" x="339.0625"/>
     <use xlink:href="#Helvetica-2c" x="394.677734"/>
     <use xlink:href="#Helvetica-20" x="422.460938"/>
     <use xlink:href="#Helvetica-69" x="450.244141"/>
     <use xlink:href="#Helvetica-72" x="472.460938"/>
     <use xlink:href="#Helvetica-72" x="505.761719"/>
     <use xlink:href="#Helvetica-65" x="539.0625"/>
     <use xlink:href="#Helvetica-64" x="594.677734"/>
     <use xlink:href="#Helvetica-75" x="650.292969"/>
     <use xlink:href="#Helvetica-63" x="705.908203"/>
     <use xlink:href="#Helvetica-69" x="755.908203"/>
     <use xlink:href="#Helvetica-62" x="778.125"/>
     <use xlink:href="#Helvetica-6c" x="833.740234"/>
     <use xlink:href="#Helvetica-65" x="855.957031"/>
     <use xlink:href="#Helvetica-20" x="911.572266"/>
     <use xlink:href="#Helvetica-65" x="939.355469"/>
     <use xlink:href="#Helvetica-72" x="994.970703"/>
     <use xlink:href="#Helvetica-72" x="1028.271484"/>
     <use xlink:href="#Helvetica-6f" x="1061.572266"/>
     <use xlink:href="#Helvetica-72" x="1117.1875"/>
     <use xlink:href="#Helvetica-20" x="1150.488281"/>
     <use xlink:href="#Helvetica-72" x="1178.271484"/>
     <use xlink:href="#Helvetica-65" x="1211.572266"/>
     <use xlink:href="#Helvetica-6d" x="1267.1875"/>
     <use xlink:href="#Helvetica-61" x="1350.488281"/>
     <use xlink:href="#Helvetica-69" x="1406.103516"/>
     <use xlink:href="#Helvetica-6e" x="1428.320312"/>
     <use xlink:href="#Helvetica-73" x="1483.935547"/>
    </g>
    <!-- but learning error can be reduced. -->
    <g style="fill: #262626" transform="translate(753.153301 440.627274) scale(0.12 -0.12)">
     <use xlink:href="#Helvetica-62"/>
     <use xlink:href="#Helvetica-75" x="55.615234"/>
     <use xlink:href="#Helvetica-74" x="111.230469"/>
     <use xlink:href="#Helvetica-20" x="139.013672"/>
     <use xlink:href="#Helvetica-6c" x="166.796875"/>
     <use xlink:href="#Helvetica-65" x="189.013672"/>
     <use xlink:href="#Helvetica-61" x="244.628906"/>
     <use xlink:href="#Helvetica-72" x="300.244141"/>
     <use xlink:href="#Helvetica-6e" x="333.544922"/>
     <use xlink:href="#Helvetica-69" x="389.160156"/>
     <use xlink:href="#Helvetica-6e" x="411.376953"/>
     <use xlink:href="#Helvetica-67" x="466.992188"/>
     <use xlink:href="#Helvetica-20" x="522.607422"/>
     <use xlink:href="#Helvetica-65" x="550.390625"/>
     <use xlink:href="#Helvetica-72" x="606.005859"/>
     <use xlink:href="#Helvetica-72" x="639.306641"/>
     <use xlink:href="#Helvetica-6f" x="672.607422"/>
     <use xlink:href="#Helvetica-72" x="728.222656"/>
     <use xlink:href="#Helvetica-20" x="761.523438"/>
     <use xlink:href="#Helvetica-63" x="789.306641"/>
     <use xlink:href="#Helvetica-61" x="839.306641"/>
     <use xlink:href="#Helvetica-6e" x="894.921875"/>
     <use xlink:href="#Helvetica-20" x="950.537109"/>
     <use xlink:href="#Helvetica-62" x="978.320312"/>
     <use xlink:href="#Helvetica-65" x="1033.935547"/>
     <use xlink:href="#Helvetica-20" x="1089.550781"/>
     <use xlink:href="#Helvetica-72" x="1117.333984"/>
     <use xlink:href="#Helvetica-65" x="1150.634766"/>
     <use xlink:href="#Helvetica-64" x="1206.25"/>
     <use xlink:href="#Helvetica-75" x="1261.865234"/>
     <use xlink:href="#Helvetica-63" x="1317.480469"/>
     <use xlink:href="#Helvetica-65" x="1367.480469"/>
     <use xlink:href="#Helvetica-64" x="1423.095703"/>
     <use xlink:href="#Helvetica-2e" x="1478.710938"/>
    </g>
   </g>
   <g id="text_19">
    <!-- Truly -->
    <g style="fill: #262626" transform="translate(888.234676 94.487485) scale(0.12 -0.12)">
     <defs>
      <path id="Helvetica-54" d="M 3828 4591 
L 3828 4044 
L 2281 4044 
L 2281 0 
L 1650 0 
L 1650 4044 
L 103 4044 
L 103 4591 
L 3828 4591 
z
" transform="scale(0.015625)"/>
     </defs>
     <use xlink:href="#Helvetica-54"/>
     <use xlink:href="#Helvetica-72" x="61.083984"/>
     <use xlink:href="#Helvetica-75" x="94.384766"/>
     <use xlink:href="#Helvetica-6c" x="150"/>
     <use xlink:href="#Helvetica-79" x="172.216797"/>
    </g>
    <!-- Irreducible -->
    <g style="fill: #262626" transform="translate(873.555301 107.389735) scale(0.12 -0.12)">
     <use xlink:href="#Helvetica-49"/>
     <use xlink:href="#Helvetica-72" x="27.783203"/>
     <use xlink:href="#Helvetica-72" x="61.083984"/>
     <use xlink:href="#Helvetica-65" x="94.384766"/>
     <use xlink:href="#Helvetica-64" x="150"/>
     <use xlink:href="#Helvetica-75" x="205.615234"/>
     <use xlink:href="#Helvetica-63" x="261.230469"/>
     <use xlink:href="#Helvetica-69" x="311.230469"/>
     <use xlink:href="#Helvetica-62" x="333.447266"/>
     <use xlink:href="#Helvetica-6c" x="389.0625"/>
     <use xlink:href="#Helvetica-65" x="411.279297"/>
    </g>
    <!-- Error -->
    <g style="fill: #262626" transform="translate(888.234676 120.220735) scale(0.12 -0.12)">
     <defs>
      <path id="Helvetica-45" d="M 547 4591 
L 3894 4591 
L 3894 4028 
L 1153 4028 
L 1153 2634 
L 3688 2634 
L 3688 2103 
L 1153 2103 
L 1153 547 
L 3941 547 
L 3941 0 
L 547 0 
L 547 4591 
z
M 2244 4591 
L 2244 4591 
z
" transform="scale(0.015625)"/>
     </defs>
     <use xlink:href="#Helvetica-45"/>
     <use xlink:href="#Helvetica-72" x="66.699219"/>
     <use xlink:href="#Helvetica-72" x="100"/>
     <use xlink:href="#Helvetica-6f" x="133.300781"/>
     <use xlink:href="#Helvetica-72" x="188.916016"/>
    </g>
   </g>
   <g id="text_20">
    <!-- All Learning -->
    <g style="fill: #262626" transform="translate(869.881239 200.359376) scale(0.12 -0.12)">
     <defs>
      <path id="Helvetica-4c" d="M 488 4591 
L 1109 4591 
L 1109 547 
L 3434 547 
L 3434 0 
L 488 0 
L 488 4591 
z
" transform="scale(0.015625)"/>
     </defs>
     <use xlink:href="#Helvetica-41"/>
     <use xlink:href="#Helvetica-6c" x="66.699219"/>
     <use xlink:href="#Helvetica-6c" x="88.916016"/>
     <use xlink:href="#Helvetica-20" x="111.132812"/>
     <use xlink:href="#Helvetica-4c" x="138.916016"/>
     <use xlink:href="#Helvetica-65" x="194.53125"/>
     <use xlink:href="#Helvetica-61" x="250.146484"/>
     <use xlink:href="#Helvetica-72" x="305.761719"/>
     <use xlink:href="#Helvetica-6e" x="339.0625"/>
     <use xlink:href="#Helvetica-69" x="394.677734"/>
     <use xlink:href="#Helvetica-6e" x="416.894531"/>
     <use xlink:href="#Helvetica-67" x="472.509766"/>
    </g>
    <!-- Error -->
    <g style="fill: #262626" transform="translate(888.234676 213.344126) scale(0.12 -0.12)">
     <use xlink:href="#Helvetica-45"/>
     <use xlink:href="#Helvetica-72" x="66.699219"/>
     <use xlink:href="#Helvetica-72" x="100"/>
     <use xlink:href="#Helvetica-6f" x="133.300781"/>
     <use xlink:href="#Helvetica-72" x="188.916016"/>
    </g>
    <!-- Eliminated -->
    <g style="fill: #262626" transform="translate(873.554364 226.175126) scale(0.12 -0.12)">
     <use xlink:href="#Helvetica-45"/>
     <use xlink:href="#Helvetica-6c" x="66.699219"/>
     <use xlink:href="#Helvetica-69" x="88.916016"/>
     <use xlink:href="#Helvetica-6d" x="111.132812"/>
     <use xlink:href="#Helvetica-69" x="194.433594"/>
     <use xlink:href="#Helvetica-6e" x="216.650391"/>
     <use xlink:href="#Helvetica-61" x="272.265625"/>
     <use xlink:href="#Helvetica-74" x="327.880859"/>
     <use xlink:href="#Helvetica-65" x="355.664062"/>
     <use xlink:href="#Helvetica-64" x="411.279297"/>
    </g>
   </g>
   <g id="text_21">
    <!-- Reducible -->
    <g style="fill: #262626" transform="translate(523.175585 327.105683) scale(0.12 -0.12)">
     <use xlink:href="#Helvetica-52"/>
     <use xlink:href="#Helvetica-65" x="72.216797"/>
     <use xlink:href="#Helvetica-64" x="127.832031"/>
     <use xlink:href="#Helvetica-75" x="183.447266"/>
     <use xlink:href="#Helvetica-63" x="239.0625"/>
     <use xlink:href="#Helvetica-69" x="289.0625"/>
     <use xlink:href="#Helvetica-62" x="311.279297"/>
     <use xlink:href="#Helvetica-6c" x="366.894531"/>
     <use xlink:href="#Helvetica-65" x="389.111328"/>
    </g>
    <!-- Error -->
    <g style="fill: #262626" transform="translate(536.525585 339.936683) scale(0.12 -0.12)">
     <use xlink:href="#Helvetica-45"/>
     <use xlink:href="#Helvetica-72" x="66.699219"/>
     <use xlink:href="#Helvetica-72" x="100"/>
     <use xlink:href="#Helvetica-6f" x="133.300781"/>
     <use xlink:href="#Helvetica-72" x="188.916016"/>
    </g>
   </g>
   <g id="text_22">
    <!-- Perfect Prediction -->
    <g transform="translate(877.841375 45.004025) scale(0.12 -0.12)">
     <use xlink:href="#Helvetica-50"/>
     <use xlink:href="#Helvetica-65" x="66.699219"/>
     <use xlink:href="#Helvetica-72" x="122.314453"/>
     <use xlink:href="#Helvetica-66" x="155.615234"/>
     <use xlink:href="#Helvetica-65" x="183.398438"/>
     <use xlink:href="#Helvetica-63" x="239.013672"/>
     <use xlink:href="#Helvetica-74" x="289.013672"/>
     <use xlink:href="#Helvetica-20" x="316.796875"/>
     <use xlink:href="#Helvetica-50" x="344.580078"/>
     <use xlink:href="#Helvetica-72" x="411.279297"/>
     <use xlink:href="#Helvetica-65" x="444.580078"/>
     <use xlink:href="#Helvetica-64" x="500.195312"/>
     <use xlink:href="#Helvetica-69" x="555.810547"/>
     <use xlink:href="#Helvetica-63" x="578.027344"/>
     <use xlink:href="#Helvetica-74" x="628.027344"/>
     <use xlink:href="#Helvetica-69" x="655.810547"/>
     <use xlink:href="#Helvetica-6f" x="678.027344"/>
     <use xlink:href="#Helvetica-6e" x="733.642578"/>
    </g>
   </g>
   <g id="text_23">
    <!-- a. -->
    <g style="fill: #262626" transform="translate(81.4985 21.546875) scale(0.2 -0.2)">
     <use xlink:href="#Helvetica-61"/>
     <use xlink:href="#Helvetica-2e" x="55.615234"/>
    </g>
   </g>
   <g id="legend_1">
    <g id="patch_15">
     <path d="M 90.5985 141.365 
L 432.293344 141.365 
Q 434.893344 141.365 434.893344 138.765 
L 434.893344 74.068875 
Q 434.893344 71.468875 432.293344 71.468875 
L 90.5985 71.468875 
Q 87.9985 71.468875 87.9985 74.068875 
L 87.9985 138.765 
Q 87.9985 141.365 90.5985 141.365 
z
" style="fill: #ffffff; stroke: #000000; stroke-linejoin: miter"/>
    </g>
    <g id="line2d_20">
     <path d="M 93.1985 90.089547 
L 106.1985 90.089547 
L 119.1985 90.089547 
" style="fill: none"/>
     <defs>
      <path id="m2fab0815d6" d="M 0 7 
C 1.856422 7 3.637059 6.262436 4.949747 4.949747 
C 6.262436 3.637059 7 1.856422 7 0 
C 7 -1.856422 6.262436 -3.637059 4.949747 -4.949747 
C 3.637059 -6.262436 1.856422 -7 0 -7 
C -1.856422 -7 -3.637059 -6.262436 -4.949747 -4.949747 
C -6.262436 -3.637059 -7 -1.856422 -7 0 
C -7 1.856422 -6.262436 3.637059 -4.949747 4.949747 
C -3.637059 6.262436 -1.856422 7 0 7 
z
" style="stroke: #c44e52"/>
     </defs>
     <g>
      <use xlink:href="#m2fab0815d6" x="106.1985" y="90.089547" style="fill: #ffffff; stroke: #c44e52"/>
     </g>
    </g>
    <g id="text_24">
     <!-- Mean K-fold accuracy -->
     <g style="fill: #262626" transform="translate(129.5985 86.362) scale(0.13 -0.13)">
      <defs>
       <path id="Helvetica-4b" d="M 488 4591 
L 1094 4591 
L 1094 2353 
L 3331 4591 
L 4191 4591 
L 2281 2741 
L 4244 0 
L 3434 0 
L 1828 2303 
L 1094 1600 
L 1094 0 
L 488 0 
L 488 4591 
z
" transform="scale(0.015625)"/>
       <path id="Helvetica-2d" d="M 266 2072 
L 1834 2072 
L 1834 1494 
L 266 1494 
L 266 2072 
z
" transform="scale(0.015625)"/>
      </defs>
      <use xlink:href="#Helvetica-4d"/>
      <use xlink:href="#Helvetica-65" x="83.300781"/>
      <use xlink:href="#Helvetica-61" x="138.916016"/>
      <use xlink:href="#Helvetica-6e" x="194.53125"/>
      <use xlink:href="#Helvetica-20" x="250.146484"/>
      <use xlink:href="#Helvetica-4b" x="277.929688"/>
      <use xlink:href="#Helvetica-2d" x="344.628906"/>
      <use xlink:href="#Helvetica-66" x="377.929688"/>
      <use xlink:href="#Helvetica-6f" x="405.712891"/>
      <use xlink:href="#Helvetica-6c" x="461.328125"/>
      <use xlink:href="#Helvetica-64" x="483.544922"/>
      <use xlink:href="#Helvetica-20" x="539.160156"/>
      <use xlink:href="#Helvetica-61" x="566.943359"/>
      <use xlink:href="#Helvetica-63" x="622.558594"/>
      <use xlink:href="#Helvetica-63" x="672.558594"/>
      <use xlink:href="#Helvetica-75" x="722.558594"/>
      <use xlink:href="#Helvetica-72" x="778.173828"/>
      <use xlink:href="#Helvetica-61" x="811.474609"/>
      <use xlink:href="#Helvetica-63" x="867.089844"/>
      <use xlink:href="#Helvetica-79" x="917.089844"/>
     </g>
     <!--  of Individual Studies -->
     <g style="fill: #262626" transform="translate(129.5985 100.339437) scale(0.13 -0.13)">
      <use xlink:href="#Helvetica-20"/>
      <use xlink:href="#Helvetica-6f" x="27.783203"/>
      <use xlink:href="#Helvetica-66" x="83.398438"/>
      <use xlink:href="#Helvetica-20" x="111.181641"/>
      <use xlink:href="#Helvetica-49" x="138.964844"/>
      <use xlink:href="#Helvetica-6e" x="166.748047"/>
      <use xlink:href="#Helvetica-64" x="222.363281"/>
      <use xlink:href="#Helvetica-69" x="277.978516"/>
      <use xlink:href="#Helvetica-76" x="300.195312"/>
      <use xlink:href="#Helvetica-69" x="350.195312"/>
      <use xlink:href="#Helvetica-64" x="372.412109"/>
      <use xlink:href="#Helvetica-75" x="428.027344"/>
      <use xlink:href="#Helvetica-61" x="483.642578"/>
      <use xlink:href="#Helvetica-6c" x="539.257812"/>
      <use xlink:href="#Helvetica-20" x="561.474609"/>
      <use xlink:href="#Helvetica-53" x="589.257812"/>
      <use xlink:href="#Helvetica-74" x="655.957031"/>
      <use xlink:href="#Helvetica-75" x="683.740234"/>
      <use xlink:href="#Helvetica-64" x="739.355469"/>
      <use xlink:href="#Helvetica-69" x="794.970703"/>
      <use xlink:href="#Helvetica-65" x="817.1875"/>
      <use xlink:href="#Helvetica-73" x="872.802734"/>
     </g>
    </g>
    <g id="line2d_21">
     <path d="M 93.1985 122.969797 
L 106.1985 122.969797 
L 119.1985 122.969797 
" style="fill: none; stroke-dasharray: 4.625,2; stroke-dashoffset: 0; stroke: #001c54; stroke-width: 1.25"/>
    </g>
    <g id="text_25">
     <!-- Imperfectly Estimated -->
     <g style="fill: #262626" transform="translate(129.5985 119.006625) scale(0.13 -0.13)">
      <use xlink:href="#Helvetica-49"/>
      <use xlink:href="#Helvetica-6d" x="27.783203"/>
      <use xlink:href="#Helvetica-70" x="111.083984"/>
      <use xlink:href="#Helvetica-65" x="166.699219"/>
      <use xlink:href="#Helvetica-72" x="222.314453"/>
      <use xlink:href="#Helvetica-66" x="255.615234"/>
      <use xlink:href="#Helvetica-65" x="283.398438"/>
      <use xlink:href="#Helvetica-63" x="339.013672"/>
      <use xlink:href="#Helvetica-74" x="389.013672"/>
      <use xlink:href="#Helvetica-6c" x="416.796875"/>
      <use xlink:href="#Helvetica-79" x="439.013672"/>
      <use xlink:href="#Helvetica-20" x="489.013672"/>
      <use xlink:href="#Helvetica-45" x="516.796875"/>
      <use xlink:href="#Helvetica-73" x="583.496094"/>
      <use xlink:href="#Helvetica-74" x="633.496094"/>
      <use xlink:href="#Helvetica-69" x="661.279297"/>
      <use xlink:href="#Helvetica-6d" x="683.496094"/>
      <use xlink:href="#Helvetica-61" x="766.796875"/>
      <use xlink:href="#Helvetica-74" x="822.412109"/>
      <use xlink:href="#Helvetica-65" x="850.195312"/>
      <use xlink:href="#Helvetica-64" x="905.810547"/>
     </g>
     <!--    Learning Curve -->
     <g style="fill: #262626" transform="translate(129.5985 133.28875) scale(0.13 -0.13)">
      <use xlink:href="#Helvetica-20"/>
      <use xlink:href="#Helvetica-20" x="27.783203"/>
      <use xlink:href="#Helvetica-20" x="55.566406"/>
      <use xlink:href="#Helvetica-4c" x="83.349609"/>
      <use xlink:href="#Helvetica-65" x="138.964844"/>
      <use xlink:href="#Helvetica-61" x="194.580078"/>
      <use xlink:href="#Helvetica-72" x="250.195312"/>
      <use xlink:href="#Helvetica-6e" x="283.496094"/>
      <use xlink:href="#Helvetica-69" x="339.111328"/>
      <use xlink:href="#Helvetica-6e" x="361.328125"/>
      <use xlink:href="#Helvetica-67" x="416.943359"/>
      <use xlink:href="#Helvetica-20" x="472.558594"/>
      <use xlink:href="#Helvetica-43" x="500.341797"/>
      <use xlink:href="#Helvetica-75" x="572.558594"/>
      <use xlink:href="#Helvetica-72" x="628.173828"/>
      <use xlink:href="#Helvetica-76" x="661.474609"/>
      <use xlink:href="#Helvetica-65" x="711.474609"/>
     </g>
    </g>
    <g id="line2d_22">
     <path d="M 281.312563 90.089547 
L 294.312563 90.089547 
L 307.312563 90.089547 
" style="fill: none; stroke: #001c54; stroke-width: 1.25; stroke-linecap: round"/>
    </g>
    <g id="text_26">
     <!-- Perfectly Estimated -->
     <g style="fill: #262626" transform="translate(317.712562 86.126375) scale(0.13 -0.13)">
      <use xlink:href="#Helvetica-50"/>
      <use xlink:href="#Helvetica-65" x="66.699219"/>
      <use xlink:href="#Helvetica-72" x="122.314453"/>
      <use xlink:href="#Helvetica-66" x="155.615234"/>
      <use xlink:href="#Helvetica-65" x="183.398438"/>
      <use xlink:href="#Helvetica-63" x="239.013672"/>
      <use xlink:href="#Helvetica-74" x="289.013672"/>
      <use xlink:href="#Helvetica-6c" x="316.796875"/>
      <use xlink:href="#Helvetica-79" x="339.013672"/>
      <use xlink:href="#Helvetica-20" x="389.013672"/>
      <use xlink:href="#Helvetica-45" x="416.796875"/>
      <use xlink:href="#Helvetica-73" x="483.496094"/>
      <use xlink:href="#Helvetica-74" x="533.496094"/>
      <use xlink:href="#Helvetica-69" x="561.279297"/>
      <use xlink:href="#Helvetica-6d" x="583.496094"/>
      <use xlink:href="#Helvetica-61" x="666.796875"/>
      <use xlink:href="#Helvetica-74" x="722.412109"/>
      <use xlink:href="#Helvetica-65" x="750.195312"/>
      <use xlink:href="#Helvetica-64" x="805.810547"/>
     </g>
     <!--    Learning Curve -->
     <g style="fill: #262626" transform="translate(317.712562 100.4085) scale(0.13 -0.13)">
      <use xlink:href="#Helvetica-20"/>
      <use xlink:href="#Helvetica-20" x="27.783203"/>
      <use xlink:href="#Helvetica-20" x="55.566406"/>
      <use xlink:href="#Helvetica-4c" x="83.349609"/>
      <use xlink:href="#Helvetica-65" x="138.964844"/>
      <use xlink:href="#Helvetica-61" x="194.580078"/>
      <use xlink:href="#Helvetica-72" x="250.195312"/>
      <use xlink:href="#Helvetica-6e" x="283.496094"/>
      <use xlink:href="#Helvetica-69" x="339.111328"/>
      <use xlink:href="#Helvetica-6e" x="361.328125"/>
      <use xlink:href="#Helvetica-67" x="416.943359"/>
      <use xlink:href="#Helvetica-20" x="472.558594"/>
      <use xlink:href="#Helvetica-43" x="500.341797"/>
      <use xlink:href="#Helvetica-75" x="572.558594"/>
      <use xlink:href="#Helvetica-72" x="628.173828"/>
      <use xlink:href="#Helvetica-76" x="661.474609"/>
      <use xlink:href="#Helvetica-65" x="711.474609"/>
     </g>
    </g>
    <g id="line2d_23">
     <path d="M 281.312563 123.00575 
L 294.312563 123.00575 
L 307.312563 123.00575 
" style="fill: none"/>
     <defs>
      <path id="me76d1114a7" d="M -9 0.533882 
L -9 -0.533882 
L -4.333756 -5.200127 
L -2.908803 -3.775174 
L -5.675111 -1.008866 
L 5.675111 -1.008866 
L 2.908803 -3.775174 
L 4.333756 -5.200127 
L 9 -0.533882 
L 9 0.533882 
L 4.333756 5.200127 
L 2.908803 3.775174 
L 5.675111 1.008866 
L -5.675111 1.008866 
L -2.908803 3.775174 
L -4.333756 5.200127 
L -9 0.533882 
z
" style="stroke: #e89818"/>
     </defs>
     <g>
      <use xlink:href="#me76d1114a7" x="294.312563" y="123.00575" style="fill: #e89818; stroke: #e89818"/>
     </g>
    </g>
    <g id="text_27">
     <!-- Learning Rate: -->
     <g style="fill: #262626" transform="translate(317.712562 119.110219) scale(0.13 -0.13)">
      <use xlink:href="#Helvetica-4c"/>
      <use xlink:href="#Helvetica-65" x="55.615234"/>
      <use xlink:href="#Helvetica-61" x="111.230469"/>
      <use xlink:href="#Helvetica-72" x="166.845703"/>
      <use xlink:href="#Helvetica-6e" x="200.146484"/>
      <use xlink:href="#Helvetica-69" x="255.761719"/>
      <use xlink:href="#Helvetica-6e" x="277.978516"/>
      <use xlink:href="#Helvetica-67" x="333.59375"/>
      <use xlink:href="#Helvetica-20" x="389.208984"/>
      <use xlink:href="#Helvetica-52" x="416.992188"/>
      <use xlink:href="#Helvetica-61" x="489.208984"/>
      <use xlink:href="#Helvetica-74" x="544.824219"/>
      <use xlink:href="#Helvetica-65" x="572.607422"/>
      <use xlink:href="#Helvetica-3a" x="628.222656"/>
     </g>
     <!--          f'() -->
     <g style="fill: #262626" transform="translate(317.712562 133.291594) scale(0.13 -0.13)">
      <defs>
       <path id="Helvetica-27" d="M 1056 4591 
L 953 2753 
L 591 2753 
L 488 4591 
L 1056 4591 
z
" transform="scale(0.015625)"/>
      </defs>
      <use xlink:href="#Helvetica-20"/>
      <use xlink:href="#Helvetica-20" x="27.783203"/>
      <use xlink:href="#Helvetica-20" x="55.566406"/>
      <use xlink:href="#Helvetica-20" x="83.349609"/>
      <use xlink:href="#Helvetica-20" x="111.132812"/>
      <use xlink:href="#Helvetica-20" x="138.916016"/>
      <use xlink:href="#Helvetica-20" x="166.699219"/>
      <use xlink:href="#Helvetica-20" x="194.482422"/>
      <use xlink:href="#Helvetica-20" x="222.265625"/>
      <use xlink:href="#Helvetica-66" x="250.048828"/>
      <use xlink:href="#Helvetica-27" x="277.832031"/>
      <use xlink:href="#Helvetica-28" x="296.923828"/>
      <use xlink:href="#Helvetica-29" x="330.224609"/>
     </g>
    </g>
   </g>
  </g>
 </g>
 <defs>
  <clipPath id="p8da6b62dbf">
   <rect x="81.4985" y="27.546875" width="892.8" height="498.96"/>
  </clipPath>
 </defs>
</svg>
